<?xml version="1.0" encoding="UTF-8"?>
<svg xmlns="http://www.w3.org/2000/svg"
     xmlns:xlink="http://www.w3.org/1999/xlink"
     xmlns:gadfly="http://www.gadflyjl.org/ns"
     version="1.2"
     width="210mm" height="70mm" viewBox="0 0 210 70"
     stroke="none"
     fill="#000000"
     stroke-width="0.3"
     font-size="3.88"
>
<g class="plotroot xscalable yscalable" id="img-3a45db3e-1">
  <g font-size="3.88" font-family="'PT Sans','Helvetica Neue','Helvetica',sans-serif" fill="#564A55" stroke="#000000" stroke-opacity="0.000" id="img-3a45db3e-2">
    <g transform="translate(181.48,58.39)">
      <g class="primitive">
        <text text-anchor="middle" dy="0.6em">Time</text>
      </g>
    </g>
  </g>
  <g class="guide xlabels" font-size="2.82" font-family="'PT Sans Caption','Helvetica Neue','Helvetica',sans-serif" fill="#6C606B" id="img-3a45db3e-3">
    <g transform="translate(159.96,51.72)">
      <g class="primitive">
        <text text-anchor="middle" dy="0.6em">0</text>
      </g>
    </g>
    <g transform="translate(170.72,51.72)">
      <g class="primitive">
        <text text-anchor="middle" dy="0.6em">50</text>
      </g>
    </g>
    <g transform="translate(181.48,51.72)">
      <g class="primitive">
        <text text-anchor="middle" dy="0.6em">100</text>
      </g>
    </g>
    <g transform="translate(192.24,51.72)">
      <g class="primitive">
        <text text-anchor="middle" dy="0.6em">150</text>
      </g>
    </g>
    <g transform="translate(203,51.72)">
      <g class="primitive">
        <text text-anchor="middle" dy="0.6em">200</text>
      </g>
    </g>
  </g>
  <g clip-path="url(#img-3a45db3e-4)">
    <g id="img-3a45db3e-5">
      <g pointer-events="visible" fill-opacity="0" fill="#000000" fill-opacity="0.000" stroke="#000000" stroke-opacity="0.000" class="guide background" id="img-3a45db3e-6">
        <g transform="translate(181.48,27.86)">
          <path d="M-23.52,-22.86 L 23.52 -22.86 23.52 22.86 -23.52 22.86 z" class="primitive"/>
        </g>
      </g>
      <g class="guide ygridlines xfixed" stroke-dasharray="0.5,0.5" stroke-width="0.2" stroke="#D0D0E0" id="img-3a45db3e-7">
        <g transform="translate(181.48,48.72)">
          <path fill="none" d="M-23.52,0 L 23.52 0" class="primitive"/>
        </g>
        <g transform="translate(181.48,40.37)">
          <path fill="none" d="M-23.52,0 L 23.52 0" class="primitive"/>
        </g>
        <g transform="translate(181.48,32.03)">
          <path fill="none" d="M-23.52,0 L 23.52 0" class="primitive"/>
        </g>
        <g transform="translate(181.48,23.69)">
          <path fill="none" d="M-23.52,0 L 23.52 0" class="primitive"/>
        </g>
        <g transform="translate(181.48,15.34)">
          <path fill="none" d="M-23.52,0 L 23.52 0" class="primitive"/>
        </g>
        <g transform="translate(181.48,7)">
          <path fill="none" d="M-23.52,0 L 23.52 0" class="primitive"/>
        </g>
      </g>
      <g class="guide xgridlines yfixed" stroke-dasharray="0.5,0.5" stroke-width="0.2" stroke="#D0D0E0" id="img-3a45db3e-8">
        <g transform="translate(159.96,27.86)">
          <path fill="none" d="M0,-22.86 L 0 22.86" class="primitive"/>
        </g>
        <g transform="translate(170.72,27.86)">
          <path fill="none" d="M0,-22.86 L 0 22.86" class="primitive"/>
        </g>
        <g transform="translate(181.48,27.86)">
          <path fill="none" d="M0,-22.86 L 0 22.86" class="primitive"/>
        </g>
        <g transform="translate(192.24,27.86)">
          <path fill="none" d="M0,-22.86 L 0 22.86" class="primitive"/>
        </g>
        <g transform="translate(203,27.86)">
          <path fill="none" d="M0,-22.86 L 0 22.86" class="primitive"/>
        </g>
      </g>
      <g class="plotpanel" id="img-3a45db3e-9">
        <metadata>
          <boundingbox value="157.95833333333331mm 5.0mm 47.04166666666667mm 45.715mm"/>
          <unitbox value="-9.293320425943852 10.479443845139638 218.58664085188772 -10.958887690279276"/>
        </metadata>
        <g stroke-width="0.3" fill="#000000" fill-opacity="0.000" class="geometry" id="img-3a45db3e-10">
          <g class="color_RGB{N0f8}(0.0,0.0,0.0)" stroke-dasharray="2,1" stroke="#000000" id="img-3a45db3e-11">
            <g transform="translate(168.57,41.21)">
              <path fill="none" d="M0,7.51 L 0 -7.51" class="primitive"/>
            </g>
          </g>
        </g>
        <g stroke-width="0.3" fill="#000000" fill-opacity="0.000" class="geometry" id="img-3a45db3e-12">
          <g class="color_RGB{N0f8}(0.0,0.0,0.0)" stroke-dasharray="none" stroke="#000000" id="img-3a45db3e-13">
            <g transform="translate(181.59,20.01)">
              <path fill="none" d="M-21.41,13.69 L -21.2 13.69 -20.98 13.69 -20.77 13.69 -20.55 13.69 -20.34 13.69 -20.12 13.69 -19.91 13.69 -19.69 13.69 -19.48 13.69 -19.26 13.69 -19.05 13.69 -18.83 13.69 -18.62 13.69 -18.4 13.69 -18.19 13.69 -17.97 13.69 -17.75 13.69 -17.54 13.69 -17.32 13.69 -17.11 13.69 -16.89 13.69 -16.68 13.69 -16.46 13.69 -16.25 13.69 -16.03 13.69 -15.82 13.69 -15.6 13.69 -15.39 13.69 -15.17 13.69 -14.96 13.69 -14.74 13.69 -14.53 13.69 -14.31 13.69 -14.1 13.69 -13.88 13.69 -13.67 13.69 -13.45 13.69 -13.24 13.69 -13.02 13.69 -12.8 15.94 -12.59 14.91 -12.37 13.91 -12.16 12.96 -11.94 12.05 -11.73 11.18 -11.51 10.35 -11.3 9.56 -11.08 8.8 -10.87 8.08 -10.65 7.39 -10.44 6.73 -10.22 6.11 -10.01 5.51 -9.79 4.94 -9.58 4.4 -9.36 3.89 -9.15 3.4 -8.93 2.93 -8.72 2.48 -8.5 2.06 -8.29 1.65 -8.07 1.27 -7.86 0.9 -7.64 0.55 -7.42 0.22 -7.21 -0.09 -6.99 -0.4 -6.78 -0.68 -6.56 -0.96 -6.35 -1.22 -6.13 -1.46 -5.92 -1.7 -5.7 -1.92 -5.49 -2.14 -5.27 -2.34 -5.06 -2.53 -4.84 -2.72 -4.63 -2.89 -4.41 -3.06 -4.2 -3.22 -3.98 -3.37 -3.77 -3.51 -3.55 -3.65 -3.34 -3.78 -3.12 -3.9 -2.91 -4.02 -2.69 -4.13 -2.47 -4.24 -2.26 -4.34 -2.04 -4.44 -1.83 -4.53 -1.61 -4.62 -1.4 -4.7 -1.18 -4.78 -0.97 -4.85 -0.75 -4.92 -0.54 -4.99 -0.32 -5.06 -0.11 -5.12 0.11 -5.18 0.32 -5.23 0.54 -5.29 0.75 -5.34 0.97 -5.39 1.18 -5.43 1.4 -5.48 1.61 -5.52 1.83 -5.56 2.04 -5.59 2.26 -5.63 2.47 -5.66 2.69 -5.7 2.91 -5.73 3.12 -5.76 3.34 -5.78 3.55 -5.81 3.77 -5.84 3.98 -5.86 4.2 -5.88 4.41 -5.91 4.63 -5.93 4.84 -5.95 5.06 -5.96 5.27 -5.98 5.49 -6 5.7 -6.02 5.92 -6.03 6.13 -6.05 6.35 -6.06 6.56 -6.07 6.78 -6.09 6.99 -6.1 7.21 -6.11 7.42 -6.12 7.64 -6.13 7.86 -6.14 8.07 -6.15 8.29 -6.16 8.5 -6.17 8.72 -6.17 8.93 -6.18 9.15 -6.19 9.36 -6.2 9.58 -6.2 9.79 -6.21 10.01 -6.21 10.22 -6.22 10.44 -6.23 10.65 -6.23 10.87 -6.24 11.08 -6.24 11.3 -6.25 11.51 -6.25 11.73 -6.25 11.94 -6.26 12.16 -6.26 12.37 -6.26 12.59 -6.27 12.8 -6.27 13.02 -6.27 13.24 -6.28 13.45 -6.28 13.67 -6.28 13.88 -6.28 14.1 -6.29 14.31 -6.29 14.53 -6.29 14.74 -6.29 14.96 -6.29 15.17 -6.3 15.39 -6.3 15.6 -6.3 15.82 -6.3 16.03 -6.3 16.25 -6.3 16.46 -6.31 16.68 -6.31 16.89 -6.31 17.11 -6.31 17.32 -6.31 17.54 -6.31 17.75 -6.31 17.97 -6.31 18.19 -6.31 18.4 -6.32 18.62 -6.32 18.83 -6.32 19.05 -6.32 19.26 -6.32 19.48 -6.32 19.69 -6.32 19.91 -6.32 20.12 -6.32 20.34 -6.32 20.55 -6.32 20.77 -6.32 20.98 -6.32 21.2 -6.32 21.41 -6.32" class="primitive"/>
            </g>
          </g>
        </g>
      </g>
    </g>
  </g>
  <g class="guide ylabels" font-size="2.82" font-family="'PT Sans Caption','Helvetica Neue','Helvetica',sans-serif" fill="#6C606B" id="img-3a45db3e-14">
    <g transform="translate(156.96,48.72)">
      <g class="primitive">
        <text text-anchor="end" dy="0.35em">0</text>
      </g>
    </g>
    <g transform="translate(156.96,40.37)">
      <g class="primitive">
        <text text-anchor="end" dy="0.35em">2</text>
      </g>
    </g>
    <g transform="translate(156.96,32.03)">
      <g class="primitive">
        <text text-anchor="end" dy="0.35em">4</text>
      </g>
    </g>
    <g transform="translate(156.96,23.69)">
      <g class="primitive">
        <text text-anchor="end" dy="0.35em">6</text>
      </g>
    </g>
    <g transform="translate(156.96,15.34)">
      <g class="primitive">
        <text text-anchor="end" dy="0.35em">8</text>
      </g>
    </g>
    <g transform="translate(156.96,7)">
      <g class="primitive">
        <text text-anchor="end" dy="0.35em">10</text>
      </g>
    </g>
  </g>
  <g font-size="3.88" font-family="'PT Sans','Helvetica Neue','Helvetica',sans-serif" fill="#564A55" stroke="#000000" stroke-opacity="0.000" id="img-3a45db3e-15">
    <g transform="translate(148.81,25.86)">
      <g class="primitive">
        <text text-anchor="middle" dy="0.35em" transform="rotate(-90,0, 2)">Consumption per capita, c</text>
      </g>
    </g>
  </g>
</g>
<g class="plotroot xscalable yscalable" id="img-3a45db3e-16">
  <g font-size="3.88" font-family="'PT Sans','Helvetica Neue','Helvetica',sans-serif" fill="#564A55" stroke="#000000" stroke-opacity="0.000" id="img-3a45db3e-17">
    <g transform="translate(111.48,58.39)">
      <g class="primitive">
        <text text-anchor="middle" dy="0.6em">Time</text>
      </g>
    </g>
  </g>
  <g class="guide xlabels" font-size="2.82" font-family="'PT Sans Caption','Helvetica Neue','Helvetica',sans-serif" fill="#6C606B" id="img-3a45db3e-18">
    <g transform="translate(89.96,51.72)">
      <g class="primitive">
        <text text-anchor="middle" dy="0.6em">0</text>
      </g>
    </g>
    <g transform="translate(100.72,51.72)">
      <g class="primitive">
        <text text-anchor="middle" dy="0.6em">50</text>
      </g>
    </g>
    <g transform="translate(111.48,51.72)">
      <g class="primitive">
        <text text-anchor="middle" dy="0.6em">100</text>
      </g>
    </g>
    <g transform="translate(122.24,51.72)">
      <g class="primitive">
        <text text-anchor="middle" dy="0.6em">150</text>
      </g>
    </g>
    <g transform="translate(133,51.72)">
      <g class="primitive">
        <text text-anchor="middle" dy="0.6em">200</text>
      </g>
    </g>
  </g>
  <g clip-path="url(#img-3a45db3e-19)">
    <g id="img-3a45db3e-20">
      <g pointer-events="visible" fill-opacity="0" fill="#000000" fill-opacity="0.000" stroke="#000000" stroke-opacity="0.000" class="guide background" id="img-3a45db3e-21">
        <g transform="translate(111.48,27.86)">
          <path d="M-23.52,-22.86 L 23.52 -22.86 23.52 22.86 -23.52 22.86 z" class="primitive"/>
        </g>
      </g>
      <g class="guide ygridlines xfixed" stroke-dasharray="0.5,0.5" stroke-width="0.2" stroke="#D0D0E0" id="img-3a45db3e-22">
        <g transform="translate(111.48,48.72)">
          <path fill="none" d="M-23.52,0 L 23.52 0" class="primitive"/>
        </g>
        <g transform="translate(111.48,34.81)">
          <path fill="none" d="M-23.52,0 L 23.52 0" class="primitive"/>
        </g>
        <g transform="translate(111.48,20.9)">
          <path fill="none" d="M-23.52,0 L 23.52 0" class="primitive"/>
        </g>
        <g transform="translate(111.48,7)">
          <path fill="none" d="M-23.52,0 L 23.52 0" class="primitive"/>
        </g>
      </g>
      <g class="guide xgridlines yfixed" stroke-dasharray="0.5,0.5" stroke-width="0.2" stroke="#D0D0E0" id="img-3a45db3e-23">
        <g transform="translate(89.96,27.86)">
          <path fill="none" d="M0,-22.86 L 0 22.86" class="primitive"/>
        </g>
        <g transform="translate(100.72,27.86)">
          <path fill="none" d="M0,-22.86 L 0 22.86" class="primitive"/>
        </g>
        <g transform="translate(111.48,27.86)">
          <path fill="none" d="M0,-22.86 L 0 22.86" class="primitive"/>
        </g>
        <g transform="translate(122.24,27.86)">
          <path fill="none" d="M0,-22.86 L 0 22.86" class="primitive"/>
        </g>
        <g transform="translate(133,27.86)">
          <path fill="none" d="M0,-22.86 L 0 22.86" class="primitive"/>
        </g>
      </g>
      <g class="plotpanel" id="img-3a45db3e-24">
        <metadata>
          <boundingbox value="87.95833333333333mm 5.0mm 47.04166666666667mm 45.715mm"/>
          <unitbox value="-9.293320425943852 15.719165767709457 218.58664085188772 -16.438331535418914"/>
        </metadata>
        <g stroke-width="0.3" fill="#000000" fill-opacity="0.000" class="geometry" id="img-3a45db3e-25">
          <g class="color_RGB{N0f8}(0.0,0.0,0.0)" stroke-dasharray="2,1" stroke="#000000" id="img-3a45db3e-26">
            <g transform="translate(98.57,43.15)">
              <path fill="none" d="M0,5.56 L 0 -5.56" class="primitive"/>
            </g>
          </g>
        </g>
        <g stroke-width="0.3" fill="#000000" fill-opacity="0.000" class="geometry" id="img-3a45db3e-27">
          <g class="color_RGB{N0f8}(0.0,0.0,0.0)" stroke-dasharray="none" stroke="#000000" id="img-3a45db3e-28">
            <g transform="translate(111.59,22.01)">
              <path fill="none" d="M-21.41,15.58 L -21.2 15.58 -20.98 15.58 -20.77 15.58 -20.55 15.58 -20.34 15.58 -20.12 15.58 -19.91 15.58 -19.69 15.58 -19.48 15.58 -19.26 15.58 -19.05 15.58 -18.83 15.58 -18.62 15.58 -18.4 15.58 -18.19 15.58 -17.97 15.58 -17.75 15.58 -17.54 15.58 -17.32 15.58 -17.11 15.58 -16.89 15.58 -16.68 15.58 -16.46 15.58 -16.25 15.58 -16.03 15.58 -15.82 15.58 -15.6 15.58 -15.39 15.58 -15.17 15.58 -14.96 15.58 -14.74 15.58 -14.53 15.58 -14.31 15.58 -14.1 15.58 -13.88 15.58 -13.67 15.58 -13.45 15.58 -13.24 15.58 -13.02 15.58 -12.8 14.55 -12.59 13.56 -12.37 12.61 -12.16 11.71 -11.94 10.84 -11.73 10.01 -11.51 9.22 -11.3 8.47 -11.08 7.74 -10.87 7.06 -10.65 6.4 -10.44 5.78 -10.22 5.18 -10.01 4.61 -9.79 4.07 -9.58 3.56 -9.36 3.07 -9.15 2.6 -8.93 2.15 -8.72 1.73 -8.5 1.32 -8.29 0.94 -8.07 0.57 -7.86 0.22 -7.64 -0.11 -7.42 -0.42 -7.21 -0.73 -6.99 -1.01 -6.78 -1.29 -6.56 -1.55 -6.35 -1.79 -6.13 -2.03 -5.92 -2.25 -5.7 -2.47 -5.49 -2.67 -5.27 -2.86 -5.06 -3.05 -4.84 -3.22 -4.63 -3.39 -4.41 -3.55 -4.2 -3.7 -3.98 -3.84 -3.77 -3.98 -3.55 -4.11 -3.34 -4.23 -3.12 -4.35 -2.91 -4.46 -2.69 -4.57 -2.47 -4.67 -2.26 -4.77 -2.04 -4.86 -1.83 -4.95 -1.61 -5.03 -1.4 -5.11 -1.18 -5.19 -0.97 -5.26 -0.75 -5.33 -0.54 -5.39 -0.32 -5.45 -0.11 -5.51 0.11 -5.57 0.32 -5.62 0.54 -5.67 0.75 -5.72 0.97 -5.77 1.18 -5.81 1.4 -5.85 1.61 -5.89 1.83 -5.93 2.04 -5.96 2.26 -6 2.47 -6.03 2.69 -6.06 2.91 -6.09 3.12 -6.12 3.34 -6.15 3.55 -6.17 3.77 -6.19 3.98 -6.22 4.2 -6.24 4.41 -6.26 4.63 -6.28 4.84 -6.3 5.06 -6.32 5.27 -6.33 5.49 -6.35 5.7 -6.36 5.92 -6.38 6.13 -6.39 6.35 -6.41 6.56 -6.42 6.78 -6.43 6.99 -6.44 7.21 -6.45 7.42 -6.46 7.64 -6.47 7.86 -6.48 8.07 -6.49 8.29 -6.5 8.5 -6.51 8.72 -6.52 8.93 -6.52 9.15 -6.53 9.36 -6.54 9.58 -6.54 9.79 -6.55 10.01 -6.55 10.22 -6.56 10.44 -6.57 10.65 -6.57 10.87 -6.57 11.08 -6.58 11.3 -6.58 11.51 -6.59 11.73 -6.59 11.94 -6.59 12.16 -6.6 12.37 -6.6 12.59 -6.6 12.8 -6.61 13.02 -6.61 13.24 -6.61 13.45 -6.62 13.67 -6.62 13.88 -6.62 14.1 -6.62 14.31 -6.62 14.53 -6.63 14.74 -6.63 14.96 -6.63 15.17 -6.63 15.39 -6.63 15.6 -6.64 15.82 -6.64 16.03 -6.64 16.25 -6.64 16.46 -6.64 16.68 -6.64 16.89 -6.64 17.11 -6.64 17.32 -6.65 17.54 -6.65 17.75 -6.65 17.97 -6.65 18.19 -6.65 18.4 -6.65 18.62 -6.65 18.83 -6.65 19.05 -6.65 19.26 -6.65 19.48 -6.65 19.69 -6.65 19.91 -6.65 20.12 -6.66 20.34 -6.66 20.55 -6.66 20.77 -6.66 20.98 -6.66 21.2 -6.66 21.41 -6.66" class="primitive"/>
            </g>
          </g>
        </g>
      </g>
    </g>
  </g>
  <g class="guide ylabels" font-size="2.82" font-family="'PT Sans Caption','Helvetica Neue','Helvetica',sans-serif" fill="#6C606B" id="img-3a45db3e-29">
    <g transform="translate(86.96,48.72)">
      <g class="primitive">
        <text text-anchor="end" dy="0.35em">0</text>
      </g>
    </g>
    <g transform="translate(86.96,34.81)">
      <g class="primitive">
        <text text-anchor="end" dy="0.35em">5</text>
      </g>
    </g>
    <g transform="translate(86.96,20.9)">
      <g class="primitive">
        <text text-anchor="end" dy="0.35em">10</text>
      </g>
    </g>
    <g transform="translate(86.96,7)">
      <g class="primitive">
        <text text-anchor="end" dy="0.35em">15</text>
      </g>
    </g>
  </g>
  <g font-size="3.88" font-family="'PT Sans','Helvetica Neue','Helvetica',sans-serif" fill="#564A55" stroke="#000000" stroke-opacity="0.000" id="img-3a45db3e-30">
    <g transform="translate(78.81,25.86)">
      <g class="primitive">
        <text text-anchor="middle" dy="0.35em" transform="rotate(-90,0, 2)">Output per capita, y</text>
      </g>
    </g>
  </g>
</g>
<g class="plotroot xscalable yscalable" id="img-3a45db3e-31">
  <g font-size="3.88" font-family="'PT Sans','Helvetica Neue','Helvetica',sans-serif" fill="#564A55" stroke="#000000" stroke-opacity="0.000" id="img-3a45db3e-32">
    <g transform="translate(41.48,58.39)">
      <g class="primitive">
        <text text-anchor="middle" dy="0.6em">Time</text>
      </g>
    </g>
  </g>
  <g class="guide xlabels" font-size="2.82" font-family="'PT Sans Caption','Helvetica Neue','Helvetica',sans-serif" fill="#6C606B" id="img-3a45db3e-33">
    <g transform="translate(19.96,51.72)">
      <g class="primitive">
        <text text-anchor="middle" dy="0.6em">0</text>
      </g>
    </g>
    <g transform="translate(30.72,51.72)">
      <g class="primitive">
        <text text-anchor="middle" dy="0.6em">50</text>
      </g>
    </g>
    <g transform="translate(41.48,51.72)">
      <g class="primitive">
        <text text-anchor="middle" dy="0.6em">100</text>
      </g>
    </g>
    <g transform="translate(52.24,51.72)">
      <g class="primitive">
        <text text-anchor="middle" dy="0.6em">150</text>
      </g>
    </g>
    <g transform="translate(63,51.72)">
      <g class="primitive">
        <text text-anchor="middle" dy="0.6em">200</text>
      </g>
    </g>
  </g>
  <g clip-path="url(#img-3a45db3e-34)">
    <g id="img-3a45db3e-35">
      <g pointer-events="visible" fill-opacity="0" fill="#000000" fill-opacity="0.000" stroke="#000000" stroke-opacity="0.000" class="guide background" id="img-3a45db3e-36">
        <g transform="translate(41.48,27.86)">
          <path d="M-23.52,-22.86 L 23.52 -22.86 23.52 22.86 -23.52 22.86 z" class="primitive"/>
        </g>
      </g>
      <g class="guide ygridlines xfixed" stroke-dasharray="0.5,0.5" stroke-width="0.2" stroke="#D0D0E0" id="img-3a45db3e-37">
        <g transform="translate(41.48,48.72)">
          <path fill="none" d="M-23.52,0 L 23.52 0" class="primitive"/>
        </g>
        <g transform="translate(41.48,38.29)">
          <path fill="none" d="M-23.52,0 L 23.52 0" class="primitive"/>
        </g>
        <g transform="translate(41.48,27.86)">
          <path fill="none" d="M-23.52,0 L 23.52 0" class="primitive"/>
        </g>
        <g transform="translate(41.48,17.43)">
          <path fill="none" d="M-23.52,0 L 23.52 0" class="primitive"/>
        </g>
        <g transform="translate(41.48,7)">
          <path fill="none" d="M-23.52,0 L 23.52 0" class="primitive"/>
        </g>
      </g>
      <g class="guide xgridlines yfixed" stroke-dasharray="0.5,0.5" stroke-width="0.2" stroke="#D0D0E0" id="img-3a45db3e-38">
        <g transform="translate(19.96,27.86)">
          <path fill="none" d="M0,-22.86 L 0 22.86" class="primitive"/>
        </g>
        <g transform="translate(30.72,27.86)">
          <path fill="none" d="M0,-22.86 L 0 22.86" class="primitive"/>
        </g>
        <g transform="translate(41.48,27.86)">
          <path fill="none" d="M0,-22.86 L 0 22.86" class="primitive"/>
        </g>
        <g transform="translate(52.24,27.86)">
          <path fill="none" d="M0,-22.86 L 0 22.86" class="primitive"/>
        </g>
        <g transform="translate(63,27.86)">
          <path fill="none" d="M0,-22.86 L 0 22.86" class="primitive"/>
        </g>
      </g>
      <g class="plotpanel" id="img-3a45db3e-39">
        <metadata>
          <boundingbox value="17.95833333333333mm 5.0mm 47.04166666666667mm 45.715mm"/>
          <unitbox value="-9.293320425943852 41.91777538055855 218.58664085188772 -43.835550761117105"/>
        </metadata>
        <g stroke-width="0.3" fill="#000000" fill-opacity="0.000" class="geometry" id="img-3a45db3e-40">
          <g class="color_RGB{N0f8}(0.0,0.0,0.0)" stroke-dasharray="2,1" stroke="#000000" id="img-3a45db3e-41">
            <g transform="translate(28.57,46.63)">
              <path fill="none" d="M0,2.09 L 0 -2.09" class="primitive"/>
            </g>
          </g>
        </g>
        <g stroke-width="0.3" fill="#000000" fill-opacity="0.000" class="geometry" id="img-3a45db3e-42">
          <g class="color_RGB{N0f8}(0.0,0.0,0.0)" stroke-dasharray="none" stroke="#000000" id="img-3a45db3e-43">
            <g transform="translate(41.59,22.02)">
              <path fill="none" d="M-21.41,22.53 L -21.2 22.53 -20.98 22.53 -20.77 22.53 -20.55 22.53 -20.34 22.53 -20.12 22.53 -19.91 22.53 -19.69 22.53 -19.48 22.53 -19.26 22.53 -19.05 22.53 -18.83 22.53 -18.62 22.53 -18.4 22.53 -18.19 22.53 -17.97 22.53 -17.75 22.53 -17.54 22.53 -17.32 22.53 -17.11 22.53 -16.89 22.53 -16.68 22.53 -16.46 22.53 -16.25 22.53 -16.03 22.53 -15.82 22.53 -15.6 22.53 -15.39 22.53 -15.17 22.53 -14.96 22.53 -14.74 22.53 -14.53 22.53 -14.31 22.53 -14.1 22.53 -13.88 22.53 -13.67 22.53 -13.45 22.53 -13.24 22.53 -13.02 22.53 -12.8 21.72 -12.59 20.87 -12.37 20 -12.16 19.11 -11.94 18.21 -11.73 17.3 -11.51 16.39 -11.3 15.48 -11.08 14.58 -10.87 13.69 -10.65 12.8 -10.44 11.93 -10.22 11.08 -10.01 10.25 -9.79 9.43 -9.58 8.64 -9.36 7.86 -9.15 7.11 -8.93 6.38 -8.72 5.67 -8.5 4.98 -8.29 4.32 -8.07 3.68 -7.86 3.06 -7.64 2.46 -7.42 1.89 -7.21 1.33 -6.99 0.8 -6.78 0.29 -6.56 -0.21 -6.35 -0.68 -6.13 -1.14 -5.92 -1.57 -5.7 -1.99 -5.49 -2.39 -5.27 -2.77 -5.06 -3.14 -4.84 -3.5 -4.63 -3.83 -4.41 -4.16 -4.2 -4.46 -3.98 -4.76 -3.77 -5.04 -3.55 -5.31 -3.34 -5.57 -3.12 -5.82 -2.91 -6.05 -2.69 -6.28 -2.47 -6.49 -2.26 -6.7 -2.04 -6.89 -1.83 -7.08 -1.61 -7.26 -1.4 -7.43 -1.18 -7.59 -0.97 -7.74 -0.75 -7.89 -0.54 -8.03 -0.32 -8.16 -0.11 -8.29 0.11 -8.41 0.32 -8.53 0.54 -8.64 0.75 -8.74 0.97 -8.85 1.18 -8.94 1.4 -9.03 1.61 -9.12 1.83 -9.2 2.04 -9.28 2.26 -9.36 2.47 -9.43 2.69 -9.5 2.91 -9.56 3.12 -9.62 3.34 -9.68 3.55 -9.74 3.77 -9.79 3.98 -9.84 4.2 -9.89 4.41 -9.94 4.63 -9.98 4.84 -10.02 5.06 -10.06 5.27 -10.1 5.49 -10.13 5.7 -10.17 5.92 -10.2 6.13 -10.23 6.35 -10.26 6.56 -10.29 6.78 -10.32 6.99 -10.34 7.21 -10.37 7.42 -10.39 7.64 -10.41 7.86 -10.43 8.07 -10.45 8.29 -10.47 8.5 -10.49 8.72 -10.51 8.93 -10.52 9.15 -10.54 9.36 -10.55 9.58 -10.57 9.79 -10.58 10.01 -10.59 10.22 -10.61 10.44 -10.62 10.65 -10.63 10.87 -10.64 11.08 -10.65 11.3 -10.66 11.51 -10.67 11.73 -10.68 11.94 -10.68 12.16 -10.69 12.37 -10.7 12.59 -10.71 12.8 -10.71 13.02 -10.72 13.24 -10.73 13.45 -10.73 13.67 -10.74 13.88 -10.74 14.1 -10.75 14.31 -10.75 14.53 -10.76 14.74 -10.76 14.96 -10.76 15.17 -10.77 15.39 -10.77 15.6 -10.78 15.82 -10.78 16.03 -10.78 16.25 -10.78 16.46 -10.79 16.68 -10.79 16.89 -10.79 17.11 -10.8 17.32 -10.8 17.54 -10.8 17.75 -10.8 17.97 -10.8 18.19 -10.81 18.4 -10.81 18.62 -10.81 18.83 -10.81 19.05 -10.81 19.26 -10.81 19.48 -10.82 19.69 -10.82 19.91 -10.82 20.12 -10.82 20.34 -10.82 20.55 -10.82 20.77 -10.82 20.98 -10.82 21.2 -10.83 21.41 -10.83" class="primitive"/>
            </g>
          </g>
        </g>
      </g>
    </g>
  </g>
  <g class="guide ylabels" font-size="2.82" font-family="'PT Sans Caption','Helvetica Neue','Helvetica',sans-serif" fill="#6C606B" id="img-3a45db3e-44">
    <g transform="translate(16.96,48.72)">
      <g class="primitive">
        <text text-anchor="end" dy="0.35em">0</text>
      </g>
    </g>
    <g transform="translate(16.96,38.29)">
      <g class="primitive">
        <text text-anchor="end" dy="0.35em">10</text>
      </g>
    </g>
    <g transform="translate(16.96,27.86)">
      <g class="primitive">
        <text text-anchor="end" dy="0.35em">20</text>
      </g>
    </g>
    <g transform="translate(16.96,17.43)">
      <g class="primitive">
        <text text-anchor="end" dy="0.35em">30</text>
      </g>
    </g>
    <g transform="translate(16.96,7)">
      <g class="primitive">
        <text text-anchor="end" dy="0.35em">40</text>
      </g>
    </g>
  </g>
  <g font-size="3.88" font-family="'PT Sans','Helvetica Neue','Helvetica',sans-serif" fill="#564A55" stroke="#000000" stroke-opacity="0.000" id="img-3a45db3e-45">
    <g transform="translate(8.81,25.86)">
      <g class="primitive">
        <text text-anchor="middle" dy="0.35em" transform="rotate(-90,0, 2)">Capital per capita, k</text>
      </g>
    </g>
  </g>
</g>
<defs>
  <clipPath id="img-3a45db3e-4">
    <path d="M157.96,5 L 205 5 205 50.72 157.96 50.72" />
  </clipPath>
  <clipPath id="img-3a45db3e-19">
    <path d="M87.96,5 L 135 5 135 50.72 87.96 50.72" />
  </clipPath>
  <clipPath id="img-3a45db3e-34">
    <path d="M17.96,5 L 65 5 65 50.72 17.96 50.72" />
  </clipPath>
</defs>
</svg>
