<?xml version="1.0" encoding="UTF-8"?>
<svg xmlns="http://www.w3.org/2000/svg"
     xmlns:xlink="http://www.w3.org/1999/xlink"
     xmlns:gadfly="http://www.gadflyjl.org/ns"
     version="1.2"
     width="210mm" height="70mm" viewBox="0 0 210 70"
     stroke="none"
     fill="#000000"
     stroke-width="0.3"
     font-size="3.88"
>
<g class="plotroot xscalable yscalable" id="img-c23cc17c-1">
  <g font-size="3.88" font-family="'PT Sans','Helvetica Neue','Helvetica',sans-serif" fill="#564A55" stroke="#000000" stroke-opacity="0.000" id="img-c23cc17c-2">
    <g transform="translate(180.64,58.39)">
      <g class="primitive">
        <text text-anchor="middle" dy="0.6em">Time</text>
      </g>
    </g>
  </g>
  <g class="guide xlabels" font-size="2.82" font-family="'PT Sans Caption','Helvetica Neue','Helvetica',sans-serif" fill="#6C606B" id="img-c23cc17c-3">
    <g transform="translate(158.28,51.72)">
      <g class="primitive">
        <text text-anchor="middle" dy="0.6em">0</text>
      </g>
    </g>
    <g transform="translate(169.46,51.72)">
      <g class="primitive">
        <text text-anchor="middle" dy="0.6em">50</text>
      </g>
    </g>
    <g transform="translate(180.64,51.72)">
      <g class="primitive">
        <text text-anchor="middle" dy="0.6em">100</text>
      </g>
    </g>
    <g transform="translate(191.82,51.72)">
      <g class="primitive">
        <text text-anchor="middle" dy="0.6em">150</text>
      </g>
    </g>
    <g transform="translate(203,51.72)">
      <g class="primitive">
        <text text-anchor="middle" dy="0.6em">200</text>
      </g>
    </g>
  </g>
  <g clip-path="url(#img-c23cc17c-4)">
    <g id="img-c23cc17c-5">
      <g pointer-events="visible" fill-opacity="0" fill="#000000" fill-opacity="0.000" stroke="#000000" stroke-opacity="0.000" class="guide background" id="img-c23cc17c-6">
        <g transform="translate(180.64,27.86)">
          <path d="M-24.36,-22.86 L 24.36 -22.86 24.36 22.86 -24.36 22.86 z" class="primitive"/>
        </g>
      </g>
      <g class="guide ygridlines xfixed" stroke-dasharray="0.5,0.5" stroke-width="0.2" stroke="#D0D0E0" id="img-c23cc17c-7">
        <g transform="translate(180.64,48.72)">
          <path fill="none" d="M-24.36,0 L 24.36 0" class="primitive"/>
        </g>
        <g transform="translate(180.64,38.29)">
          <path fill="none" d="M-24.36,0 L 24.36 0" class="primitive"/>
        </g>
        <g transform="translate(180.64,27.86)">
          <path fill="none" d="M-24.36,0 L 24.36 0" class="primitive"/>
        </g>
        <g transform="translate(180.64,17.43)">
          <path fill="none" d="M-24.36,0 L 24.36 0" class="primitive"/>
        </g>
        <g transform="translate(180.64,7)">
          <path fill="none" d="M-24.36,0 L 24.36 0" class="primitive"/>
        </g>
      </g>
      <g class="guide xgridlines yfixed" stroke-dasharray="0.5,0.5" stroke-width="0.2" stroke="#D0D0E0" id="img-c23cc17c-8">
        <g transform="translate(158.28,27.86)">
          <path fill="none" d="M0,-22.86 L 0 22.86" class="primitive"/>
        </g>
        <g transform="translate(169.46,27.86)">
          <path fill="none" d="M0,-22.86 L 0 22.86" class="primitive"/>
        </g>
        <g transform="translate(180.64,27.86)">
          <path fill="none" d="M0,-22.86 L 0 22.86" class="primitive"/>
        </g>
        <g transform="translate(191.82,27.86)">
          <path fill="none" d="M0,-22.86 L 0 22.86" class="primitive"/>
        </g>
        <g transform="translate(203,27.86)">
          <path fill="none" d="M0,-22.86 L 0 22.86" class="primitive"/>
        </g>
      </g>
      <g class="plotpanel" id="img-c23cc17c-9">
        <metadata>
          <boundingbox value="156.285mm 5.0mm 48.715mm 45.715mm"/>
          <unitbox value="-8.945544000894554 4.191777538055855 217.89108800178911 -4.38355507611171"/>
        </metadata>
        <g stroke-width="0.3" fill="#000000" fill-opacity="0.000" class="geometry" id="img-c23cc17c-10">
          <g class="color_RGB{N0f8}(0.0,0.0,0.0)" stroke-dasharray="2,1" stroke="#000000" id="img-c23cc17c-11">
            <g transform="translate(167,29.94)">
              <path fill="none" d="M0,18.77 L 0 -18.77" class="primitive"/>
            </g>
          </g>
        </g>
        <g stroke-width="0.3" fill="#000000" fill-opacity="0.000" class="geometry" id="img-c23cc17c-12">
          <g class="color_RGB{N0f8}(0.0,0.0,0.0)" stroke-dasharray="none" stroke="#000000" id="img-c23cc17c-13">
            <g transform="translate(180.75,12.31)">
              <path fill="none" d="M-22.25,-1.14 L -22.02 -1.14 -21.8 -1.14 -21.57 -1.14 -21.35 -1.14 -21.13 -1.14 -20.9 -1.14 -20.68 -1.14 -20.46 -1.14 -20.23 -1.14 -20.01 -1.14 -19.79 -1.14 -19.56 -1.14 -19.34 -1.14 -19.12 -1.14 -18.89 -1.14 -18.67 -1.14 -18.44 -1.14 -18.22 -1.14 -18 -1.14 -17.77 -1.14 -17.55 -1.14 -17.33 -1.14 -17.1 -1.14 -16.88 -1.14 -16.66 -1.14 -16.43 -1.14 -16.21 -1.14 -15.99 -1.14 -15.76 -1.14 -15.54 -1.14 -15.31 -1.14 -15.09 -1.14 -14.87 -1.14 -14.64 -1.14 -14.42 -1.14 -14.2 -1.14 -13.97 -1.14 -13.75 -1.14 -13.53 9.86 -13.3 9.33 -13.08 8.83 -12.86 8.35 -12.63 7.89 -12.41 7.46 -12.18 7.04 -11.96 6.65 -11.74 6.27 -11.51 5.91 -11.29 5.57 -11.07 5.25 -10.84 4.94 -10.62 4.65 -10.4 4.37 -10.17 4.1 -9.95 3.85 -9.73 3.61 -9.5 3.38 -9.28 3.16 -9.05 2.95 -8.83 2.75 -8.61 2.57 -8.38 2.39 -8.16 2.22 -7.94 2.05 -7.71 1.9 -7.49 1.75 -7.27 1.61 -7.04 1.48 -6.82 1.35 -6.6 1.23 -6.37 1.12 -6.15 1.01 -5.92 0.9 -5.7 0.8 -5.48 0.71 -5.25 0.62 -5.03 0.54 -4.81 0.45 -4.58 0.38 -4.36 0.3 -4.14 0.23 -3.91 0.17 -3.69 0.1 -3.47 0.04 -3.24 -0.01 -3.02 -0.07 -2.79 -0.12 -2.57 -0.17 -2.35 -0.22 -2.12 -0.26 -1.9 -0.3 -1.68 -0.34 -1.45 -0.38 -1.23 -0.42 -1.01 -0.45 -0.78 -0.49 -0.56 -0.52 -0.34 -0.55 -0.11 -0.58 0.11 -0.6 0.34 -0.63 0.56 -0.65 0.78 -0.68 1.01 -0.7 1.23 -0.72 1.45 -0.74 1.68 -0.76 1.9 -0.78 2.12 -0.8 2.35 -0.81 2.57 -0.83 2.79 -0.84 3.02 -0.86 3.24 -0.87 3.47 -0.88 3.69 -0.9 3.91 -0.91 4.14 -0.92 4.36 -0.93 4.58 -0.94 4.81 -0.95 5.03 -0.96 5.25 -0.97 5.48 -0.98 5.7 -0.98 5.92 -0.99 6.15 -1 6.37 -1.01 6.6 -1.01 6.82 -1.02 7.04 -1.02 7.27 -1.03 7.49 -1.03 7.71 -1.04 7.94 -1.04 8.16 -1.05 8.38 -1.05 8.61 -1.06 8.83 -1.06 9.05 -1.06 9.28 -1.07 9.5 -1.07 9.73 -1.07 9.95 -1.08 10.17 -1.08 10.4 -1.08 10.62 -1.09 10.84 -1.09 11.07 -1.09 11.29 -1.09 11.51 -1.1 11.74 -1.1 11.96 -1.1 12.18 -1.1 12.41 -1.1 12.63 -1.1 12.86 -1.11 13.08 -1.11 13.3 -1.11 13.53 -1.11 13.75 -1.11 13.97 -1.11 14.2 -1.11 14.42 -1.12 14.64 -1.12 14.87 -1.12 15.09 -1.12 15.31 -1.12 15.54 -1.12 15.76 -1.12 15.99 -1.12 16.21 -1.12 16.43 -1.12 16.66 -1.12 16.88 -1.12 17.1 -1.13 17.33 -1.13 17.55 -1.13 17.77 -1.13 18 -1.13 18.22 -1.13 18.44 -1.13 18.67 -1.13 18.89 -1.13 19.12 -1.13 19.34 -1.13 19.56 -1.13 19.79 -1.13 20.01 -1.13 20.23 -1.13 20.46 -1.13 20.68 -1.13 20.9 -1.13 21.13 -1.13 21.35 -1.13 21.57 -1.13 21.8 -1.13 22.02 -1.13 22.25 -1.13" class="primitive"/>
            </g>
          </g>
        </g>
      </g>
    </g>
  </g>
  <g class="guide ylabels" font-size="2.82" font-family="'PT Sans Caption','Helvetica Neue','Helvetica',sans-serif" fill="#6C606B" id="img-c23cc17c-14">
    <g transform="translate(155.29,48.72)">
      <g class="primitive">
        <text text-anchor="end" dy="0.35em">0</text>
      </g>
    </g>
    <g transform="translate(155.29,38.29)">
      <g class="primitive">
        <text text-anchor="end" dy="0.35em">1</text>
      </g>
    </g>
    <g transform="translate(155.29,27.86)">
      <g class="primitive">
        <text text-anchor="end" dy="0.35em">2</text>
      </g>
    </g>
    <g transform="translate(155.29,17.43)">
      <g class="primitive">
        <text text-anchor="end" dy="0.35em">3</text>
      </g>
    </g>
    <g transform="translate(155.29,7)">
      <g class="primitive">
        <text text-anchor="end" dy="0.35em">4</text>
      </g>
    </g>
  </g>
  <g font-size="3.88" font-family="'PT Sans','Helvetica Neue','Helvetica',sans-serif" fill="#564A55" stroke="#000000" stroke-opacity="0.000" id="img-c23cc17c-15">
    <g transform="translate(148.81,25.86)">
      <g class="primitive">
        <text text-anchor="middle" dy="0.35em" transform="rotate(-90,0, 2)">Consumption per capita, c</text>
      </g>
    </g>
  </g>
</g>
<g class="plotroot xscalable yscalable" id="img-c23cc17c-16">
  <g font-size="3.88" font-family="'PT Sans','Helvetica Neue','Helvetica',sans-serif" fill="#564A55" stroke="#000000" stroke-opacity="0.000" id="img-c23cc17c-17">
    <g transform="translate(110.64,58.39)">
      <g class="primitive">
        <text text-anchor="middle" dy="0.6em">Time</text>
      </g>
    </g>
  </g>
  <g class="guide xlabels" font-size="2.82" font-family="'PT Sans Caption','Helvetica Neue','Helvetica',sans-serif" fill="#6C606B" id="img-c23cc17c-18">
    <g transform="translate(88.28,51.72)">
      <g class="primitive">
        <text text-anchor="middle" dy="0.6em">0</text>
      </g>
    </g>
    <g transform="translate(99.46,51.72)">
      <g class="primitive">
        <text text-anchor="middle" dy="0.6em">50</text>
      </g>
    </g>
    <g transform="translate(110.64,51.72)">
      <g class="primitive">
        <text text-anchor="middle" dy="0.6em">100</text>
      </g>
    </g>
    <g transform="translate(121.82,51.72)">
      <g class="primitive">
        <text text-anchor="middle" dy="0.6em">150</text>
      </g>
    </g>
    <g transform="translate(133,51.72)">
      <g class="primitive">
        <text text-anchor="middle" dy="0.6em">200</text>
      </g>
    </g>
  </g>
  <g clip-path="url(#img-c23cc17c-19)">
    <g id="img-c23cc17c-20">
      <g pointer-events="visible" fill-opacity="0" fill="#000000" fill-opacity="0.000" stroke="#000000" stroke-opacity="0.000" class="guide background" id="img-c23cc17c-21">
        <g transform="translate(110.64,27.86)">
          <path d="M-24.36,-22.86 L 24.36 -22.86 24.36 22.86 -24.36 22.86 z" class="primitive"/>
        </g>
      </g>
      <g class="guide ygridlines xfixed" stroke-dasharray="0.5,0.5" stroke-width="0.2" stroke="#D0D0E0" id="img-c23cc17c-22">
        <g transform="translate(110.64,48.72)">
          <path fill="none" d="M-24.36,0 L 24.36 0" class="primitive"/>
        </g>
        <g transform="translate(110.64,38.29)">
          <path fill="none" d="M-24.36,0 L 24.36 0" class="primitive"/>
        </g>
        <g transform="translate(110.64,27.86)">
          <path fill="none" d="M-24.36,0 L 24.36 0" class="primitive"/>
        </g>
        <g transform="translate(110.64,17.43)">
          <path fill="none" d="M-24.36,0 L 24.36 0" class="primitive"/>
        </g>
        <g transform="translate(110.64,7)">
          <path fill="none" d="M-24.36,0 L 24.36 0" class="primitive"/>
        </g>
      </g>
      <g class="guide xgridlines yfixed" stroke-dasharray="0.5,0.5" stroke-width="0.2" stroke="#D0D0E0" id="img-c23cc17c-23">
        <g transform="translate(88.28,27.86)">
          <path fill="none" d="M0,-22.86 L 0 22.86" class="primitive"/>
        </g>
        <g transform="translate(99.46,27.86)">
          <path fill="none" d="M0,-22.86 L 0 22.86" class="primitive"/>
        </g>
        <g transform="translate(110.64,27.86)">
          <path fill="none" d="M0,-22.86 L 0 22.86" class="primitive"/>
        </g>
        <g transform="translate(121.82,27.86)">
          <path fill="none" d="M0,-22.86 L 0 22.86" class="primitive"/>
        </g>
        <g transform="translate(133,27.86)">
          <path fill="none" d="M0,-22.86 L 0 22.86" class="primitive"/>
        </g>
      </g>
      <g class="plotpanel" id="img-c23cc17c-24">
        <metadata>
          <boundingbox value="86.285mm 5.0mm 48.715mm 45.715mm"/>
          <unitbox value="-8.945544000894554 4.191777538055855 217.89108800178911 -4.38355507611171"/>
        </metadata>
        <g stroke-width="0.3" fill="#000000" fill-opacity="0.000" class="geometry" id="img-c23cc17c-25">
          <g class="color_RGB{N0f8}(0.0,0.0,0.0)" stroke-dasharray="2,1" stroke="#000000" id="img-c23cc17c-26">
            <g transform="translate(97,27.86)">
              <path fill="none" d="M0,20.86 L 0 -20.86" class="primitive"/>
            </g>
          </g>
        </g>
        <g stroke-width="0.3" fill="#000000" fill-opacity="0.000" class="geometry" id="img-c23cc17c-27">
          <g class="color_RGB{N0f8}(0.0,0.0,0.0)" stroke-dasharray="none" stroke="#000000" id="img-c23cc17c-28">
            <g transform="translate(110.75,8.26)">
              <path fill="none" d="M-22.25,-1.26 L -22.02 -1.26 -21.8 -1.26 -21.57 -1.26 -21.35 -1.26 -21.13 -1.26 -20.9 -1.26 -20.68 -1.26 -20.46 -1.26 -20.23 -1.26 -20.01 -1.26 -19.79 -1.26 -19.56 -1.26 -19.34 -1.26 -19.12 -1.26 -18.89 -1.26 -18.67 -1.26 -18.44 -1.26 -18.22 -1.26 -18 -1.26 -17.77 -1.26 -17.55 -1.26 -17.33 -1.26 -17.1 -1.26 -16.88 -1.26 -16.66 -1.26 -16.43 -1.26 -16.21 -1.26 -15.99 -1.26 -15.76 -1.26 -15.54 -1.26 -15.31 -1.26 -15.09 -1.26 -14.87 -1.26 -14.64 -1.26 -14.42 -1.26 -14.2 -1.26 -13.97 -1.26 -13.75 -1.26 -13.53 10.95 -13.3 10.37 -13.08 9.81 -12.86 9.27 -12.63 8.77 -12.41 8.28 -12.18 7.82 -11.96 7.39 -11.74 6.97 -11.51 6.57 -11.29 6.19 -11.07 5.83 -10.84 5.49 -10.62 5.16 -10.4 4.85 -10.17 4.56 -9.95 4.28 -9.73 4.01 -9.5 3.75 -9.28 3.51 -9.05 3.28 -8.83 3.06 -8.61 2.85 -8.38 2.65 -8.16 2.46 -7.94 2.28 -7.71 2.11 -7.49 1.95 -7.27 1.79 -7.04 1.64 -6.82 1.5 -6.6 1.37 -6.37 1.24 -6.15 1.12 -5.92 1 -5.7 0.89 -5.48 0.79 -5.25 0.69 -5.03 0.59 -4.81 0.5 -4.58 0.42 -4.36 0.34 -4.14 0.26 -3.91 0.19 -3.69 0.12 -3.47 0.05 -3.24 -0.02 -3.02 -0.08 -2.79 -0.13 -2.57 -0.19 -2.35 -0.24 -2.12 -0.29 -1.9 -0.34 -1.68 -0.38 -1.45 -0.43 -1.23 -0.47 -1.01 -0.5 -0.78 -0.54 -0.56 -0.58 -0.34 -0.61 -0.11 -0.64 0.11 -0.67 0.34 -0.7 0.56 -0.73 0.78 -0.75 1.01 -0.78 1.23 -0.8 1.45 -0.82 1.68 -0.85 1.9 -0.87 2.12 -0.89 2.35 -0.9 2.57 -0.92 2.79 -0.94 3.02 -0.95 3.24 -0.97 3.47 -0.98 3.69 -1 3.91 -1.01 4.14 -1.02 4.36 -1.03 4.58 -1.04 4.81 -1.06 5.03 -1.07 5.25 -1.08 5.48 -1.08 5.7 -1.09 5.92 -1.1 6.15 -1.11 6.37 -1.12 6.6 -1.12 6.82 -1.13 7.04 -1.14 7.27 -1.14 7.49 -1.15 7.71 -1.15 7.94 -1.16 8.16 -1.17 8.38 -1.17 8.61 -1.17 8.83 -1.18 9.05 -1.18 9.28 -1.19 9.5 -1.19 9.73 -1.19 9.95 -1.2 10.17 -1.2 10.4 -1.2 10.62 -1.21 10.84 -1.21 11.07 -1.21 11.29 -1.21 11.51 -1.22 11.74 -1.22 11.96 -1.22 12.18 -1.22 12.41 -1.23 12.63 -1.23 12.86 -1.23 13.08 -1.23 13.3 -1.23 13.53 -1.23 13.75 -1.24 13.97 -1.24 14.2 -1.24 14.42 -1.24 14.64 -1.24 14.87 -1.24 15.09 -1.24 15.31 -1.24 15.54 -1.24 15.76 -1.25 15.99 -1.25 16.21 -1.25 16.43 -1.25 16.66 -1.25 16.88 -1.25 17.1 -1.25 17.33 -1.25 17.55 -1.25 17.77 -1.25 18 -1.25 18.22 -1.25 18.44 -1.25 18.67 -1.25 18.89 -1.25 19.12 -1.26 19.34 -1.26 19.56 -1.26 19.79 -1.26 20.01 -1.26 20.23 -1.26 20.46 -1.26 20.68 -1.26 20.9 -1.26 21.13 -1.26 21.35 -1.26 21.57 -1.26 21.8 -1.26 22.02 -1.26 22.25 -1.26" class="primitive"/>
            </g>
          </g>
        </g>
      </g>
    </g>
  </g>
  <g class="guide ylabels" font-size="2.82" font-family="'PT Sans Caption','Helvetica Neue','Helvetica',sans-serif" fill="#6C606B" id="img-c23cc17c-29">
    <g transform="translate(85.28,48.72)">
      <g class="primitive">
        <text text-anchor="end" dy="0.35em">0</text>
      </g>
    </g>
    <g transform="translate(85.28,38.29)">
      <g class="primitive">
        <text text-anchor="end" dy="0.35em">1</text>
      </g>
    </g>
    <g transform="translate(85.28,27.86)">
      <g class="primitive">
        <text text-anchor="end" dy="0.35em">2</text>
      </g>
    </g>
    <g transform="translate(85.28,17.43)">
      <g class="primitive">
        <text text-anchor="end" dy="0.35em">3</text>
      </g>
    </g>
    <g transform="translate(85.28,7)">
      <g class="primitive">
        <text text-anchor="end" dy="0.35em">4</text>
      </g>
    </g>
  </g>
  <g font-size="3.88" font-family="'PT Sans','Helvetica Neue','Helvetica',sans-serif" fill="#564A55" stroke="#000000" stroke-opacity="0.000" id="img-c23cc17c-30">
    <g transform="translate(78.81,25.86)">
      <g class="primitive">
        <text text-anchor="middle" dy="0.35em" transform="rotate(-90,0, 2)">Output per capita, y</text>
      </g>
    </g>
  </g>
</g>
<g class="plotroot xscalable yscalable" id="img-c23cc17c-31">
  <g font-size="3.88" font-family="'PT Sans','Helvetica Neue','Helvetica',sans-serif" fill="#564A55" stroke="#000000" stroke-opacity="0.000" id="img-c23cc17c-32">
    <g transform="translate(40.64,58.39)">
      <g class="primitive">
        <text text-anchor="middle" dy="0.6em">Time</text>
      </g>
    </g>
  </g>
  <g class="guide xlabels" font-size="2.82" font-family="'PT Sans Caption','Helvetica Neue','Helvetica',sans-serif" fill="#6C606B" id="img-c23cc17c-33">
    <g transform="translate(18.28,51.72)">
      <g class="primitive">
        <text text-anchor="middle" dy="0.6em">0</text>
      </g>
    </g>
    <g transform="translate(29.46,51.72)">
      <g class="primitive">
        <text text-anchor="middle" dy="0.6em">50</text>
      </g>
    </g>
    <g transform="translate(40.64,51.72)">
      <g class="primitive">
        <text text-anchor="middle" dy="0.6em">100</text>
      </g>
    </g>
    <g transform="translate(51.82,51.72)">
      <g class="primitive">
        <text text-anchor="middle" dy="0.6em">150</text>
      </g>
    </g>
    <g transform="translate(63,51.72)">
      <g class="primitive">
        <text text-anchor="middle" dy="0.6em">200</text>
      </g>
    </g>
  </g>
  <g clip-path="url(#img-c23cc17c-34)">
    <g id="img-c23cc17c-35">
      <g pointer-events="visible" fill-opacity="0" fill="#000000" fill-opacity="0.000" stroke="#000000" stroke-opacity="0.000" class="guide background" id="img-c23cc17c-36">
        <g transform="translate(40.64,27.86)">
          <path d="M-24.36,-22.86 L 24.36 -22.86 24.36 22.86 -24.36 22.86 z" class="primitive"/>
        </g>
      </g>
      <g class="guide ygridlines xfixed" stroke-dasharray="0.5,0.5" stroke-width="0.2" stroke="#D0D0E0" id="img-c23cc17c-37">
        <g transform="translate(40.64,48.72)">
          <path fill="none" d="M-24.36,0 L 24.36 0" class="primitive"/>
        </g>
        <g transform="translate(40.64,38.29)">
          <path fill="none" d="M-24.36,0 L 24.36 0" class="primitive"/>
        </g>
        <g transform="translate(40.64,27.86)">
          <path fill="none" d="M-24.36,0 L 24.36 0" class="primitive"/>
        </g>
        <g transform="translate(40.64,17.43)">
          <path fill="none" d="M-24.36,0 L 24.36 0" class="primitive"/>
        </g>
        <g transform="translate(40.64,7)">
          <path fill="none" d="M-24.36,0 L 24.36 0" class="primitive"/>
        </g>
      </g>
      <g class="guide xgridlines yfixed" stroke-dasharray="0.5,0.5" stroke-width="0.2" stroke="#D0D0E0" id="img-c23cc17c-38">
        <g transform="translate(18.28,27.86)">
          <path fill="none" d="M0,-22.86 L 0 22.86" class="primitive"/>
        </g>
        <g transform="translate(29.46,27.86)">
          <path fill="none" d="M0,-22.86 L 0 22.86" class="primitive"/>
        </g>
        <g transform="translate(40.64,27.86)">
          <path fill="none" d="M0,-22.86 L 0 22.86" class="primitive"/>
        </g>
        <g transform="translate(51.82,27.86)">
          <path fill="none" d="M0,-22.86 L 0 22.86" class="primitive"/>
        </g>
        <g transform="translate(63,27.86)">
          <path fill="none" d="M0,-22.86 L 0 22.86" class="primitive"/>
        </g>
      </g>
      <g class="plotpanel" id="img-c23cc17c-39">
        <metadata>
          <boundingbox value="16.284999999999997mm 5.0mm 48.715mm 45.715mm"/>
          <unitbox value="-8.945544000894554 4.191777538055855 217.89108800178911 -4.38355507611171"/>
        </metadata>
        <g stroke-width="0.3" fill="#000000" fill-opacity="0.000" class="geometry" id="img-c23cc17c-40">
          <g class="color_RGB{N0f8}(0.0,0.0,0.0)" stroke-dasharray="2,1" stroke="#000000" id="img-c23cc17c-41">
            <g transform="translate(27,27.86)">
              <path fill="none" d="M0,20.86 L 0 -20.86" class="primitive"/>
            </g>
          </g>
        </g>
        <g stroke-width="0.3" fill="#000000" fill-opacity="0.000" class="geometry" id="img-c23cc17c-42">
          <g class="color_RGB{N0f8}(0.0,0.0,0.0)" stroke-dasharray="none" stroke="#000000" id="img-c23cc17c-43">
            <g transform="translate(40.75,9.34)">
              <path fill="none" d="M-22.25,-2.34 L -22.02 -2.34 -21.8 -2.34 -21.57 -2.34 -21.35 -2.34 -21.13 -2.34 -20.9 -2.34 -20.68 -2.34 -20.46 -2.34 -20.23 -2.34 -20.01 -2.34 -19.79 -2.34 -19.56 -2.34 -19.34 -2.34 -19.12 -2.34 -18.89 -2.34 -18.67 -2.34 -18.44 -2.34 -18.22 -2.34 -18 -2.34 -17.77 -2.34 -17.55 -2.34 -17.33 -2.34 -17.1 -2.34 -16.88 -2.34 -16.66 -2.34 -16.43 -2.34 -16.21 -2.34 -15.99 -2.34 -15.76 -2.34 -15.54 -2.34 -15.31 -2.34 -15.09 -2.34 -14.87 -2.34 -14.64 -2.34 -14.42 -2.34 -14.2 -2.34 -13.97 -2.34 -13.75 -2.34 -13.53 18.52 -13.3 17.68 -13.08 16.87 -12.86 16.08 -12.63 15.31 -12.41 14.57 -12.18 13.86 -11.96 13.17 -11.74 12.5 -11.51 11.86 -11.29 11.24 -11.07 10.65 -10.84 10.08 -10.62 9.53 -10.4 9 -10.17 8.49 -9.95 8.01 -9.73 7.54 -9.5 7.09 -9.28 6.66 -9.05 6.25 -8.83 5.86 -8.61 5.48 -8.38 5.12 -8.16 4.78 -7.94 4.45 -7.71 4.14 -7.49 3.83 -7.27 3.55 -7.04 3.27 -6.82 3.01 -6.6 2.76 -6.37 2.52 -6.15 2.29 -5.92 2.07 -5.7 1.87 -5.48 1.67 -5.25 1.48 -5.03 1.3 -4.81 1.12 -4.58 0.96 -4.36 0.8 -4.14 0.65 -3.91 0.51 -3.69 0.37 -3.47 0.25 -3.24 0.12 -3.02 0 -2.79 -0.11 -2.57 -0.21 -2.35 -0.32 -2.12 -0.41 -1.9 -0.51 -1.68 -0.59 -1.45 -0.68 -1.23 -0.76 -1.01 -0.83 -0.78 -0.91 -0.56 -0.97 -0.34 -1.04 -0.11 -1.1 0.11 -1.16 0.34 -1.22 0.56 -1.27 0.78 -1.32 1.01 -1.37 1.23 -1.42 1.45 -1.46 1.68 -1.51 1.9 -1.55 2.12 -1.58 2.35 -1.62 2.57 -1.66 2.79 -1.69 3.02 -1.72 3.24 -1.75 3.47 -1.78 3.69 -1.8 3.91 -1.83 4.14 -1.86 4.36 -1.88 4.58 -1.9 4.81 -1.92 5.03 -1.94 5.25 -1.96 5.48 -1.98 5.7 -2 5.92 -2.01 6.15 -2.03 6.37 -2.04 6.6 -2.06 6.82 -2.07 7.04 -2.08 7.27 -2.1 7.49 -2.11 7.71 -2.12 7.94 -2.13 8.16 -2.14 8.38 -2.15 8.61 -2.16 8.83 -2.17 9.05 -2.18 9.28 -2.18 9.5 -2.19 9.73 -2.2 9.95 -2.2 10.17 -2.21 10.4 -2.22 10.62 -2.22 10.84 -2.23 11.07 -2.23 11.29 -2.24 11.51 -2.24 11.74 -2.25 11.96 -2.25 12.18 -2.26 12.41 -2.26 12.63 -2.26 12.86 -2.27 13.08 -2.27 13.3 -2.27 13.53 -2.28 13.75 -2.28 13.97 -2.28 14.2 -2.29 14.42 -2.29 14.64 -2.29 14.87 -2.29 15.09 -2.3 15.31 -2.3 15.54 -2.3 15.76 -2.3 15.99 -2.3 16.21 -2.3 16.43 -2.31 16.66 -2.31 16.88 -2.31 17.1 -2.31 17.33 -2.31 17.55 -2.31 17.77 -2.31 18 -2.32 18.22 -2.32 18.44 -2.32 18.67 -2.32 18.89 -2.32 19.12 -2.32 19.34 -2.32 19.56 -2.32 19.79 -2.32 20.01 -2.32 20.23 -2.32 20.46 -2.32 20.68 -2.33 20.9 -2.33 21.13 -2.33 21.35 -2.33 21.57 -2.33 21.8 -2.33 22.02 -2.33 22.25 -2.33" class="primitive"/>
            </g>
          </g>
        </g>
      </g>
    </g>
  </g>
  <g class="guide ylabels" font-size="2.82" font-family="'PT Sans Caption','Helvetica Neue','Helvetica',sans-serif" fill="#6C606B" id="img-c23cc17c-44">
    <g transform="translate(15.28,48.72)">
      <g class="primitive">
        <text text-anchor="end" dy="0.35em">0</text>
      </g>
    </g>
    <g transform="translate(15.28,38.29)">
      <g class="primitive">
        <text text-anchor="end" dy="0.35em">1</text>
      </g>
    </g>
    <g transform="translate(15.28,27.86)">
      <g class="primitive">
        <text text-anchor="end" dy="0.35em">2</text>
      </g>
    </g>
    <g transform="translate(15.28,17.43)">
      <g class="primitive">
        <text text-anchor="end" dy="0.35em">3</text>
      </g>
    </g>
    <g transform="translate(15.28,7)">
      <g class="primitive">
        <text text-anchor="end" dy="0.35em">4</text>
      </g>
    </g>
  </g>
  <g font-size="3.88" font-family="'PT Sans','Helvetica Neue','Helvetica',sans-serif" fill="#564A55" stroke="#000000" stroke-opacity="0.000" id="img-c23cc17c-45">
    <g transform="translate(8.81,25.86)">
      <g class="primitive">
        <text text-anchor="middle" dy="0.35em" transform="rotate(-90,0, 2)">Capital per capita, k</text>
      </g>
    </g>
  </g>
</g>
<defs>
  <clipPath id="img-c23cc17c-4">
    <path d="M156.28,5 L 205 5 205 50.72 156.28 50.72" />
  </clipPath>
  <clipPath id="img-c23cc17c-19">
    <path d="M86.28,5 L 135 5 135 50.72 86.28 50.72" />
  </clipPath>
  <clipPath id="img-c23cc17c-34">
    <path d="M16.28,5 L 65 5 65 50.72 16.28 50.72" />
  </clipPath>
</defs>
</svg>
