<?xml version="1.0" encoding="UTF-8"?>
<svg xmlns="http://www.w3.org/2000/svg"
     xmlns:xlink="http://www.w3.org/1999/xlink"
     xmlns:gadfly="http://www.gadflyjl.org/ns"
     version="1.2"
     width="210mm" height="70mm" viewBox="0 0 210 70"
     stroke="none"
     fill="#000000"
     stroke-width="0.3"
     font-size="3.88"
>
<g class="plotroot xscalable yscalable" id="img-e074b313-1">
  <g font-size="3.88" font-family="'PT Sans','Helvetica Neue','Helvetica',sans-serif" fill="#564A55" stroke="#000000" stroke-opacity="0.000" id="img-e074b313-2">
    <g transform="translate(182.32,58.39)">
      <g class="primitive">
        <text text-anchor="middle" dy="0.6em">Time</text>
      </g>
    </g>
  </g>
  <g class="guide xlabels" font-size="2.82" font-family="'PT Sans Caption','Helvetica Neue','Helvetica',sans-serif" fill="#6C606B" id="img-e074b313-3">
    <g transform="translate(161.63,51.72)">
      <g class="primitive">
        <text text-anchor="middle" dy="0.6em">0</text>
      </g>
    </g>
    <g transform="translate(171.97,51.72)">
      <g class="primitive">
        <text text-anchor="middle" dy="0.6em">50</text>
      </g>
    </g>
    <g transform="translate(182.32,51.72)">
      <g class="primitive">
        <text text-anchor="middle" dy="0.6em">100</text>
      </g>
    </g>
    <g transform="translate(192.66,51.72)">
      <g class="primitive">
        <text text-anchor="middle" dy="0.6em">150</text>
      </g>
    </g>
    <g transform="translate(203,51.72)">
      <g class="primitive">
        <text text-anchor="middle" dy="0.6em">200</text>
      </g>
    </g>
  </g>
  <g clip-path="url(#img-e074b313-4)">
    <g id="img-e074b313-5">
      <g pointer-events="visible" fill-opacity="0" fill="#000000" fill-opacity="0.000" stroke="#000000" stroke-opacity="0.000" class="guide background" id="img-e074b313-6">
        <g transform="translate(182.32,27.86)">
          <path d="M-22.68,-22.86 L 22.68 -22.86 22.68 22.86 -22.68 22.86 z" class="primitive"/>
        </g>
      </g>
      <g class="guide ygridlines xfixed" stroke-dasharray="0.5,0.5" stroke-width="0.2" stroke="#D0D0E0" id="img-e074b313-7">
        <g transform="translate(182.32,48.72)">
          <path fill="none" d="M-22.68,0 L 22.68 0" class="primitive"/>
        </g>
        <g transform="translate(182.32,34.81)">
          <path fill="none" d="M-22.68,0 L 22.68 0" class="primitive"/>
        </g>
        <g transform="translate(182.32,20.91)">
          <path fill="none" d="M-22.68,0 L 22.68 0" class="primitive"/>
        </g>
        <g transform="translate(182.32,7)">
          <path fill="none" d="M-22.68,0 L 22.68 0" class="primitive"/>
        </g>
      </g>
      <g class="guide xgridlines yfixed" stroke-dasharray="0.5,0.5" stroke-width="0.2" stroke="#D0D0E0" id="img-e074b313-8">
        <g transform="translate(161.63,27.86)">
          <path fill="none" d="M0,-22.86 L 0 22.86" class="primitive"/>
        </g>
        <g transform="translate(171.97,27.86)">
          <path fill="none" d="M0,-22.86 L 0 22.86" class="primitive"/>
        </g>
        <g transform="translate(182.32,27.86)">
          <path fill="none" d="M0,-22.86 L 0 22.86" class="primitive"/>
        </g>
        <g transform="translate(192.66,27.86)">
          <path fill="none" d="M0,-22.86 L 0 22.86" class="primitive"/>
        </g>
        <g transform="translate(203,27.86)">
          <path fill="none" d="M0,-22.86 L 0 22.86" class="primitive"/>
        </g>
      </g>
      <g class="plotpanel" id="img-e074b313-9">
        <metadata>
          <boundingbox value="159.63166666666666mm 5.0mm 45.36833333333333mm 45.715mm"/>
          <unitbox value="-9.669231698964586 157.19165767709458 219.33846339792916 -164.38331535418914"/>
        </metadata>
        <g stroke-width="0.3" fill="#000000" fill-opacity="0.000" class="geometry" id="img-e074b313-10">
          <g class="color_RGB{N0f8}(0.0,0.0,0.0)" stroke-dasharray="2,1" stroke="#000000" id="img-e074b313-11">
            <g transform="translate(169.7,27.86)">
              <path fill="none" d="M0,20.86 L 0 -20.86" class="primitive"/>
            </g>
          </g>
        </g>
        <g stroke-width="0.3" fill="#000000" fill-opacity="0.000" class="geometry" id="img-e074b313-12">
          <g class="color_RGB{N0f8}(0.0,0.0,0.0)" stroke-dasharray="none" stroke="#000000" id="img-e074b313-13">
            <g transform="translate(182.42,8.25)">
              <path fill="none" d="M-20.58,-1.25 L -20.37 -1.25 -20.17 -1.25 -19.96 -1.25 -19.75 -1.25 -19.55 -1.25 -19.34 -1.25 -19.13 -1.25 -18.93 -1.25 -18.72 -1.25 -18.51 -1.25 -18.31 -1.25 -18.1 -1.25 -17.89 -1.25 -17.68 -1.25 -17.48 -1.25 -17.27 -1.25 -17.06 -1.25 -16.86 -1.25 -16.65 -1.25 -16.44 -1.25 -16.24 -1.25 -16.03 -1.25 -15.82 -1.25 -15.62 -1.25 -15.41 -1.25 -15.2 -1.25 -15 -1.25 -14.79 -1.25 -14.58 -1.25 -14.38 -1.25 -14.17 -1.25 -13.96 -1.25 -13.75 -1.25 -13.55 -1.25 -13.34 -1.25 -13.13 -1.25 -12.93 -1.25 -12.72 -1.25 -12.51 7.36 -12.31 7.04 -12.1 6.74 -11.89 6.46 -11.69 6.18 -11.48 5.91 -11.27 5.66 -11.07 5.41 -10.86 5.18 -10.65 4.95 -10.45 4.73 -10.24 4.52 -10.03 4.32 -9.82 4.13 -9.62 3.94 -9.41 3.76 -9.2 3.59 -9 3.42 -8.79 3.26 -8.58 3.11 -8.38 2.96 -8.17 2.81 -7.96 2.67 -7.76 2.54 -7.55 2.41 -7.34 2.29 -7.14 2.17 -6.93 2.05 -6.72 1.94 -6.52 1.83 -6.31 1.73 -6.1 1.63 -5.89 1.53 -5.69 1.44 -5.48 1.35 -5.27 1.26 -5.07 1.18 -4.86 1.1 -4.65 1.02 -4.45 0.94 -4.24 0.87 -4.03 0.8 -3.83 0.73 -3.62 0.66 -3.41 0.6 -3.21 0.54 -3 0.48 -2.79 0.42 -2.59 0.37 -2.38 0.31 -2.17 0.26 -1.96 0.21 -1.76 0.16 -1.55 0.12 -1.34 0.07 -1.14 0.03 -0.93 -0.01 -0.72 -0.05 -0.52 -0.09 -0.31 -0.13 -0.1 -0.17 0.1 -0.2 0.31 -0.24 0.52 -0.27 0.72 -0.3 0.93 -0.33 1.14 -0.36 1.34 -0.39 1.55 -0.42 1.76 -0.45 1.96 -0.48 2.17 -0.5 2.38 -0.52 2.59 -0.55 2.79 -0.57 3 -0.59 3.21 -0.62 3.41 -0.64 3.62 -0.66 3.83 -0.68 4.03 -0.69 4.24 -0.71 4.45 -0.73 4.65 -0.75 4.86 -0.76 5.07 -0.78 5.27 -0.79 5.48 -0.81 5.69 -0.82 5.89 -0.84 6.1 -0.85 6.31 -0.86 6.52 -0.88 6.72 -0.89 6.93 -0.9 7.14 -0.91 7.34 -0.92 7.55 -0.93 7.76 -0.94 7.96 -0.95 8.17 -0.96 8.38 -0.97 8.58 -0.98 8.79 -0.99 9 -1 9.2 -1.01 9.41 -1.01 9.62 -1.02 9.82 -1.03 10.03 -1.04 10.24 -1.04 10.45 -1.05 10.65 -1.06 10.86 -1.06 11.07 -1.07 11.27 -1.07 11.48 -1.08 11.69 -1.09 11.89 -1.09 12.1 -1.1 12.31 -1.1 12.51 -1.11 12.72 -1.11 12.93 -1.11 13.13 -1.12 13.34 -1.12 13.55 -1.13 13.75 -1.13 13.96 -1.14 14.17 -1.14 14.38 -1.14 14.58 -1.15 14.79 -1.15 15 -1.15 15.2 -1.16 15.41 -1.16 15.62 -1.16 15.82 -1.16 16.03 -1.17 16.24 -1.17 16.44 -1.17 16.65 -1.17 16.86 -1.18 17.06 -1.18 17.27 -1.18 17.48 -1.18 17.68 -1.19 17.89 -1.19 18.1 -1.19 18.31 -1.19 18.51 -1.19 18.72 -1.2 18.93 -1.2 19.13 -1.2 19.34 -1.2 19.55 -1.2 19.75 -1.2 19.96 -1.2 20.17 -1.21 20.37 -1.21 20.58 -1.21" class="primitive"/>
            </g>
          </g>
        </g>
      </g>
    </g>
  </g>
  <g class="guide ylabels" font-size="2.82" font-family="'PT Sans Caption','Helvetica Neue','Helvetica',sans-serif" fill="#6C606B" id="img-e074b313-14">
    <g transform="translate(158.63,48.72)">
      <g class="primitive">
        <text text-anchor="end" dy="0.35em">0</text>
      </g>
    </g>
    <g transform="translate(158.63,34.81)">
      <g class="primitive">
        <text text-anchor="end" dy="0.35em">50</text>
      </g>
    </g>
    <g transform="translate(158.63,20.91)">
      <g class="primitive">
        <text text-anchor="end" dy="0.35em">100</text>
      </g>
    </g>
    <g transform="translate(158.63,7)">
      <g class="primitive">
        <text text-anchor="end" dy="0.35em">150</text>
      </g>
    </g>
  </g>
  <g font-size="3.88" font-family="'PT Sans','Helvetica Neue','Helvetica',sans-serif" fill="#564A55" stroke="#000000" stroke-opacity="0.000" id="img-e074b313-15">
    <g transform="translate(148.81,25.86)">
      <g class="primitive">
        <text text-anchor="middle" dy="0.35em" transform="rotate(-90,0, 2)">Consumption per capita, c</text>
      </g>
    </g>
  </g>
</g>
<g class="plotroot xscalable yscalable" id="img-e074b313-16">
  <g font-size="3.88" font-family="'PT Sans','Helvetica Neue','Helvetica',sans-serif" fill="#564A55" stroke="#000000" stroke-opacity="0.000" id="img-e074b313-17">
    <g transform="translate(112.32,58.39)">
      <g class="primitive">
        <text text-anchor="middle" dy="0.6em">Time</text>
      </g>
    </g>
  </g>
  <g class="guide xlabels" font-size="2.82" font-family="'PT Sans Caption','Helvetica Neue','Helvetica',sans-serif" fill="#6C606B" id="img-e074b313-18">
    <g transform="translate(91.63,51.72)">
      <g class="primitive">
        <text text-anchor="middle" dy="0.6em">0</text>
      </g>
    </g>
    <g transform="translate(101.97,51.72)">
      <g class="primitive">
        <text text-anchor="middle" dy="0.6em">50</text>
      </g>
    </g>
    <g transform="translate(112.32,51.72)">
      <g class="primitive">
        <text text-anchor="middle" dy="0.6em">100</text>
      </g>
    </g>
    <g transform="translate(122.66,51.72)">
      <g class="primitive">
        <text text-anchor="middle" dy="0.6em">150</text>
      </g>
    </g>
    <g transform="translate(133,51.72)">
      <g class="primitive">
        <text text-anchor="middle" dy="0.6em">200</text>
      </g>
    </g>
  </g>
  <g clip-path="url(#img-e074b313-19)">
    <g id="img-e074b313-20">
      <g pointer-events="visible" fill-opacity="0" fill="#000000" fill-opacity="0.000" stroke="#000000" stroke-opacity="0.000" class="guide background" id="img-e074b313-21">
        <g transform="translate(112.32,27.86)">
          <path d="M-22.68,-22.86 L 22.68 -22.86 22.68 22.86 -22.68 22.86 z" class="primitive"/>
        </g>
      </g>
      <g class="guide ygridlines xfixed" stroke-dasharray="0.5,0.5" stroke-width="0.2" stroke="#D0D0E0" id="img-e074b313-22">
        <g transform="translate(112.32,48.72)">
          <path fill="none" d="M-22.68,0 L 22.68 0" class="primitive"/>
        </g>
        <g transform="translate(112.32,38.29)">
          <path fill="none" d="M-22.68,0 L 22.68 0" class="primitive"/>
        </g>
        <g transform="translate(112.32,27.86)">
          <path fill="none" d="M-22.68,0 L 22.68 0" class="primitive"/>
        </g>
        <g transform="translate(112.32,17.43)">
          <path fill="none" d="M-22.68,0 L 22.68 0" class="primitive"/>
        </g>
        <g transform="translate(112.32,7)">
          <path fill="none" d="M-22.68,0 L 22.68 0" class="primitive"/>
        </g>
      </g>
      <g class="guide xgridlines yfixed" stroke-dasharray="0.5,0.5" stroke-width="0.2" stroke="#D0D0E0" id="img-e074b313-23">
        <g transform="translate(91.63,27.86)">
          <path fill="none" d="M0,-22.86 L 0 22.86" class="primitive"/>
        </g>
        <g transform="translate(101.97,27.86)">
          <path fill="none" d="M0,-22.86 L 0 22.86" class="primitive"/>
        </g>
        <g transform="translate(112.32,27.86)">
          <path fill="none" d="M0,-22.86 L 0 22.86" class="primitive"/>
        </g>
        <g transform="translate(122.66,27.86)">
          <path fill="none" d="M0,-22.86 L 0 22.86" class="primitive"/>
        </g>
        <g transform="translate(133,27.86)">
          <path fill="none" d="M0,-22.86 L 0 22.86" class="primitive"/>
        </g>
      </g>
      <g class="plotpanel" id="img-e074b313-24">
        <metadata>
          <boundingbox value="89.63166666666666mm 5.0mm 45.36833333333333mm 45.715mm"/>
          <unitbox value="-9.669231698964586 209.58887690279275 219.33846339792916 -219.1777538055855"/>
        </metadata>
        <g stroke-width="0.3" fill="#000000" fill-opacity="0.000" class="geometry" id="img-e074b313-25">
          <g class="color_RGB{N0f8}(0.0,0.0,0.0)" stroke-dasharray="2,1" stroke="#000000" id="img-e074b313-26">
            <g transform="translate(99.7,27.86)">
              <path fill="none" d="M0,20.86 L 0 -20.86" class="primitive"/>
            </g>
          </g>
        </g>
        <g stroke-width="0.3" fill="#000000" fill-opacity="0.000" class="geometry" id="img-e074b313-27">
          <g class="color_RGB{N0f8}(0.0,0.0,0.0)" stroke-dasharray="none" stroke="#000000" id="img-e074b313-28">
            <g transform="translate(112.42,8.25)">
              <path fill="none" d="M-20.58,-1.25 L -20.37 -1.25 -20.17 -1.25 -19.96 -1.25 -19.75 -1.25 -19.55 -1.25 -19.34 -1.25 -19.13 -1.25 -18.93 -1.25 -18.72 -1.25 -18.51 -1.25 -18.31 -1.25 -18.1 -1.25 -17.89 -1.25 -17.68 -1.25 -17.48 -1.25 -17.27 -1.25 -17.06 -1.25 -16.86 -1.25 -16.65 -1.25 -16.44 -1.25 -16.24 -1.25 -16.03 -1.25 -15.82 -1.25 -15.62 -1.25 -15.41 -1.25 -15.2 -1.25 -15 -1.25 -14.79 -1.25 -14.58 -1.25 -14.38 -1.25 -14.17 -1.25 -13.96 -1.25 -13.75 -1.25 -13.55 -1.25 -13.34 -1.25 -13.13 -1.25 -12.93 -1.25 -12.72 -1.25 -12.51 7.36 -12.31 7.04 -12.1 6.74 -11.89 6.46 -11.69 6.18 -11.48 5.91 -11.27 5.66 -11.07 5.41 -10.86 5.18 -10.65 4.95 -10.45 4.73 -10.24 4.52 -10.03 4.32 -9.82 4.13 -9.62 3.94 -9.41 3.76 -9.2 3.59 -9 3.42 -8.79 3.26 -8.58 3.11 -8.38 2.96 -8.17 2.81 -7.96 2.67 -7.76 2.54 -7.55 2.41 -7.34 2.29 -7.14 2.17 -6.93 2.05 -6.72 1.94 -6.52 1.83 -6.31 1.73 -6.1 1.63 -5.89 1.53 -5.69 1.44 -5.48 1.35 -5.27 1.26 -5.07 1.18 -4.86 1.1 -4.65 1.02 -4.45 0.94 -4.24 0.87 -4.03 0.8 -3.83 0.73 -3.62 0.66 -3.41 0.6 -3.21 0.54 -3 0.48 -2.79 0.42 -2.59 0.37 -2.38 0.31 -2.17 0.26 -1.96 0.21 -1.76 0.16 -1.55 0.12 -1.34 0.07 -1.14 0.03 -0.93 -0.01 -0.72 -0.05 -0.52 -0.09 -0.31 -0.13 -0.1 -0.17 0.1 -0.2 0.31 -0.24 0.52 -0.27 0.72 -0.3 0.93 -0.33 1.14 -0.36 1.34 -0.39 1.55 -0.42 1.76 -0.45 1.96 -0.48 2.17 -0.5 2.38 -0.52 2.59 -0.55 2.79 -0.57 3 -0.59 3.21 -0.62 3.41 -0.64 3.62 -0.66 3.83 -0.68 4.03 -0.69 4.24 -0.71 4.45 -0.73 4.65 -0.75 4.86 -0.76 5.07 -0.78 5.27 -0.79 5.48 -0.81 5.69 -0.82 5.89 -0.84 6.1 -0.85 6.31 -0.86 6.52 -0.88 6.72 -0.89 6.93 -0.9 7.14 -0.91 7.34 -0.92 7.55 -0.93 7.76 -0.94 7.96 -0.95 8.17 -0.96 8.38 -0.97 8.58 -0.98 8.79 -0.99 9 -1 9.2 -1.01 9.41 -1.01 9.62 -1.02 9.82 -1.03 10.03 -1.04 10.24 -1.04 10.45 -1.05 10.65 -1.06 10.86 -1.06 11.07 -1.07 11.27 -1.07 11.48 -1.08 11.69 -1.09 11.89 -1.09 12.1 -1.1 12.31 -1.1 12.51 -1.11 12.72 -1.11 12.93 -1.11 13.13 -1.12 13.34 -1.12 13.55 -1.13 13.75 -1.13 13.96 -1.14 14.17 -1.14 14.38 -1.14 14.58 -1.15 14.79 -1.15 15 -1.15 15.2 -1.16 15.41 -1.16 15.62 -1.16 15.82 -1.16 16.03 -1.17 16.24 -1.17 16.44 -1.17 16.65 -1.17 16.86 -1.18 17.06 -1.18 17.27 -1.18 17.48 -1.18 17.68 -1.19 17.89 -1.19 18.1 -1.19 18.31 -1.19 18.51 -1.19 18.72 -1.2 18.93 -1.2 19.13 -1.2 19.34 -1.2 19.55 -1.2 19.75 -1.2 19.96 -1.2 20.17 -1.21 20.37 -1.21 20.58 -1.21" class="primitive"/>
            </g>
          </g>
        </g>
      </g>
    </g>
  </g>
  <g class="guide ylabels" font-size="2.82" font-family="'PT Sans Caption','Helvetica Neue','Helvetica',sans-serif" fill="#6C606B" id="img-e074b313-29">
    <g transform="translate(88.63,48.72)">
      <g class="primitive">
        <text text-anchor="end" dy="0.35em">0</text>
      </g>
    </g>
    <g transform="translate(88.63,38.29)">
      <g class="primitive">
        <text text-anchor="end" dy="0.35em">50</text>
      </g>
    </g>
    <g transform="translate(88.63,27.86)">
      <g class="primitive">
        <text text-anchor="end" dy="0.35em">100</text>
      </g>
    </g>
    <g transform="translate(88.63,17.43)">
      <g class="primitive">
        <text text-anchor="end" dy="0.35em">150</text>
      </g>
    </g>
    <g transform="translate(88.63,7)">
      <g class="primitive">
        <text text-anchor="end" dy="0.35em">200</text>
      </g>
    </g>
  </g>
  <g font-size="3.88" font-family="'PT Sans','Helvetica Neue','Helvetica',sans-serif" fill="#564A55" stroke="#000000" stroke-opacity="0.000" id="img-e074b313-30">
    <g transform="translate(78.81,25.86)">
      <g class="primitive">
        <text text-anchor="middle" dy="0.35em" transform="rotate(-90,0, 2)">Output per capita, y</text>
      </g>
    </g>
  </g>
</g>
<g class="plotroot xscalable yscalable" id="img-e074b313-31">
  <g font-size="3.88" font-family="'PT Sans','Helvetica Neue','Helvetica',sans-serif" fill="#564A55" stroke="#000000" stroke-opacity="0.000" id="img-e074b313-32">
    <g transform="translate(43.15,58.39)">
      <g class="primitive">
        <text text-anchor="middle" dy="0.6em">Time</text>
      </g>
    </g>
  </g>
  <g class="guide xlabels" font-size="2.82" font-family="'PT Sans Caption','Helvetica Neue','Helvetica',sans-serif" fill="#6C606B" id="img-e074b313-33">
    <g transform="translate(23.3,51.72)">
      <g class="primitive">
        <text text-anchor="middle" dy="0.6em">0</text>
      </g>
    </g>
    <g transform="translate(33.23,51.72)">
      <g class="primitive">
        <text text-anchor="middle" dy="0.6em">50</text>
      </g>
    </g>
    <g transform="translate(43.15,51.72)">
      <g class="primitive">
        <text text-anchor="middle" dy="0.6em">100</text>
      </g>
    </g>
    <g transform="translate(53.08,51.72)">
      <g class="primitive">
        <text text-anchor="middle" dy="0.6em">150</text>
      </g>
    </g>
    <g transform="translate(63,51.72)">
      <g class="primitive">
        <text text-anchor="middle" dy="0.6em">200</text>
      </g>
    </g>
  </g>
  <g clip-path="url(#img-e074b313-34)">
    <g id="img-e074b313-35">
      <g pointer-events="visible" fill-opacity="0" fill="#000000" fill-opacity="0.000" stroke="#000000" stroke-opacity="0.000" class="guide background" id="img-e074b313-36">
        <g transform="translate(43.15,27.86)">
          <path d="M-21.85,-22.86 L 21.85 -22.86 21.85 22.86 -21.85 22.86 z" class="primitive"/>
        </g>
      </g>
      <g class="guide ygridlines xfixed" stroke-dasharray="0.5,0.5" stroke-width="0.2" stroke="#D0D0E0" id="img-e074b313-37">
        <g transform="translate(43.15,48.72)">
          <path fill="none" d="M-21.85,0 L 21.85 0" class="primitive"/>
        </g>
        <g transform="translate(43.15,27.86)">
          <path fill="none" d="M-21.85,0 L 21.85 0" class="primitive"/>
        </g>
        <g transform="translate(43.15,7)">
          <path fill="none" d="M-21.85,0 L 21.85 0" class="primitive"/>
        </g>
      </g>
      <g class="guide xgridlines yfixed" stroke-dasharray="0.5,0.5" stroke-width="0.2" stroke="#D0D0E0" id="img-e074b313-38">
        <g transform="translate(23.3,27.86)">
          <path fill="none" d="M0,-22.86 L 0 22.86" class="primitive"/>
        </g>
        <g transform="translate(33.23,27.86)">
          <path fill="none" d="M0,-22.86 L 0 22.86" class="primitive"/>
        </g>
        <g transform="translate(43.15,27.86)">
          <path fill="none" d="M0,-22.86 L 0 22.86" class="primitive"/>
        </g>
        <g transform="translate(53.08,27.86)">
          <path fill="none" d="M0,-22.86 L 0 22.86" class="primitive"/>
        </g>
        <g transform="translate(63,27.86)">
          <path fill="none" d="M0,-22.86 L 0 22.86" class="primitive"/>
        </g>
      </g>
      <g class="plotpanel" id="img-e074b313-39">
        <metadata>
          <boundingbox value="21.305mm 5.0mm 43.695mm 45.715mm"/>
          <unitbox value="-10.07683587353571 1047.9443845139638 220.15367174707143 -1095.8887690279275"/>
        </metadata>
        <g stroke-width="0.3" fill="#000000" fill-opacity="0.000" class="geometry" id="img-e074b313-40">
          <g class="color_RGB{N0f8}(0.0,0.0,0.0)" stroke-dasharray="2,1" stroke="#000000" id="img-e074b313-41">
            <g transform="translate(31.05,27.86)">
              <path fill="none" d="M0,20.86 L 0 -20.86" class="primitive"/>
            </g>
          </g>
        </g>
        <g stroke-width="0.3" fill="#000000" fill-opacity="0.000" class="geometry" id="img-e074b313-42">
          <g class="color_RGB{N0f8}(0.0,0.0,0.0)" stroke-dasharray="none" stroke="#000000" id="img-e074b313-43">
            <g transform="translate(43.25,10.37)">
              <path fill="none" d="M-19.75,-3.37 L -19.55 -3.37 -19.35 -3.37 -19.15 -3.37 -18.95 -3.37 -18.76 -3.37 -18.56 -3.37 -18.36 -3.37 -18.16 -3.37 -17.96 -3.37 -17.76 -3.37 -17.57 -3.37 -17.37 -3.37 -17.17 -3.37 -16.97 -3.37 -16.77 -3.37 -16.57 -3.37 -16.37 -3.37 -16.18 -3.37 -15.98 -3.37 -15.78 -3.37 -15.58 -3.37 -15.38 -3.37 -15.18 -3.37 -14.98 -3.37 -14.79 -3.37 -14.59 -3.37 -14.39 -3.37 -14.19 -3.37 -13.99 -3.37 -13.79 -3.37 -13.6 -3.37 -13.4 -3.37 -13.2 -3.37 -13 -3.37 -12.8 -3.37 -12.6 -3.37 -12.4 -3.37 -12.21 -3.37 -12.01 17.48 -11.81 16.89 -11.61 16.3 -11.41 15.73 -11.21 15.18 -11.02 14.63 -10.82 14.1 -10.62 13.59 -10.42 13.09 -10.22 12.6 -10.02 12.12 -9.82 11.66 -9.63 11.2 -9.43 10.76 -9.23 10.34 -9.03 9.92 -8.83 9.52 -8.63 9.12 -8.44 8.74 -8.24 8.37 -8.04 8.01 -7.84 7.66 -7.64 7.32 -7.44 6.99 -7.24 6.67 -7.05 6.36 -6.85 6.06 -6.65 5.76 -6.45 5.48 -6.25 5.2 -6.05 4.93 -5.86 4.67 -5.66 4.42 -5.46 4.18 -5.26 3.94 -5.06 3.71 -4.86 3.49 -4.66 3.27 -4.47 3.06 -4.27 2.86 -4.07 2.66 -3.87 2.47 -3.67 2.28 -3.47 2.1 -3.27 1.93 -3.08 1.76 -2.88 1.6 -2.68 1.44 -2.48 1.29 -2.28 1.14 -2.08 0.99 -1.89 0.85 -1.69 0.72 -1.49 0.59 -1.29 0.46 -1.09 0.34 -0.89 0.22 -0.69 0.1 -0.5 -0.01 -0.3 -0.11 -0.1 -0.22 0.1 -0.32 0.3 -0.42 0.5 -0.51 0.69 -0.61 0.89 -0.69 1.09 -0.78 1.29 -0.86 1.49 -0.94 1.69 -1.02 1.89 -1.1 2.08 -1.17 2.28 -1.24 2.48 -1.31 2.68 -1.38 2.88 -1.44 3.08 -1.5 3.27 -1.57 3.47 -1.62 3.67 -1.68 3.87 -1.73 4.07 -1.79 4.27 -1.84 4.47 -1.89 4.66 -1.94 4.86 -1.98 5.06 -2.03 5.26 -2.07 5.46 -2.11 5.66 -2.15 5.86 -2.19 6.05 -2.23 6.25 -2.27 6.45 -2.3 6.65 -2.34 6.85 -2.37 7.05 -2.41 7.24 -2.44 7.44 -2.47 7.64 -2.5 7.84 -2.52 8.04 -2.55 8.24 -2.58 8.44 -2.6 8.63 -2.63 8.83 -2.65 9.03 -2.68 9.23 -2.7 9.43 -2.72 9.63 -2.74 9.82 -2.76 10.02 -2.78 10.22 -2.8 10.42 -2.82 10.62 -2.84 10.82 -2.86 11.02 -2.87 11.21 -2.89 11.41 -2.91 11.61 -2.92 11.81 -2.94 12.01 -2.95 12.21 -2.96 12.4 -2.98 12.6 -2.99 12.8 -3 13 -3.01 13.2 -3.03 13.4 -3.04 13.6 -3.05 13.79 -3.06 13.99 -3.07 14.19 -3.08 14.39 -3.09 14.59 -3.1 14.79 -3.11 14.98 -3.12 15.18 -3.12 15.38 -3.13 15.58 -3.14 15.78 -3.15 15.98 -3.15 16.18 -3.16 16.37 -3.17 16.57 -3.18 16.77 -3.18 16.97 -3.19 17.17 -3.19 17.37 -3.2 17.57 -3.21 17.76 -3.21 17.96 -3.22 18.16 -3.22 18.36 -3.23 18.56 -3.23 18.76 -3.24 18.95 -3.24 19.15 -3.24 19.35 -3.25 19.55 -3.25 19.75 -3.26" class="primitive"/>
            </g>
          </g>
        </g>
      </g>
    </g>
  </g>
  <g class="guide ylabels" font-size="2.82" font-family="'PT Sans Caption','Helvetica Neue','Helvetica',sans-serif" fill="#6C606B" id="img-e074b313-44">
    <g transform="translate(20.3,48.72)">
      <g class="primitive">
        <text text-anchor="end" dy="0.35em">0</text>
      </g>
    </g>
    <g transform="translate(20.3,27.86)">
      <g class="primitive">
        <text text-anchor="end" dy="0.35em">500</text>
      </g>
    </g>
    <g transform="translate(20.3,7)">
      <g class="primitive">
        <text text-anchor="end" dy="0.35em">1000</text>
      </g>
    </g>
  </g>
  <g font-size="3.88" font-family="'PT Sans','Helvetica Neue','Helvetica',sans-serif" fill="#564A55" stroke="#000000" stroke-opacity="0.000" id="img-e074b313-45">
    <g transform="translate(8.81,25.86)">
      <g class="primitive">
        <text text-anchor="middle" dy="0.35em" transform="rotate(-90,0, 2)">Capital per capita, k</text>
      </g>
    </g>
  </g>
</g>
<defs>
  <clipPath id="img-e074b313-4">
    <path d="M159.63,5 L 205 5 205 50.72 159.63 50.72" />
  </clipPath>
  <clipPath id="img-e074b313-19">
    <path d="M89.63,5 L 135 5 135 50.72 89.63 50.72" />
  </clipPath>
  <clipPath id="img-e074b313-34">
    <path d="M21.3,5 L 65 5 65 50.72 21.3 50.72" />
  </clipPath>
</defs>
</svg>
