<?xml version="1.0" encoding="UTF-8"?>
<svg xmlns="http://www.w3.org/2000/svg"
     xmlns:xlink="http://www.w3.org/1999/xlink"
     xmlns:gadfly="http://www.gadflyjl.org/ns"
     version="1.2"
     width="210mm" height="70mm" viewBox="0 0 210 70"
     stroke="none"
     fill="#000000"
     stroke-width="0.3"
     font-size="3.88"
>
<g class="plotroot xscalable yscalable" id="img-f2cb5f27-1">
  <g font-size="3.88" font-family="'PT Sans','Helvetica Neue','Helvetica',sans-serif" fill="#564A55" stroke="#000000" stroke-opacity="0.000" id="img-f2cb5f27-2">
    <g transform="translate(180.64,58.39)">
      <g class="primitive">
        <text text-anchor="middle" dy="0.6em">Time</text>
      </g>
    </g>
  </g>
  <g class="guide xlabels" font-size="2.82" font-family="'PT Sans Caption','Helvetica Neue','Helvetica',sans-serif" fill="#6C606B" id="img-f2cb5f27-3">
    <g transform="translate(158.28,51.72)">
      <g class="primitive">
        <text text-anchor="middle" dy="0.6em">0</text>
      </g>
    </g>
    <g transform="translate(169.46,51.72)">
      <g class="primitive">
        <text text-anchor="middle" dy="0.6em">50</text>
      </g>
    </g>
    <g transform="translate(180.64,51.72)">
      <g class="primitive">
        <text text-anchor="middle" dy="0.6em">100</text>
      </g>
    </g>
    <g transform="translate(191.82,51.72)">
      <g class="primitive">
        <text text-anchor="middle" dy="0.6em">150</text>
      </g>
    </g>
    <g transform="translate(203,51.72)">
      <g class="primitive">
        <text text-anchor="middle" dy="0.6em">200</text>
      </g>
    </g>
  </g>
  <g clip-path="url(#img-f2cb5f27-4)">
    <g id="img-f2cb5f27-5">
      <g pointer-events="visible" fill-opacity="0" fill="#000000" fill-opacity="0.000" stroke="#000000" stroke-opacity="0.000" class="guide background" id="img-f2cb5f27-6">
        <g transform="translate(180.64,27.86)">
          <path d="M-24.36,-22.86 L 24.36 -22.86 24.36 22.86 -24.36 22.86 z" class="primitive"/>
        </g>
      </g>
      <g class="guide ygridlines xfixed" stroke-dasharray="0.5,0.5" stroke-width="0.2" stroke="#D0D0E0" id="img-f2cb5f27-7">
        <g transform="translate(180.64,48.72)">
          <path fill="none" d="M-24.36,0 L 24.36 0" class="primitive"/>
        </g>
        <g transform="translate(180.64,38.29)">
          <path fill="none" d="M-24.36,0 L 24.36 0" class="primitive"/>
        </g>
        <g transform="translate(180.64,27.86)">
          <path fill="none" d="M-24.36,0 L 24.36 0" class="primitive"/>
        </g>
        <g transform="translate(180.64,17.43)">
          <path fill="none" d="M-24.36,0 L 24.36 0" class="primitive"/>
        </g>
        <g transform="translate(180.64,7)">
          <path fill="none" d="M-24.36,0 L 24.36 0" class="primitive"/>
        </g>
      </g>
      <g class="guide xgridlines yfixed" stroke-dasharray="0.5,0.5" stroke-width="0.2" stroke="#D0D0E0" id="img-f2cb5f27-8">
        <g transform="translate(158.28,27.86)">
          <path fill="none" d="M0,-22.86 L 0 22.86" class="primitive"/>
        </g>
        <g transform="translate(169.46,27.86)">
          <path fill="none" d="M0,-22.86 L 0 22.86" class="primitive"/>
        </g>
        <g transform="translate(180.64,27.86)">
          <path fill="none" d="M0,-22.86 L 0 22.86" class="primitive"/>
        </g>
        <g transform="translate(191.82,27.86)">
          <path fill="none" d="M0,-22.86 L 0 22.86" class="primitive"/>
        </g>
        <g transform="translate(203,27.86)">
          <path fill="none" d="M0,-22.86 L 0 22.86" class="primitive"/>
        </g>
      </g>
      <g class="plotpanel" id="img-f2cb5f27-9">
        <metadata>
          <boundingbox value="156.285mm 5.0mm 48.715mm 45.715mm"/>
          <unitbox value="-8.945544000894554 8.38355507611171 217.89108800178911 -8.76711015222342"/>
        </metadata>
        <g stroke-width="0.3" fill="#000000" fill-opacity="0.000" class="geometry" id="img-f2cb5f27-10">
          <g class="color_RGB{N0f8}(0.0,0.0,0.0)" stroke-dasharray="2,1" stroke="#000000" id="img-f2cb5f27-11">
            <g transform="translate(169.24,29.16)">
              <path fill="none" d="M0,19.55 L 0 -19.55" class="primitive"/>
            </g>
          </g>
        </g>
        <g stroke-width="0.3" fill="#000000" fill-opacity="0.000" class="geometry" id="img-f2cb5f27-12">
          <g class="color_RGB{N0f8}(0.0,0.0,0.0)" stroke-dasharray="none" stroke="#000000" id="img-f2cb5f27-13">
            <g transform="translate(180.75,10.76)">
              <path fill="none" d="M-22.25,-1.15 L -22.02 -1.15 -21.8 -1.15 -21.57 -1.15 -21.35 -1.15 -21.13 -1.15 -20.9 -1.15 -20.68 -1.15 -20.46 -1.15 -20.23 -1.15 -20.01 -1.15 -19.79 -1.15 -19.56 -1.15 -19.34 -1.15 -19.12 -1.15 -18.89 -1.15 -18.67 -1.15 -18.44 -1.15 -18.22 -1.15 -18 -1.15 -17.77 -1.15 -17.55 -1.15 -17.33 -1.15 -17.1 -1.15 -16.88 -1.15 -16.66 -1.15 -16.43 -1.15 -16.21 -1.15 -15.99 -1.15 -15.76 -1.15 -15.54 -1.15 -15.31 -1.15 -15.09 -1.15 -14.87 -1.15 -14.64 -1.15 -14.42 -1.15 -14.2 -1.15 -13.97 -1.15 -13.75 -1.15 -13.53 -1.15 -13.3 -1.15 -13.08 -1.15 -12.86 -1.15 -12.63 -1.15 -12.41 -1.15 -12.18 -1.15 -11.96 -1.15 -11.74 -1.15 -11.51 -1.15 -11.29 10.3 -11.07 9.74 -10.84 9.2 -10.62 8.69 -10.4 8.2 -10.17 7.73 -9.95 7.29 -9.73 6.87 -9.5 6.47 -9.28 6.1 -9.05 5.74 -8.83 5.39 -8.61 5.07 -8.38 4.76 -8.16 4.46 -7.94 4.18 -7.71 3.92 -7.49 3.67 -7.27 3.43 -7.04 3.2 -6.82 2.98 -6.6 2.78 -6.37 2.58 -6.15 2.39 -5.92 2.22 -5.7 2.05 -5.48 1.89 -5.25 1.74 -5.03 1.59 -4.81 1.46 -4.58 1.33 -4.36 1.2 -4.14 1.09 -3.91 0.97 -3.69 0.87 -3.47 0.77 -3.24 0.67 -3.02 0.58 -2.79 0.49 -2.57 0.41 -2.35 0.33 -2.12 0.26 -1.9 0.19 -1.68 0.12 -1.45 0.06 -1.23 -0 -1.01 -0.06 -0.78 -0.11 -0.56 -0.17 -0.34 -0.21 -0.11 -0.26 0.11 -0.31 0.34 -0.35 0.56 -0.39 0.78 -0.43 1.01 -0.46 1.23 -0.5 1.45 -0.53 1.68 -0.56 1.9 -0.59 2.12 -0.62 2.35 -0.64 2.57 -0.67 2.79 -0.69 3.02 -0.72 3.24 -0.74 3.47 -0.76 3.69 -0.78 3.91 -0.8 4.14 -0.81 4.36 -0.83 4.58 -0.85 4.81 -0.86 5.03 -0.88 5.25 -0.89 5.48 -0.9 5.7 -0.92 5.92 -0.93 6.15 -0.94 6.37 -0.95 6.6 -0.96 6.82 -0.97 7.04 -0.98 7.27 -0.99 7.49 -0.99 7.71 -1 7.94 -1.01 8.16 -1.02 8.38 -1.02 8.61 -1.03 8.83 -1.04 9.05 -1.04 9.28 -1.05 9.5 -1.05 9.73 -1.06 9.95 -1.06 10.17 -1.07 10.4 -1.07 10.62 -1.07 10.84 -1.08 11.07 -1.08 11.29 -1.09 11.51 -1.09 11.74 -1.09 11.96 -1.09 12.18 -1.1 12.41 -1.1 12.63 -1.1 12.86 -1.1 13.08 -1.11 13.3 -1.11 13.53 -1.11 13.75 -1.11 13.97 -1.12 14.2 -1.12 14.42 -1.12 14.64 -1.12 14.87 -1.12 15.09 -1.12 15.31 -1.12 15.54 -1.13 15.76 -1.13 15.99 -1.13 16.21 -1.13 16.43 -1.13 16.66 -1.13 16.88 -1.13 17.1 -1.13 17.33 -1.13 17.55 -1.13 17.77 -1.14 18 -1.14 18.22 -1.14 18.44 -1.14 18.67 -1.14 18.89 -1.14 19.12 -1.14 19.34 -1.14 19.56 -1.14 19.79 -1.14 20.01 -1.14 20.23 -1.14 20.46 -1.14 20.68 -1.14 20.9 -1.14 21.13 -1.14 21.35 -1.14 21.57 -1.14 21.8 -1.14 22.02 -1.14 22.25 -1.15" class="primitive"/>
            </g>
          </g>
        </g>
      </g>
    </g>
  </g>
  <g class="guide ylabels" font-size="2.82" font-family="'PT Sans Caption','Helvetica Neue','Helvetica',sans-serif" fill="#6C606B" id="img-f2cb5f27-14">
    <g transform="translate(155.29,48.72)">
      <g class="primitive">
        <text text-anchor="end" dy="0.35em">0</text>
      </g>
    </g>
    <g transform="translate(155.29,38.29)">
      <g class="primitive">
        <text text-anchor="end" dy="0.35em">2</text>
      </g>
    </g>
    <g transform="translate(155.29,27.86)">
      <g class="primitive">
        <text text-anchor="end" dy="0.35em">4</text>
      </g>
    </g>
    <g transform="translate(155.29,17.43)">
      <g class="primitive">
        <text text-anchor="end" dy="0.35em">6</text>
      </g>
    </g>
    <g transform="translate(155.29,7)">
      <g class="primitive">
        <text text-anchor="end" dy="0.35em">8</text>
      </g>
    </g>
  </g>
  <g font-size="3.88" font-family="'PT Sans','Helvetica Neue','Helvetica',sans-serif" fill="#564A55" stroke="#000000" stroke-opacity="0.000" id="img-f2cb5f27-15">
    <g transform="translate(148.81,25.86)">
      <g class="primitive">
        <text text-anchor="middle" dy="0.35em" transform="rotate(-90,0, 2)">Consumption per capita, c</text>
      </g>
    </g>
  </g>
</g>
<g class="plotroot xscalable yscalable" id="img-f2cb5f27-16">
  <g font-size="3.88" font-family="'PT Sans','Helvetica Neue','Helvetica',sans-serif" fill="#564A55" stroke="#000000" stroke-opacity="0.000" id="img-f2cb5f27-17">
    <g transform="translate(111.48,58.39)">
      <g class="primitive">
        <text text-anchor="middle" dy="0.6em">Time</text>
      </g>
    </g>
  </g>
  <g class="guide xlabels" font-size="2.82" font-family="'PT Sans Caption','Helvetica Neue','Helvetica',sans-serif" fill="#6C606B" id="img-f2cb5f27-18">
    <g transform="translate(89.96,51.72)">
      <g class="primitive">
        <text text-anchor="middle" dy="0.6em">0</text>
      </g>
    </g>
    <g transform="translate(100.72,51.72)">
      <g class="primitive">
        <text text-anchor="middle" dy="0.6em">50</text>
      </g>
    </g>
    <g transform="translate(111.48,51.72)">
      <g class="primitive">
        <text text-anchor="middle" dy="0.6em">100</text>
      </g>
    </g>
    <g transform="translate(122.24,51.72)">
      <g class="primitive">
        <text text-anchor="middle" dy="0.6em">150</text>
      </g>
    </g>
    <g transform="translate(133,51.72)">
      <g class="primitive">
        <text text-anchor="middle" dy="0.6em">200</text>
      </g>
    </g>
  </g>
  <g clip-path="url(#img-f2cb5f27-19)">
    <g id="img-f2cb5f27-20">
      <g pointer-events="visible" fill-opacity="0" fill="#000000" fill-opacity="0.000" stroke="#000000" stroke-opacity="0.000" class="guide background" id="img-f2cb5f27-21">
        <g transform="translate(111.48,27.86)">
          <path d="M-23.52,-22.86 L 23.52 -22.86 23.52 22.86 -23.52 22.86 z" class="primitive"/>
        </g>
      </g>
      <g class="guide ygridlines xfixed" stroke-dasharray="0.5,0.5" stroke-width="0.2" stroke="#D0D0E0" id="img-f2cb5f27-22">
        <g transform="translate(111.48,48.72)">
          <path fill="none" d="M-23.52,0 L 23.52 0" class="primitive"/>
        </g>
        <g transform="translate(111.48,27.86)">
          <path fill="none" d="M-23.52,0 L 23.52 0" class="primitive"/>
        </g>
        <g transform="translate(111.48,7)">
          <path fill="none" d="M-23.52,0 L 23.52 0" class="primitive"/>
        </g>
      </g>
      <g class="guide xgridlines yfixed" stroke-dasharray="0.5,0.5" stroke-width="0.2" stroke="#D0D0E0" id="img-f2cb5f27-23">
        <g transform="translate(89.96,27.86)">
          <path fill="none" d="M0,-22.86 L 0 22.86" class="primitive"/>
        </g>
        <g transform="translate(100.72,27.86)">
          <path fill="none" d="M0,-22.86 L 0 22.86" class="primitive"/>
        </g>
        <g transform="translate(111.48,27.86)">
          <path fill="none" d="M0,-22.86 L 0 22.86" class="primitive"/>
        </g>
        <g transform="translate(122.24,27.86)">
          <path fill="none" d="M0,-22.86 L 0 22.86" class="primitive"/>
        </g>
        <g transform="translate(133,27.86)">
          <path fill="none" d="M0,-22.86 L 0 22.86" class="primitive"/>
        </g>
      </g>
      <g class="plotpanel" id="img-f2cb5f27-24">
        <metadata>
          <boundingbox value="87.95833333333333mm 5.0mm 47.04166666666667mm 45.715mm"/>
          <unitbox value="-9.293320425943852 10.479443845139638 218.58664085188772 -10.958887690279276"/>
        </metadata>
        <g stroke-width="0.3" fill="#000000" fill-opacity="0.000" class="geometry" id="img-f2cb5f27-25">
          <g class="color_RGB{N0f8}(0.0,0.0,0.0)" stroke-dasharray="2,1" stroke="#000000" id="img-f2cb5f27-26">
            <g transform="translate(100.5,27.86)">
              <path fill="none" d="M0,20.86 L 0 -20.86" class="primitive"/>
            </g>
          </g>
        </g>
        <g stroke-width="0.3" fill="#000000" fill-opacity="0.000" class="geometry" id="img-f2cb5f27-27">
          <g class="color_RGB{N0f8}(0.0,0.0,0.0)" stroke-dasharray="none" stroke="#000000" id="img-f2cb5f27-28">
            <g transform="translate(111.59,8.23)">
              <path fill="none" d="M-21.41,-1.23 L -21.2 -1.23 -20.98 -1.23 -20.77 -1.23 -20.55 -1.23 -20.34 -1.23 -20.12 -1.23 -19.91 -1.23 -19.69 -1.23 -19.48 -1.23 -19.26 -1.23 -19.05 -1.23 -18.83 -1.23 -18.62 -1.23 -18.4 -1.23 -18.19 -1.23 -17.97 -1.23 -17.75 -1.23 -17.54 -1.23 -17.32 -1.23 -17.11 -1.23 -16.89 -1.23 -16.68 -1.23 -16.46 -1.23 -16.25 -1.23 -16.03 -1.23 -15.82 -1.23 -15.6 -1.23 -15.39 -1.23 -15.17 -1.23 -14.96 -1.23 -14.74 -1.23 -14.53 -1.23 -14.31 -1.23 -14.1 -1.23 -13.88 -1.23 -13.67 -1.23 -13.45 -1.23 -13.24 -1.23 -13.02 -1.23 -12.8 -1.23 -12.59 -1.23 -12.37 -1.23 -12.16 -1.23 -11.94 -1.23 -11.73 -1.23 -11.51 -1.23 -11.3 -1.23 -11.08 -1.23 -10.87 10.99 -10.65 10.39 -10.44 9.81 -10.22 9.26 -10.01 8.74 -9.79 8.25 -9.58 7.78 -9.36 7.33 -9.15 6.91 -8.93 6.5 -8.72 6.12 -8.5 5.75 -8.29 5.41 -8.07 5.08 -7.86 4.76 -7.64 4.46 -7.42 4.18 -7.21 3.91 -6.99 3.65 -6.78 3.41 -6.56 3.18 -6.35 2.96 -6.13 2.75 -5.92 2.55 -5.7 2.36 -5.49 2.19 -5.27 2.02 -5.06 1.85 -4.84 1.7 -4.63 1.55 -4.41 1.41 -4.2 1.28 -3.98 1.16 -3.77 1.04 -3.55 0.93 -3.34 0.82 -3.12 0.72 -2.91 0.62 -2.69 0.53 -2.47 0.44 -2.26 0.36 -2.04 0.28 -1.83 0.2 -1.61 0.13 -1.4 0.06 -1.18 -0 -0.97 -0.06 -0.75 -0.12 -0.54 -0.18 -0.32 -0.23 -0.11 -0.28 0.11 -0.33 0.32 -0.37 0.54 -0.41 0.75 -0.45 0.97 -0.49 1.18 -0.53 1.4 -0.56 1.61 -0.6 1.83 -0.63 2.04 -0.66 2.26 -0.69 2.47 -0.71 2.69 -0.74 2.91 -0.76 3.12 -0.79 3.34 -0.81 3.55 -0.83 3.77 -0.85 3.98 -0.87 4.2 -0.89 4.41 -0.9 4.63 -0.92 4.84 -0.94 5.06 -0.95 5.27 -0.96 5.49 -0.98 5.7 -0.99 5.92 -1 6.13 -1.01 6.35 -1.02 6.56 -1.03 6.78 -1.04 6.99 -1.05 7.21 -1.06 7.42 -1.07 7.64 -1.08 7.86 -1.08 8.07 -1.09 8.29 -1.1 8.5 -1.11 8.72 -1.11 8.93 -1.12 9.15 -1.12 9.36 -1.13 9.58 -1.13 9.79 -1.14 10.01 -1.14 10.22 -1.15 10.44 -1.15 10.65 -1.15 10.87 -1.16 11.08 -1.16 11.3 -1.16 11.51 -1.17 11.73 -1.17 11.94 -1.17 12.16 -1.18 12.37 -1.18 12.59 -1.18 12.8 -1.18 13.02 -1.19 13.24 -1.19 13.45 -1.19 13.67 -1.19 13.88 -1.19 14.1 -1.19 14.31 -1.2 14.53 -1.2 14.74 -1.2 14.96 -1.2 15.17 -1.2 15.39 -1.2 15.6 -1.2 15.82 -1.21 16.03 -1.21 16.25 -1.21 16.46 -1.21 16.68 -1.21 16.89 -1.21 17.11 -1.21 17.32 -1.21 17.54 -1.21 17.75 -1.21 17.97 -1.21 18.19 -1.21 18.4 -1.22 18.62 -1.22 18.83 -1.22 19.05 -1.22 19.26 -1.22 19.48 -1.22 19.69 -1.22 19.91 -1.22 20.12 -1.22 20.34 -1.22 20.55 -1.22 20.77 -1.22 20.98 -1.22 21.2 -1.22 21.41 -1.22" class="primitive"/>
            </g>
          </g>
        </g>
      </g>
    </g>
  </g>
  <g class="guide ylabels" font-size="2.82" font-family="'PT Sans Caption','Helvetica Neue','Helvetica',sans-serif" fill="#6C606B" id="img-f2cb5f27-29">
    <g transform="translate(86.96,48.72)">
      <g class="primitive">
        <text text-anchor="end" dy="0.35em">0</text>
      </g>
    </g>
    <g transform="translate(86.96,27.86)">
      <g class="primitive">
        <text text-anchor="end" dy="0.35em">5</text>
      </g>
    </g>
    <g transform="translate(86.96,7)">
      <g class="primitive">
        <text text-anchor="end" dy="0.35em">10</text>
      </g>
    </g>
  </g>
  <g font-size="3.88" font-family="'PT Sans','Helvetica Neue','Helvetica',sans-serif" fill="#564A55" stroke="#000000" stroke-opacity="0.000" id="img-f2cb5f27-30">
    <g transform="translate(78.81,25.86)">
      <g class="primitive">
        <text text-anchor="middle" dy="0.35em" transform="rotate(-90,0, 2)">Output per capita, y</text>
      </g>
    </g>
  </g>
</g>
<g class="plotroot xscalable yscalable" id="img-f2cb5f27-31">
  <g font-size="3.88" font-family="'PT Sans','Helvetica Neue','Helvetica',sans-serif" fill="#564A55" stroke="#000000" stroke-opacity="0.000" id="img-f2cb5f27-32">
    <g transform="translate(41.48,58.39)">
      <g class="primitive">
        <text text-anchor="middle" dy="0.6em">Time</text>
      </g>
    </g>
  </g>
  <g class="guide xlabels" font-size="2.82" font-family="'PT Sans Caption','Helvetica Neue','Helvetica',sans-serif" fill="#6C606B" id="img-f2cb5f27-33">
    <g transform="translate(19.96,51.72)">
      <g class="primitive">
        <text text-anchor="middle" dy="0.6em">0</text>
      </g>
    </g>
    <g transform="translate(30.72,51.72)">
      <g class="primitive">
        <text text-anchor="middle" dy="0.6em">50</text>
      </g>
    </g>
    <g transform="translate(41.48,51.72)">
      <g class="primitive">
        <text text-anchor="middle" dy="0.6em">100</text>
      </g>
    </g>
    <g transform="translate(52.24,51.72)">
      <g class="primitive">
        <text text-anchor="middle" dy="0.6em">150</text>
      </g>
    </g>
    <g transform="translate(63,51.72)">
      <g class="primitive">
        <text text-anchor="middle" dy="0.6em">200</text>
      </g>
    </g>
  </g>
  <g clip-path="url(#img-f2cb5f27-34)">
    <g id="img-f2cb5f27-35">
      <g pointer-events="visible" fill-opacity="0" fill="#000000" fill-opacity="0.000" stroke="#000000" stroke-opacity="0.000" class="guide background" id="img-f2cb5f27-36">
        <g transform="translate(41.48,27.86)">
          <path d="M-23.52,-22.86 L 23.52 -22.86 23.52 22.86 -23.52 22.86 z" class="primitive"/>
        </g>
      </g>
      <g class="guide ygridlines xfixed" stroke-dasharray="0.5,0.5" stroke-width="0.2" stroke="#D0D0E0" id="img-f2cb5f27-37">
        <g transform="translate(41.48,48.72)">
          <path fill="none" d="M-23.52,0 L 23.52 0" class="primitive"/>
        </g>
        <g transform="translate(41.48,40.37)">
          <path fill="none" d="M-23.52,0 L 23.52 0" class="primitive"/>
        </g>
        <g transform="translate(41.48,32.03)">
          <path fill="none" d="M-23.52,0 L 23.52 0" class="primitive"/>
        </g>
        <g transform="translate(41.48,23.69)">
          <path fill="none" d="M-23.52,0 L 23.52 0" class="primitive"/>
        </g>
        <g transform="translate(41.48,15.34)">
          <path fill="none" d="M-23.52,0 L 23.52 0" class="primitive"/>
        </g>
        <g transform="translate(41.48,7)">
          <path fill="none" d="M-23.52,0 L 23.52 0" class="primitive"/>
        </g>
      </g>
      <g class="guide xgridlines yfixed" stroke-dasharray="0.5,0.5" stroke-width="0.2" stroke="#D0D0E0" id="img-f2cb5f27-38">
        <g transform="translate(19.96,27.86)">
          <path fill="none" d="M0,-22.86 L 0 22.86" class="primitive"/>
        </g>
        <g transform="translate(30.72,27.86)">
          <path fill="none" d="M0,-22.86 L 0 22.86" class="primitive"/>
        </g>
        <g transform="translate(41.48,27.86)">
          <path fill="none" d="M0,-22.86 L 0 22.86" class="primitive"/>
        </g>
        <g transform="translate(52.24,27.86)">
          <path fill="none" d="M0,-22.86 L 0 22.86" class="primitive"/>
        </g>
        <g transform="translate(63,27.86)">
          <path fill="none" d="M0,-22.86 L 0 22.86" class="primitive"/>
        </g>
      </g>
      <g class="plotpanel" id="img-f2cb5f27-39">
        <metadata>
          <boundingbox value="17.95833333333333mm 5.0mm 47.04166666666667mm 45.715mm"/>
          <unitbox value="-9.293320425943852 26.198609612849094 218.58664085188772 -27.397219225698187"/>
        </metadata>
        <g stroke-width="0.3" fill="#000000" fill-opacity="0.000" class="geometry" id="img-f2cb5f27-40">
          <g class="color_RGB{N0f8}(0.0,0.0,0.0)" stroke-dasharray="2,1" stroke="#000000" id="img-f2cb5f27-41">
            <g transform="translate(30.5,27.86)">
              <path fill="none" d="M0,20.86 L 0 -20.86" class="primitive"/>
            </g>
          </g>
        </g>
        <g stroke-width="0.3" fill="#000000" fill-opacity="0.000" class="geometry" id="img-f2cb5f27-42">
          <g class="color_RGB{N0f8}(0.0,0.0,0.0)" stroke-dasharray="none" stroke="#000000" id="img-f2cb5f27-43">
            <g transform="translate(41.59,9.27)">
              <path fill="none" d="M-21.41,-2.27 L -21.2 -2.27 -20.98 -2.27 -20.77 -2.27 -20.55 -2.27 -20.34 -2.27 -20.12 -2.27 -19.91 -2.27 -19.69 -2.27 -19.48 -2.27 -19.26 -2.27 -19.05 -2.27 -18.83 -2.27 -18.62 -2.27 -18.4 -2.27 -18.19 -2.27 -17.97 -2.27 -17.75 -2.27 -17.54 -2.27 -17.32 -2.27 -17.11 -2.27 -16.89 -2.27 -16.68 -2.27 -16.46 -2.27 -16.25 -2.27 -16.03 -2.27 -15.82 -2.27 -15.6 -2.27 -15.39 -2.27 -15.17 -2.27 -14.96 -2.27 -14.74 -2.27 -14.53 -2.27 -14.31 -2.27 -14.1 -2.27 -13.88 -2.27 -13.67 -2.27 -13.45 -2.27 -13.24 -2.27 -13.02 -2.27 -12.8 -2.27 -12.59 -2.27 -12.37 -2.27 -12.16 -2.27 -11.94 -2.27 -11.73 -2.27 -11.51 -2.27 -11.3 -2.27 -11.08 -2.27 -10.87 18.59 -10.65 17.72 -10.44 16.89 -10.22 16.07 -10.01 15.29 -9.79 14.53 -9.58 13.8 -9.36 13.09 -9.15 12.41 -8.93 11.76 -8.72 11.13 -8.5 10.52 -8.29 9.94 -8.07 9.38 -7.86 8.85 -7.64 8.34 -7.42 7.84 -7.21 7.37 -6.99 6.92 -6.78 6.49 -6.56 6.08 -6.35 5.69 -6.13 5.31 -5.92 4.95 -5.7 4.6 -5.49 4.28 -5.27 3.96 -5.06 3.66 -4.84 3.38 -4.63 3.11 -4.41 2.85 -4.2 2.6 -3.98 2.36 -3.77 2.14 -3.55 1.92 -3.34 1.72 -3.12 1.53 -2.91 1.34 -2.69 1.16 -2.47 1 -2.26 0.84 -2.04 0.68 -1.83 0.54 -1.61 0.4 -1.4 0.27 -1.18 0.14 -0.97 0.03 -0.75 -0.09 -0.54 -0.19 -0.32 -0.3 -0.11 -0.39 0.11 -0.49 0.32 -0.58 0.54 -0.66 0.75 -0.74 0.97 -0.81 1.18 -0.89 1.4 -0.96 1.61 -1.02 1.83 -1.08 2.04 -1.14 2.26 -1.2 2.47 -1.25 2.69 -1.3 2.91 -1.35 3.12 -1.4 3.34 -1.44 3.55 -1.48 3.77 -1.52 3.98 -1.56 4.2 -1.59 4.41 -1.63 4.63 -1.66 4.84 -1.69 5.06 -1.72 5.27 -1.74 5.49 -1.77 5.7 -1.8 5.92 -1.82 6.13 -1.84 6.35 -1.86 6.56 -1.88 6.78 -1.9 6.99 -1.92 7.21 -1.94 7.42 -1.95 7.64 -1.97 7.86 -1.99 8.07 -2 8.29 -2.01 8.5 -2.03 8.72 -2.04 8.93 -2.05 9.15 -2.06 9.36 -2.07 9.58 -2.08 9.79 -2.09 10.01 -2.1 10.22 -2.11 10.44 -2.12 10.65 -2.12 10.87 -2.13 11.08 -2.14 11.3 -2.14 11.51 -2.15 11.73 -2.16 11.94 -2.16 12.16 -2.17 12.37 -2.17 12.59 -2.18 12.8 -2.18 13.02 -2.19 13.24 -2.19 13.45 -2.19 13.67 -2.2 13.88 -2.2 14.1 -2.21 14.31 -2.21 14.53 -2.21 14.74 -2.21 14.96 -2.22 15.17 -2.22 15.39 -2.22 15.6 -2.22 15.82 -2.23 16.03 -2.23 16.25 -2.23 16.46 -2.23 16.68 -2.23 16.89 -2.24 17.11 -2.24 17.32 -2.24 17.54 -2.24 17.75 -2.24 17.97 -2.24 18.19 -2.25 18.4 -2.25 18.62 -2.25 18.83 -2.25 19.05 -2.25 19.26 -2.25 19.48 -2.25 19.69 -2.25 19.91 -2.25 20.12 -2.25 20.34 -2.25 20.55 -2.26 20.77 -2.26 20.98 -2.26 21.2 -2.26 21.41 -2.26" class="primitive"/>
            </g>
          </g>
        </g>
      </g>
    </g>
  </g>
  <g class="guide ylabels" font-size="2.82" font-family="'PT Sans Caption','Helvetica Neue','Helvetica',sans-serif" fill="#6C606B" id="img-f2cb5f27-44">
    <g transform="translate(16.96,48.72)">
      <g class="primitive">
        <text text-anchor="end" dy="0.35em">0</text>
      </g>
    </g>
    <g transform="translate(16.96,40.37)">
      <g class="primitive">
        <text text-anchor="end" dy="0.35em">5</text>
      </g>
    </g>
    <g transform="translate(16.96,32.03)">
      <g class="primitive">
        <text text-anchor="end" dy="0.35em">10</text>
      </g>
    </g>
    <g transform="translate(16.96,23.69)">
      <g class="primitive">
        <text text-anchor="end" dy="0.35em">15</text>
      </g>
    </g>
    <g transform="translate(16.96,15.34)">
      <g class="primitive">
        <text text-anchor="end" dy="0.35em">20</text>
      </g>
    </g>
    <g transform="translate(16.96,7)">
      <g class="primitive">
        <text text-anchor="end" dy="0.35em">25</text>
      </g>
    </g>
  </g>
  <g font-size="3.88" font-family="'PT Sans','Helvetica Neue','Helvetica',sans-serif" fill="#564A55" stroke="#000000" stroke-opacity="0.000" id="img-f2cb5f27-45">
    <g transform="translate(8.81,25.86)">
      <g class="primitive">
        <text text-anchor="middle" dy="0.35em" transform="rotate(-90,0, 2)">Capital per capita, k</text>
      </g>
    </g>
  </g>
</g>
<defs>
  <clipPath id="img-f2cb5f27-4">
    <path d="M156.28,5 L 205 5 205 50.72 156.28 50.72" />
  </clipPath>
  <clipPath id="img-f2cb5f27-19">
    <path d="M87.96,5 L 135 5 135 50.72 87.96 50.72" />
  </clipPath>
  <clipPath id="img-f2cb5f27-34">
    <path d="M17.96,5 L 65 5 65 50.72 17.96 50.72" />
  </clipPath>
</defs>
</svg>
