<?xml version="1.0" encoding="UTF-8"?>
<svg xmlns="http://www.w3.org/2000/svg"
     xmlns:xlink="http://www.w3.org/1999/xlink"
     xmlns:gadfly="http://www.gadflyjl.org/ns"
     version="1.2"
     width="210mm" height="70mm" viewBox="0 0 210 70"
     stroke="none"
     fill="#000000"
     stroke-width="0.3"
     font-size="3.88"
>
<g class="plotroot xscalable yscalable" id="img-8c2f5e0d-1">
  <g font-size="3.88" font-family="'PT Sans','Helvetica Neue','Helvetica',sans-serif" fill="#564A55" stroke="#000000" stroke-opacity="0.000" id="img-8c2f5e0d-2">
    <g transform="translate(180.64,58.39)">
      <g class="primitive">
        <text text-anchor="middle" dy="0.6em">Time</text>
      </g>
    </g>
  </g>
  <g class="guide xlabels" font-size="2.82" font-family="'PT Sans Caption','Helvetica Neue','Helvetica',sans-serif" fill="#6C606B" id="img-8c2f5e0d-3">
    <g transform="translate(158.28,51.72)">
      <g class="primitive">
        <text text-anchor="middle" dy="0.6em">0</text>
      </g>
    </g>
    <g transform="translate(169.46,51.72)">
      <g class="primitive">
        <text text-anchor="middle" dy="0.6em">50</text>
      </g>
    </g>
    <g transform="translate(180.64,51.72)">
      <g class="primitive">
        <text text-anchor="middle" dy="0.6em">100</text>
      </g>
    </g>
    <g transform="translate(191.82,51.72)">
      <g class="primitive">
        <text text-anchor="middle" dy="0.6em">150</text>
      </g>
    </g>
    <g transform="translate(203,51.72)">
      <g class="primitive">
        <text text-anchor="middle" dy="0.6em">200</text>
      </g>
    </g>
  </g>
  <g clip-path="url(#img-8c2f5e0d-4)">
    <g id="img-8c2f5e0d-5">
      <g pointer-events="visible" fill-opacity="0" fill="#000000" fill-opacity="0.000" stroke="#000000" stroke-opacity="0.000" class="guide background" id="img-8c2f5e0d-6">
        <g transform="translate(180.64,27.86)">
          <path d="M-24.36,-22.86 L 24.36 -22.86 24.36 22.86 -24.36 22.86 z" class="primitive"/>
        </g>
      </g>
      <g class="guide ygridlines xfixed" stroke-dasharray="0.5,0.5" stroke-width="0.2" stroke="#D0D0E0" id="img-8c2f5e0d-7">
        <g transform="translate(180.64,48.72)">
          <path fill="none" d="M-24.36,0 L 24.36 0" class="primitive"/>
        </g>
        <g transform="translate(180.64,40.37)">
          <path fill="none" d="M-24.36,0 L 24.36 0" class="primitive"/>
        </g>
        <g transform="translate(180.64,32.03)">
          <path fill="none" d="M-24.36,0 L 24.36 0" class="primitive"/>
        </g>
        <g transform="translate(180.64,23.69)">
          <path fill="none" d="M-24.36,0 L 24.36 0" class="primitive"/>
        </g>
        <g transform="translate(180.64,15.34)">
          <path fill="none" d="M-24.36,0 L 24.36 0" class="primitive"/>
        </g>
        <g transform="translate(180.64,7)">
          <path fill="none" d="M-24.36,0 L 24.36 0" class="primitive"/>
        </g>
      </g>
      <g class="guide xgridlines yfixed" stroke-dasharray="0.5,0.5" stroke-width="0.2" stroke="#D0D0E0" id="img-8c2f5e0d-8">
        <g transform="translate(158.28,27.86)">
          <path fill="none" d="M0,-22.86 L 0 22.86" class="primitive"/>
        </g>
        <g transform="translate(169.46,27.86)">
          <path fill="none" d="M0,-22.86 L 0 22.86" class="primitive"/>
        </g>
        <g transform="translate(180.64,27.86)">
          <path fill="none" d="M0,-22.86 L 0 22.86" class="primitive"/>
        </g>
        <g transform="translate(191.82,27.86)">
          <path fill="none" d="M0,-22.86 L 0 22.86" class="primitive"/>
        </g>
        <g transform="translate(203,27.86)">
          <path fill="none" d="M0,-22.86 L 0 22.86" class="primitive"/>
        </g>
      </g>
      <g class="plotpanel" id="img-8c2f5e0d-9">
        <metadata>
          <boundingbox value="156.285mm 5.0mm 48.715mm 45.715mm"/>
          <unitbox value="-8.945544000894554 5.239721922569819 217.89108800178911 -5.479443845139638"/>
        </metadata>
        <g stroke-width="0.3" fill="#000000" fill-opacity="0.000" class="geometry" id="img-8c2f5e0d-10">
          <g class="color_RGB{N0f8}(0.0,0.0,0.0)" stroke-dasharray="2,1" stroke="#000000" id="img-8c2f5e0d-11">
            <g transform="translate(167,34.88)">
              <path fill="none" d="M0,13.84 L 0 -13.84" class="primitive"/>
            </g>
          </g>
        </g>
        <g stroke-width="0.3" fill="#000000" fill-opacity="0.000" class="geometry" id="img-8c2f5e0d-12">
          <g class="color_RGB{N0f8}(0.0,0.0,0.0)" stroke-dasharray="none" stroke="#000000" id="img-8c2f5e0d-13">
            <g transform="translate(180.75,19.49)">
              <path fill="none" d="M-22.25,1.42 L -22.02 1.43 -21.8 1.43 -21.57 1.44 -21.35 1.44 -21.13 1.45 -20.9 1.46 -20.68 1.46 -20.46 1.47 -20.23 1.47 -20.01 1.48 -19.79 1.48 -19.56 1.49 -19.34 1.49 -19.12 1.49 -18.89 1.5 -18.67 1.5 -18.44 1.51 -18.22 1.51 -18 1.51 -17.77 1.52 -17.55 1.52 -17.33 1.52 -17.1 1.52 -16.88 1.53 -16.66 1.53 -16.43 1.53 -16.21 1.54 -15.99 1.54 -15.76 1.54 -15.54 1.54 -15.31 1.54 -15.09 1.55 -14.87 1.55 -14.64 1.55 -14.42 1.55 -14.2 1.55 -13.97 1.56 -13.75 1.56 -13.53 -9.9 -13.3 -9.49 -13.08 -9.08 -12.86 -8.7 -12.63 -8.32 -12.41 -7.96 -12.18 -7.61 -11.96 -7.28 -11.74 -6.96 -11.51 -6.65 -11.29 -6.35 -11.07 -6.06 -10.84 -5.78 -10.62 -5.51 -10.4 -5.26 -10.17 -5.01 -9.95 -4.77 -9.73 -4.54 -9.5 -4.32 -9.28 -4.1 -9.05 -3.89 -8.83 -3.69 -8.61 -3.5 -8.38 -3.32 -8.16 -3.14 -7.94 -2.97 -7.71 -2.8 -7.49 -2.64 -7.27 -2.49 -7.04 -2.34 -6.82 -2.2 -6.6 -2.06 -6.37 -1.93 -6.15 -1.8 -5.92 -1.68 -5.7 -1.56 -5.48 -1.44 -5.25 -1.33 -5.03 -1.23 -4.81 -1.13 -4.58 -1.03 -4.36 -0.93 -4.14 -0.84 -3.91 -0.75 -3.69 -0.67 -3.47 -0.58 -3.24 -0.51 -3.02 -0.43 -2.79 -0.36 -2.57 -0.28 -2.35 -0.22 -2.12 -0.15 -1.9 -0.09 -1.68 -0.03 -1.45 0.03 -1.23 0.09 -1.01 0.14 -0.78 0.2 -0.56 0.25 -0.34 0.3 -0.11 0.34 0.11 0.39 0.34 0.43 0.56 0.48 0.78 0.52 1.01 0.56 1.23 0.59 1.45 0.63 1.68 0.67 1.9 0.7 2.12 0.73 2.35 0.76 2.57 0.79 2.79 0.82 3.02 0.85 3.24 0.88 3.47 0.9 3.69 0.93 3.91 0.95 4.14 0.98 4.36 1 4.58 1.02 4.81 1.04 5.03 1.06 5.25 1.08 5.48 1.1 5.7 1.12 5.92 1.14 6.15 1.15 6.37 1.17 6.6 1.19 6.82 1.2 7.04 1.22 7.27 1.23 7.49 1.24 7.71 1.26 7.94 1.27 8.16 1.28 8.38 1.29 8.61 1.3 8.83 1.31 9.05 1.33 9.28 1.34 9.5 1.34 9.73 1.35 9.95 1.36 10.17 1.37 10.4 1.38 10.62 1.39 10.84 1.4 11.07 1.4 11.29 1.41 11.51 1.42 11.74 1.42 11.96 1.43 12.18 1.44 12.41 1.44 12.63 1.45 12.86 1.45 13.08 1.46 13.3 1.47 13.53 1.47 13.75 1.48 13.97 1.48 14.2 1.48 14.42 1.49 14.64 1.49 14.87 1.5 15.09 1.5 15.31 1.5 15.54 1.51 15.76 1.51 15.99 1.51 16.21 1.52 16.43 1.52 16.66 1.52 16.88 1.53 17.1 1.53 17.33 1.53 17.55 1.53 17.77 1.54 18 1.54 18.22 1.54 18.44 1.54 18.67 1.55 18.89 1.55 19.12 1.55 19.34 1.55 19.56 1.55 19.79 1.56 20.01 1.56 20.23 1.56 20.46 1.56 20.68 1.56 20.9 1.56 21.13 1.57 21.35 1.57 21.57 1.57 21.8 1.57 22.02 1.57 22.25 1.57" class="primitive"/>
            </g>
          </g>
        </g>
      </g>
    </g>
  </g>
  <g class="guide ylabels" font-size="2.82" font-family="'PT Sans Caption','Helvetica Neue','Helvetica',sans-serif" fill="#6C606B" id="img-8c2f5e0d-14">
    <g transform="translate(155.29,48.72)">
      <g class="primitive">
        <text text-anchor="end" dy="0.35em">0</text>
      </g>
    </g>
    <g transform="translate(155.29,40.37)">
      <g class="primitive">
        <text text-anchor="end" dy="0.35em">1</text>
      </g>
    </g>
    <g transform="translate(155.29,32.03)">
      <g class="primitive">
        <text text-anchor="end" dy="0.35em">2</text>
      </g>
    </g>
    <g transform="translate(155.29,23.69)">
      <g class="primitive">
        <text text-anchor="end" dy="0.35em">3</text>
      </g>
    </g>
    <g transform="translate(155.29,15.34)">
      <g class="primitive">
        <text text-anchor="end" dy="0.35em">4</text>
      </g>
    </g>
    <g transform="translate(155.29,7)">
      <g class="primitive">
        <text text-anchor="end" dy="0.35em">5</text>
      </g>
    </g>
  </g>
  <g font-size="3.88" font-family="'PT Sans','Helvetica Neue','Helvetica',sans-serif" fill="#564A55" stroke="#000000" stroke-opacity="0.000" id="img-8c2f5e0d-15">
    <g transform="translate(148.81,25.86)">
      <g class="primitive">
        <text text-anchor="middle" dy="0.35em" transform="rotate(-90,0, 2)">K/Y</text>
      </g>
    </g>
  </g>
</g>
<g class="plotroot xscalable yscalable" id="img-8c2f5e0d-16">
  <g font-size="3.88" font-family="'PT Sans','Helvetica Neue','Helvetica',sans-serif" fill="#564A55" stroke="#000000" stroke-opacity="0.000" id="img-8c2f5e0d-17">
    <g transform="translate(111.48,58.39)">
      <g class="primitive">
        <text text-anchor="middle" dy="0.6em">Time</text>
      </g>
    </g>
  </g>
  <g class="guide xlabels" font-size="2.82" font-family="'PT Sans Caption','Helvetica Neue','Helvetica',sans-serif" fill="#6C606B" id="img-8c2f5e0d-18">
    <g transform="translate(89.96,51.72)">
      <g class="primitive">
        <text text-anchor="middle" dy="0.6em">0</text>
      </g>
    </g>
    <g transform="translate(100.72,51.72)">
      <g class="primitive">
        <text text-anchor="middle" dy="0.6em">50</text>
      </g>
    </g>
    <g transform="translate(111.48,51.72)">
      <g class="primitive">
        <text text-anchor="middle" dy="0.6em">100</text>
      </g>
    </g>
    <g transform="translate(122.24,51.72)">
      <g class="primitive">
        <text text-anchor="middle" dy="0.6em">150</text>
      </g>
    </g>
    <g transform="translate(133,51.72)">
      <g class="primitive">
        <text text-anchor="middle" dy="0.6em">200</text>
      </g>
    </g>
  </g>
  <g clip-path="url(#img-8c2f5e0d-19)">
    <g id="img-8c2f5e0d-20">
      <g pointer-events="visible" fill-opacity="0" fill="#000000" fill-opacity="0.000" stroke="#000000" stroke-opacity="0.000" class="guide background" id="img-8c2f5e0d-21">
        <g transform="translate(111.48,27.86)">
          <path d="M-23.52,-22.86 L 23.52 -22.86 23.52 22.86 -23.52 22.86 z" class="primitive"/>
        </g>
      </g>
      <g class="guide ygridlines xfixed" stroke-dasharray="0.5,0.5" stroke-width="0.2" stroke="#D0D0E0" id="img-8c2f5e0d-22">
        <g transform="translate(111.48,48.72)">
          <path fill="none" d="M-23.52,0 L 23.52 0" class="primitive"/>
        </g>
        <g transform="translate(111.48,38.29)">
          <path fill="none" d="M-23.52,0 L 23.52 0" class="primitive"/>
        </g>
        <g transform="translate(111.48,27.86)">
          <path fill="none" d="M-23.52,0 L 23.52 0" class="primitive"/>
        </g>
        <g transform="translate(111.48,17.43)">
          <path fill="none" d="M-23.52,0 L 23.52 0" class="primitive"/>
        </g>
        <g transform="translate(111.48,7)">
          <path fill="none" d="M-23.52,0 L 23.52 0" class="primitive"/>
        </g>
      </g>
      <g class="guide xgridlines yfixed" stroke-dasharray="0.5,0.5" stroke-width="0.2" stroke="#D0D0E0" id="img-8c2f5e0d-23">
        <g transform="translate(89.96,27.86)">
          <path fill="none" d="M0,-22.86 L 0 22.86" class="primitive"/>
        </g>
        <g transform="translate(100.72,27.86)">
          <path fill="none" d="M0,-22.86 L 0 22.86" class="primitive"/>
        </g>
        <g transform="translate(111.48,27.86)">
          <path fill="none" d="M0,-22.86 L 0 22.86" class="primitive"/>
        </g>
        <g transform="translate(122.24,27.86)">
          <path fill="none" d="M0,-22.86 L 0 22.86" class="primitive"/>
        </g>
        <g transform="translate(133,27.86)">
          <path fill="none" d="M0,-22.86 L 0 22.86" class="primitive"/>
        </g>
      </g>
      <g class="plotpanel" id="img-8c2f5e0d-24">
        <metadata>
          <boundingbox value="87.95833333333333mm 5.0mm 47.04166666666667mm 45.715mm"/>
          <unitbox value="-9.293320425943852 83.8355507611171 218.58664085188772 -87.67110152223421"/>
        </metadata>
        <g stroke-width="0.3" fill="#000000" fill-opacity="0.000" class="geometry" id="img-8c2f5e0d-25">
          <g class="color_RGB{N0f8}(0.0,0.0,0.0)" stroke-dasharray="2,1" stroke="#000000" id="img-8c2f5e0d-26">
            <g transform="translate(98.35,34.88)">
              <path fill="none" d="M0,13.84 L 0 -13.84" class="primitive"/>
            </g>
          </g>
        </g>
        <g stroke-width="0.3" fill="#000000" fill-opacity="0.000" class="geometry" id="img-8c2f5e0d-27">
          <g class="color_RGB{N0f8}(0.0,0.0,0.0)" stroke-dasharray="none" stroke="#000000" id="img-8c2f5e0d-28">
            <g transform="translate(111.59,19.49)">
              <path fill="none" d="M-21.41,1.42 L -21.2 1.43 -20.98 1.43 -20.77 1.44 -20.55 1.44 -20.34 1.45 -20.12 1.46 -19.91 1.46 -19.69 1.47 -19.48 1.47 -19.26 1.48 -19.05 1.48 -18.83 1.49 -18.62 1.49 -18.4 1.49 -18.19 1.5 -17.97 1.5 -17.75 1.51 -17.54 1.51 -17.32 1.51 -17.11 1.52 -16.89 1.52 -16.68 1.52 -16.46 1.52 -16.25 1.53 -16.03 1.53 -15.82 1.53 -15.6 1.54 -15.39 1.54 -15.17 1.54 -14.96 1.54 -14.74 1.54 -14.53 1.55 -14.31 1.55 -14.1 1.55 -13.88 1.55 -13.67 1.55 -13.45 1.56 -13.24 1.56 -13.02 -9.9 -12.8 -9.49 -12.59 -9.08 -12.37 -8.7 -12.16 -8.32 -11.94 -7.96 -11.73 -7.61 -11.51 -7.28 -11.3 -6.96 -11.08 -6.65 -10.87 -6.35 -10.65 -6.06 -10.44 -5.78 -10.22 -5.51 -10.01 -5.26 -9.79 -5.01 -9.58 -4.77 -9.36 -4.54 -9.15 -4.32 -8.93 -4.1 -8.72 -3.89 -8.5 -3.69 -8.29 -3.5 -8.07 -3.32 -7.86 -3.14 -7.64 -2.97 -7.42 -2.8 -7.21 -2.64 -6.99 -2.49 -6.78 -2.34 -6.56 -2.2 -6.35 -2.06 -6.13 -1.93 -5.92 -1.8 -5.7 -1.68 -5.49 -1.56 -5.27 -1.44 -5.06 -1.33 -4.84 -1.23 -4.63 -1.13 -4.41 -1.03 -4.2 -0.93 -3.98 -0.84 -3.77 -0.75 -3.55 -0.67 -3.34 -0.58 -3.12 -0.51 -2.91 -0.43 -2.69 -0.36 -2.47 -0.28 -2.26 -0.22 -2.04 -0.15 -1.83 -0.09 -1.61 -0.03 -1.4 0.03 -1.18 0.09 -0.97 0.14 -0.75 0.2 -0.54 0.25 -0.32 0.3 -0.11 0.34 0.11 0.39 0.32 0.43 0.54 0.48 0.75 0.52 0.97 0.56 1.18 0.59 1.4 0.63 1.61 0.67 1.83 0.7 2.04 0.73 2.26 0.76 2.47 0.79 2.69 0.82 2.91 0.85 3.12 0.88 3.34 0.9 3.55 0.93 3.77 0.95 3.98 0.98 4.2 1 4.41 1.02 4.63 1.04 4.84 1.06 5.06 1.08 5.27 1.1 5.49 1.12 5.7 1.14 5.92 1.15 6.13 1.17 6.35 1.19 6.56 1.2 6.78 1.22 6.99 1.23 7.21 1.24 7.42 1.26 7.64 1.27 7.86 1.28 8.07 1.29 8.29 1.3 8.5 1.31 8.72 1.33 8.93 1.34 9.15 1.34 9.36 1.35 9.58 1.36 9.79 1.37 10.01 1.38 10.22 1.39 10.44 1.4 10.65 1.4 10.87 1.41 11.08 1.42 11.3 1.42 11.51 1.43 11.73 1.44 11.94 1.44 12.16 1.45 12.37 1.45 12.59 1.46 12.8 1.47 13.02 1.47 13.24 1.48 13.45 1.48 13.67 1.48 13.88 1.49 14.1 1.49 14.31 1.5 14.53 1.5 14.74 1.5 14.96 1.51 15.17 1.51 15.39 1.51 15.6 1.52 15.82 1.52 16.03 1.52 16.25 1.53 16.46 1.53 16.68 1.53 16.89 1.53 17.11 1.54 17.32 1.54 17.54 1.54 17.75 1.54 17.97 1.55 18.19 1.55 18.4 1.55 18.62 1.55 18.83 1.55 19.05 1.56 19.26 1.56 19.48 1.56 19.69 1.56 19.91 1.56 20.12 1.56 20.34 1.57 20.55 1.57 20.77 1.57 20.98 1.57 21.2 1.57 21.41 1.57" class="primitive"/>
            </g>
          </g>
        </g>
      </g>
    </g>
  </g>
  <g class="guide ylabels" font-size="2.82" font-family="'PT Sans Caption','Helvetica Neue','Helvetica',sans-serif" fill="#6C606B" id="img-8c2f5e0d-29">
    <g transform="translate(86.96,48.72)">
      <g class="primitive">
        <text text-anchor="end" dy="0.35em">0</text>
      </g>
    </g>
    <g transform="translate(86.96,38.29)">
      <g class="primitive">
        <text text-anchor="end" dy="0.35em">20</text>
      </g>
    </g>
    <g transform="translate(86.96,27.86)">
      <g class="primitive">
        <text text-anchor="end" dy="0.35em">40</text>
      </g>
    </g>
    <g transform="translate(86.96,17.43)">
      <g class="primitive">
        <text text-anchor="end" dy="0.35em">60</text>
      </g>
    </g>
    <g transform="translate(86.96,7)">
      <g class="primitive">
        <text text-anchor="end" dy="0.35em">80</text>
      </g>
    </g>
  </g>
  <g font-size="3.88" font-family="'PT Sans','Helvetica Neue','Helvetica',sans-serif" fill="#564A55" stroke="#000000" stroke-opacity="0.000" id="img-8c2f5e0d-30">
    <g transform="translate(78.81,25.86)">
      <g class="primitive">
        <text text-anchor="middle" dy="0.35em" transform="rotate(-90,0, 2)">Y/L</text>
      </g>
    </g>
  </g>
</g>
<g class="plotroot xscalable yscalable" id="img-8c2f5e0d-31">
  <g font-size="3.88" font-family="'PT Sans','Helvetica Neue','Helvetica',sans-serif" fill="#564A55" stroke="#000000" stroke-opacity="0.000" id="img-8c2f5e0d-32">
    <g transform="translate(42.32,58.39)">
      <g class="primitive">
        <text text-anchor="middle" dy="0.6em">Time</text>
      </g>
    </g>
  </g>
  <g class="guide xlabels" font-size="2.82" font-family="'PT Sans Caption','Helvetica Neue','Helvetica',sans-serif" fill="#6C606B" id="img-8c2f5e0d-33">
    <g transform="translate(21.63,51.72)">
      <g class="primitive">
        <text text-anchor="middle" dy="0.6em">0</text>
      </g>
    </g>
    <g transform="translate(31.97,51.72)">
      <g class="primitive">
        <text text-anchor="middle" dy="0.6em">50</text>
      </g>
    </g>
    <g transform="translate(42.32,51.72)">
      <g class="primitive">
        <text text-anchor="middle" dy="0.6em">100</text>
      </g>
    </g>
    <g transform="translate(52.66,51.72)">
      <g class="primitive">
        <text text-anchor="middle" dy="0.6em">150</text>
      </g>
    </g>
    <g transform="translate(63,51.72)">
      <g class="primitive">
        <text text-anchor="middle" dy="0.6em">200</text>
      </g>
    </g>
  </g>
  <g clip-path="url(#img-8c2f5e0d-34)">
    <g id="img-8c2f5e0d-35">
      <g pointer-events="visible" fill-opacity="0" fill="#000000" fill-opacity="0.000" stroke="#000000" stroke-opacity="0.000" class="guide background" id="img-8c2f5e0d-36">
        <g transform="translate(42.32,27.86)">
          <path d="M-22.68,-22.86 L 22.68 -22.86 22.68 22.86 -22.68 22.86 z" class="primitive"/>
        </g>
      </g>
      <g class="guide ygridlines xfixed" stroke-dasharray="0.5,0.5" stroke-width="0.2" stroke="#D0D0E0" id="img-8c2f5e0d-37">
        <g transform="translate(42.32,48.72)">
          <path fill="none" d="M-22.68,0 L 22.68 0" class="primitive"/>
        </g>
        <g transform="translate(42.32,38.29)">
          <path fill="none" d="M-22.68,0 L 22.68 0" class="primitive"/>
        </g>
        <g transform="translate(42.32,27.86)">
          <path fill="none" d="M-22.68,0 L 22.68 0" class="primitive"/>
        </g>
        <g transform="translate(42.32,17.43)">
          <path fill="none" d="M-22.68,0 L 22.68 0" class="primitive"/>
        </g>
        <g transform="translate(42.32,7)">
          <path fill="none" d="M-22.68,0 L 22.68 0" class="primitive"/>
        </g>
      </g>
      <g class="guide xgridlines yfixed" stroke-dasharray="0.5,0.5" stroke-width="0.2" stroke="#D0D0E0" id="img-8c2f5e0d-38">
        <g transform="translate(21.63,27.86)">
          <path fill="none" d="M0,-22.86 L 0 22.86" class="primitive"/>
        </g>
        <g transform="translate(31.97,27.86)">
          <path fill="none" d="M0,-22.86 L 0 22.86" class="primitive"/>
        </g>
        <g transform="translate(42.32,27.86)">
          <path fill="none" d="M0,-22.86 L 0 22.86" class="primitive"/>
        </g>
        <g transform="translate(52.66,27.86)">
          <path fill="none" d="M0,-22.86 L 0 22.86" class="primitive"/>
        </g>
        <g transform="translate(63,27.86)">
          <path fill="none" d="M0,-22.86 L 0 22.86" class="primitive"/>
        </g>
      </g>
      <g class="plotpanel" id="img-8c2f5e0d-39">
        <metadata>
          <boundingbox value="19.631666666666668mm 5.0mm 45.36833333333333mm 45.715mm"/>
          <unitbox value="-9.669231698964586 419.1777538055855 219.33846339792916 -438.355507611171"/>
        </metadata>
        <g stroke-width="0.3" fill="#000000" fill-opacity="0.000" class="geometry" id="img-8c2f5e0d-40">
          <g class="color_RGB{N0f8}(0.0,0.0,0.0)" stroke-dasharray="2,1" stroke="#000000" id="img-8c2f5e0d-41">
            <g transform="translate(29.7,39.54)">
              <path fill="none" d="M0,9.18 L 0 -9.18" class="primitive"/>
            </g>
          </g>
        </g>
        <g stroke-width="0.3" fill="#000000" fill-opacity="0.000" class="geometry" id="img-8c2f5e0d-42">
          <g class="color_RGB{N0f8}(0.0,0.0,0.0)" stroke-dasharray="none" stroke="#000000" id="img-8c2f5e0d-43">
            <g transform="translate(42.42,28.07)">
              <path fill="none" d="M-20.58,2.1 L -20.37 2.11 -20.17 2.12 -19.96 2.13 -19.75 2.14 -19.55 2.14 -19.34 2.15 -19.13 2.16 -18.93 2.17 -18.72 2.17 -18.51 2.18 -18.31 2.18 -18.1 2.19 -17.89 2.2 -17.68 2.2 -17.48 2.21 -17.27 2.21 -17.06 2.22 -16.86 2.22 -16.65 2.23 -16.44 2.23 -16.24 2.23 -16.03 2.24 -15.82 2.24 -15.62 2.25 -15.41 2.25 -15.2 2.25 -15 2.26 -14.79 2.26 -14.58 2.26 -14.38 2.27 -14.17 2.27 -13.96 2.27 -13.75 2.27 -13.55 2.28 -13.34 2.28 -13.13 2.28 -12.93 2.28 -12.72 2.29 -12.51 -16.07 -12.31 -15.29 -12.1 -14.55 -11.89 -13.84 -11.69 -13.16 -11.48 -12.52 -11.27 -11.9 -11.07 -11.31 -10.86 -10.75 -10.65 -10.21 -10.45 -9.7 -10.24 -9.21 -10.03 -8.74 -9.82 -8.3 -9.62 -7.87 -9.41 -7.46 -9.2 -7.07 -9 -6.69 -8.79 -6.33 -8.58 -5.99 -8.38 -5.66 -8.17 -5.34 -7.96 -5.04 -7.76 -4.75 -7.55 -4.48 -7.34 -4.21 -7.14 -3.95 -6.93 -3.71 -6.72 -3.48 -6.52 -3.25 -6.31 -3.04 -6.1 -2.83 -5.89 -2.63 -5.69 -2.44 -5.48 -2.26 -5.27 -2.08 -5.07 -1.91 -4.86 -1.75 -4.65 -1.6 -4.45 -1.45 -4.24 -1.3 -4.03 -1.16 -3.83 -1.03 -3.62 -0.91 -3.41 -0.78 -3.21 -0.67 -3 -0.55 -2.79 -0.44 -2.59 -0.34 -2.38 -0.24 -2.17 -0.14 -1.96 -0.05 -1.76 0.04 -1.55 0.13 -1.34 0.21 -1.14 0.29 -0.93 0.36 -0.72 0.44 -0.52 0.51 -0.31 0.58 -0.1 0.64 0.1 0.7 0.31 0.76 0.52 0.82 0.72 0.88 0.93 0.93 1.14 0.99 1.34 1.04 1.55 1.08 1.76 1.13 1.96 1.17 2.17 1.22 2.38 1.26 2.59 1.3 2.79 1.34 3 1.37 3.21 1.41 3.41 1.44 3.62 1.48 3.83 1.51 4.03 1.54 4.24 1.57 4.45 1.6 4.65 1.62 4.86 1.65 5.07 1.68 5.27 1.7 5.48 1.72 5.69 1.75 5.89 1.77 6.1 1.79 6.31 1.81 6.52 1.83 6.72 1.85 6.93 1.87 7.14 1.88 7.34 1.9 7.55 1.92 7.76 1.93 7.96 1.95 8.17 1.96 8.38 1.98 8.58 1.99 8.79 2 9 2.02 9.2 2.03 9.41 2.04 9.62 2.05 9.82 2.06 10.03 2.07 10.24 2.08 10.45 2.09 10.65 2.1 10.86 2.11 11.07 2.12 11.27 2.13 11.48 2.13 11.69 2.14 11.89 2.15 12.1 2.16 12.31 2.16 12.51 2.17 12.72 2.18 12.93 2.18 13.13 2.19 13.34 2.19 13.55 2.2 13.75 2.21 13.96 2.21 14.17 2.22 14.38 2.22 14.58 2.22 14.79 2.23 15 2.23 15.2 2.24 15.41 2.24 15.62 2.25 15.82 2.25 16.03 2.25 16.24 2.26 16.44 2.26 16.65 2.26 16.86 2.27 17.06 2.27 17.27 2.27 17.48 2.27 17.68 2.28 17.89 2.28 18.1 2.28 18.31 2.28 18.51 2.29 18.72 2.29 18.93 2.29 19.13 2.29 19.34 2.29 19.55 2.3 19.75 2.3 19.96 2.3 20.17 2.3 20.37 2.3 20.58 2.31" class="primitive"/>
            </g>
          </g>
        </g>
      </g>
    </g>
  </g>
  <g class="guide ylabels" font-size="2.82" font-family="'PT Sans Caption','Helvetica Neue','Helvetica',sans-serif" fill="#6C606B" id="img-8c2f5e0d-44">
    <g transform="translate(18.63,48.72)">
      <g class="primitive">
        <text text-anchor="end" dy="0.35em">0</text>
      </g>
    </g>
    <g transform="translate(18.63,38.29)">
      <g class="primitive">
        <text text-anchor="end" dy="0.35em">100</text>
      </g>
    </g>
    <g transform="translate(18.63,27.86)">
      <g class="primitive">
        <text text-anchor="end" dy="0.35em">200</text>
      </g>
    </g>
    <g transform="translate(18.63,17.43)">
      <g class="primitive">
        <text text-anchor="end" dy="0.35em">300</text>
      </g>
    </g>
    <g transform="translate(18.63,7)">
      <g class="primitive">
        <text text-anchor="end" dy="0.35em">400</text>
      </g>
    </g>
  </g>
  <g font-size="3.88" font-family="'PT Sans','Helvetica Neue','Helvetica',sans-serif" fill="#564A55" stroke="#000000" stroke-opacity="0.000" id="img-8c2f5e0d-45">
    <g transform="translate(8.81,25.86)">
      <g class="primitive">
        <text text-anchor="middle" dy="0.35em" transform="rotate(-90,0, 2)">K/L</text>
      </g>
    </g>
  </g>
</g>
<defs>
  <clipPath id="img-8c2f5e0d-4">
    <path d="M156.28,5 L 205 5 205 50.72 156.28 50.72" />
  </clipPath>
  <clipPath id="img-8c2f5e0d-19">
    <path d="M87.96,5 L 135 5 135 50.72 87.96 50.72" />
  </clipPath>
  <clipPath id="img-8c2f5e0d-34">
    <path d="M19.63,5 L 65 5 65 50.72 19.63 50.72" />
  </clipPath>
</defs>
</svg>
