<?xml version="1.0" encoding="UTF-8"?>
<svg xmlns="http://www.w3.org/2000/svg"
     xmlns:xlink="http://www.w3.org/1999/xlink"
     xmlns:gadfly="http://www.gadflyjl.org/ns"
     version="1.2"
     width="210mm" height="70mm" viewBox="0 0 210 70"
     stroke="none"
     fill="#000000"
     stroke-width="0.3"
     font-size="3.88"
>
<g class="plotroot xscalable yscalable" id="img-9c72b6d4-1">
  <g font-size="3.88" font-family="'PT Sans','Helvetica Neue','Helvetica',sans-serif" fill="#564A55" stroke="#000000" stroke-opacity="0.000" id="img-9c72b6d4-2">
    <g transform="translate(182.65,58.39)">
      <g class="primitive">
        <text text-anchor="middle" dy="0.6em">Time</text>
      </g>
    </g>
  </g>
  <g class="guide xlabels" font-size="2.82" font-family="'PT Sans Caption','Helvetica Neue','Helvetica',sans-serif" fill="#6C606B" id="img-9c72b6d4-3">
    <g transform="translate(162.3,51.72)">
      <g class="primitive">
        <text text-anchor="middle" dy="0.6em">0</text>
      </g>
    </g>
    <g transform="translate(172.48,51.72)">
      <g class="primitive">
        <text text-anchor="middle" dy="0.6em">50</text>
      </g>
    </g>
    <g transform="translate(182.65,51.72)">
      <g class="primitive">
        <text text-anchor="middle" dy="0.6em">100</text>
      </g>
    </g>
    <g transform="translate(192.83,51.72)">
      <g class="primitive">
        <text text-anchor="middle" dy="0.6em">150</text>
      </g>
    </g>
    <g transform="translate(203,51.72)">
      <g class="primitive">
        <text text-anchor="middle" dy="0.6em">200</text>
      </g>
    </g>
  </g>
  <g clip-path="url(#img-9c72b6d4-4)">
    <g id="img-9c72b6d4-5">
      <g pointer-events="visible" fill-opacity="0" fill="#000000" fill-opacity="0.000" stroke="#000000" stroke-opacity="0.000" class="guide background" id="img-9c72b6d4-6">
        <g transform="translate(182.65,27.86)">
          <path d="M-22.35,-22.86 L 22.35 -22.86 22.35 22.86 -22.35 22.86 z" class="primitive"/>
        </g>
      </g>
      <g class="guide ygridlines xfixed" stroke-dasharray="0.5,0.5" stroke-width="0.2" stroke="#D0D0E0" id="img-9c72b6d4-7">
        <g transform="translate(182.65,48.72)">
          <path fill="none" d="M-22.35,0 L 22.35 0" class="primitive"/>
        </g>
        <g transform="translate(182.65,34.81)">
          <path fill="none" d="M-22.35,0 L 22.35 0" class="primitive"/>
        </g>
        <g transform="translate(182.65,20.9)">
          <path fill="none" d="M-22.35,0 L 22.35 0" class="primitive"/>
        </g>
        <g transform="translate(182.65,7)">
          <path fill="none" d="M-22.35,0 L 22.35 0" class="primitive"/>
        </g>
      </g>
      <g class="guide xgridlines yfixed" stroke-dasharray="0.5,0.5" stroke-width="0.2" stroke="#D0D0E0" id="img-9c72b6d4-8">
        <g transform="translate(162.3,27.86)">
          <path fill="none" d="M0,-22.86 L 0 22.86" class="primitive"/>
        </g>
        <g transform="translate(172.48,27.86)">
          <path fill="none" d="M0,-22.86 L 0 22.86" class="primitive"/>
        </g>
        <g transform="translate(182.65,27.86)">
          <path fill="none" d="M0,-22.86 L 0 22.86" class="primitive"/>
        </g>
        <g transform="translate(192.83,27.86)">
          <path fill="none" d="M0,-22.86 L 0 22.86" class="primitive"/>
        </g>
        <g transform="translate(203,27.86)">
          <path fill="none" d="M0,-22.86 L 0 22.86" class="primitive"/>
        </g>
      </g>
      <g class="plotpanel" id="img-9c72b6d4-9">
        <metadata>
          <boundingbox value="160.305mm 5.0mm 44.695mm 45.715mm"/>
          <unitbox value="-9.829217348568621 0.1571916576770946 219.65843469713727 -0.16438331535418915"/>
        </metadata>
        <g stroke-width="0.3" fill="#000000" fill-opacity="0.000" class="geometry" id="img-9c72b6d4-10">
          <g class="color_RGB{N0f8}(0.0,0.0,0.0)" stroke-dasharray="2,1" stroke="#000000" id="img-9c72b6d4-11">
            <g transform="translate(172.28,27.86)">
              <path fill="none" d="M0,20.86 L 0 -20.86" class="primitive"/>
            </g>
          </g>
        </g>
        <g stroke-width="0.3" fill="#000000" fill-opacity="0.000" class="geometry" id="img-9c72b6d4-12">
          <g class="color_RGB{N0f8}(0.0,0.0,0.0)" stroke-dasharray="none" stroke="#000000" id="img-9c72b6d4-13">
            <g transform="translate(182.75,18.19)">
              <path fill="none" d="M-20.25,-11.19 L -20.04 -11.19 -19.84 -11.19 -19.64 -11.19 -19.43 -11.19 -19.23 -11.19 -19.02 -11.19 -18.82 -11.19 -18.62 -11.19 -18.41 -11.19 -18.21 -11.19 -18.01 -11.19 -17.8 -11.19 -17.6 -11.19 -17.4 -11.19 -17.19 -11.19 -16.99 -11.19 -16.79 -11.19 -16.58 -11.19 -16.38 -11.19 -16.18 -11.19 -15.97 -11.19 -15.77 -11.19 -15.57 -11.19 -15.36 -11.19 -15.16 -11.19 -14.96 -11.19 -14.75 -11.19 -14.55 -11.19 -14.34 -11.19 -14.14 -11.19 -13.94 -11.19 -13.73 -11.19 -13.53 -11.19 -13.33 -11.19 -13.12 -11.19 -12.92 -11.19 -12.72 -11.19 -12.51 -11.19 -12.31 -11.19 -12.11 -11.19 -11.9 -11.19 -11.7 -11.19 -11.5 -11.19 -11.29 -11.19 -11.09 -11.19 -10.89 -11.19 -10.68 -11.19 -10.48 -11.19 -10.28 -11.19 -10.07 -10.59 -9.87 -10.02 -9.67 -9.46 -9.46 -8.94 -9.26 -8.43 -9.05 -7.94 -8.85 -7.47 -8.65 -7.02 -8.44 -6.59 -8.24 -6.17 -8.04 -5.77 -7.83 -5.38 -7.63 -5 -7.43 -4.64 -7.22 -4.29 -7.02 -3.95 -6.82 -3.63 -6.61 -3.31 -6.41 -3.01 -6.21 -2.71 -6 -2.42 -5.8 -2.15 -5.6 -1.88 -5.39 -1.62 -5.19 -1.36 -4.99 -1.12 -4.78 -0.88 -4.58 -0.65 -4.37 -0.43 -4.17 -0.21 -3.97 0 -3.76 0.21 -3.56 0.41 -3.36 0.6 -3.15 0.79 -2.95 0.98 -2.75 1.16 -2.54 1.33 -2.34 1.5 -2.14 1.67 -1.93 1.83 -1.73 1.99 -1.53 2.14 -1.32 2.29 -1.12 2.43 -0.92 2.58 -0.71 2.72 -0.51 2.85 -0.31 2.98 -0.1 3.11 0.1 3.24 0.31 3.36 0.51 3.48 0.71 3.6 0.92 3.71 1.12 3.82 1.32 3.93 1.53 4.04 1.73 4.14 1.93 4.25 2.14 4.35 2.34 4.44 2.54 4.54 2.75 4.63 2.95 4.72 3.15 4.81 3.36 4.9 3.56 4.99 3.76 5.07 3.97 5.15 4.17 5.23 4.37 5.31 4.58 5.39 4.78 5.46 4.99 5.54 5.19 5.61 5.39 5.68 5.6 5.75 5.8 5.82 6 5.89 6.21 5.95 6.41 6.02 6.61 6.08 6.82 6.14 7.02 6.2 7.22 6.26 7.43 6.32 7.63 6.37 7.83 6.43 8.04 6.49 8.24 6.54 8.44 6.59 8.65 6.64 8.85 6.69 9.05 6.74 9.26 6.79 9.46 6.84 9.67 6.89 9.87 6.93 10.07 6.98 10.28 7.02 10.48 7.07 10.68 7.11 10.89 7.15 11.09 7.19 11.29 7.23 11.5 7.27 11.7 7.31 11.9 7.35 12.11 7.39 12.31 7.43 12.51 7.46 12.72 7.5 12.92 7.53 13.12 7.57 13.33 7.6 13.53 7.64 13.73 7.67 13.94 7.7 14.14 7.73 14.34 7.76 14.55 7.79 14.75 7.82 14.96 7.85 15.16 7.88 15.36 7.91 15.57 7.94 15.77 7.97 15.97 7.99 16.18 8.02 16.38 8.05 16.58 8.07 16.79 8.1 16.99 8.12 17.19 8.15 17.4 8.17 17.6 8.19 17.8 8.22 18.01 8.24 18.21 8.26 18.41 8.28 18.62 8.3 18.82 8.33 19.02 8.35 19.23 8.37 19.43 8.39 19.64 8.41 19.84 8.43 20.04 8.45 20.25 8.47" class="primitive"/>
            </g>
          </g>
        </g>
      </g>
    </g>
  </g>
  <g class="guide ylabels" font-size="2.82" font-family="'PT Sans Caption','Helvetica Neue','Helvetica',sans-serif" fill="#6C606B" id="img-9c72b6d4-14">
    <g transform="translate(159.3,48.72)">
      <g class="primitive">
        <text text-anchor="end" dy="0.35em">0.00</text>
      </g>
    </g>
    <g transform="translate(159.3,34.81)">
      <g class="primitive">
        <text text-anchor="end" dy="0.35em">0.05</text>
      </g>
    </g>
    <g transform="translate(159.3,20.9)">
      <g class="primitive">
        <text text-anchor="end" dy="0.35em">0.10</text>
      </g>
    </g>
    <g transform="translate(159.3,7)">
      <g class="primitive">
        <text text-anchor="end" dy="0.35em">0.15</text>
      </g>
    </g>
  </g>
  <g font-size="3.88" font-family="'PT Sans','Helvetica Neue','Helvetica',sans-serif" fill="#564A55" stroke="#000000" stroke-opacity="0.000" id="img-9c72b6d4-15">
    <g transform="translate(148.81,25.86)">
      <g class="primitive">
        <text text-anchor="middle" dy="0.35em" transform="rotate(-90,0, 2)">Y/K</text>
      </g>
    </g>
  </g>
</g>
<g class="plotroot xscalable yscalable" id="img-9c72b6d4-16">
  <g font-size="3.88" font-family="'PT Sans','Helvetica Neue','Helvetica',sans-serif" fill="#564A55" stroke="#000000" stroke-opacity="0.000" id="img-9c72b6d4-17">
    <g transform="translate(112.32,58.39)">
      <g class="primitive">
        <text text-anchor="middle" dy="0.6em">Time</text>
      </g>
    </g>
  </g>
  <g class="guide xlabels" font-size="2.82" font-family="'PT Sans Caption','Helvetica Neue','Helvetica',sans-serif" fill="#6C606B" id="img-9c72b6d4-18">
    <g transform="translate(91.63,51.72)">
      <g class="primitive">
        <text text-anchor="middle" dy="0.6em">0</text>
      </g>
    </g>
    <g transform="translate(101.97,51.72)">
      <g class="primitive">
        <text text-anchor="middle" dy="0.6em">50</text>
      </g>
    </g>
    <g transform="translate(112.32,51.72)">
      <g class="primitive">
        <text text-anchor="middle" dy="0.6em">100</text>
      </g>
    </g>
    <g transform="translate(122.66,51.72)">
      <g class="primitive">
        <text text-anchor="middle" dy="0.6em">150</text>
      </g>
    </g>
    <g transform="translate(133,51.72)">
      <g class="primitive">
        <text text-anchor="middle" dy="0.6em">200</text>
      </g>
    </g>
  </g>
  <g clip-path="url(#img-9c72b6d4-19)">
    <g id="img-9c72b6d4-20">
      <g pointer-events="visible" fill-opacity="0" fill="#000000" fill-opacity="0.000" stroke="#000000" stroke-opacity="0.000" class="guide background" id="img-9c72b6d4-21">
        <g transform="translate(112.32,27.86)">
          <path d="M-22.68,-22.86 L 22.68 -22.86 22.68 22.86 -22.68 22.86 z" class="primitive"/>
        </g>
      </g>
      <g class="guide ygridlines xfixed" stroke-dasharray="0.5,0.5" stroke-width="0.2" stroke="#D0D0E0" id="img-9c72b6d4-22">
        <g transform="translate(112.32,48.72)">
          <path fill="none" d="M-22.68,0 L 22.68 0" class="primitive"/>
        </g>
        <g transform="translate(112.32,34.81)">
          <path fill="none" d="M-22.68,0 L 22.68 0" class="primitive"/>
        </g>
        <g transform="translate(112.32,20.91)">
          <path fill="none" d="M-22.68,0 L 22.68 0" class="primitive"/>
        </g>
        <g transform="translate(112.32,7)">
          <path fill="none" d="M-22.68,0 L 22.68 0" class="primitive"/>
        </g>
      </g>
      <g class="guide xgridlines yfixed" stroke-dasharray="0.5,0.5" stroke-width="0.2" stroke="#D0D0E0" id="img-9c72b6d4-23">
        <g transform="translate(91.63,27.86)">
          <path fill="none" d="M0,-22.86 L 0 22.86" class="primitive"/>
        </g>
        <g transform="translate(101.97,27.86)">
          <path fill="none" d="M0,-22.86 L 0 22.86" class="primitive"/>
        </g>
        <g transform="translate(112.32,27.86)">
          <path fill="none" d="M0,-22.86 L 0 22.86" class="primitive"/>
        </g>
        <g transform="translate(122.66,27.86)">
          <path fill="none" d="M0,-22.86 L 0 22.86" class="primitive"/>
        </g>
        <g transform="translate(133,27.86)">
          <path fill="none" d="M0,-22.86 L 0 22.86" class="primitive"/>
        </g>
      </g>
      <g class="plotpanel" id="img-9c72b6d4-24">
        <metadata>
          <boundingbox value="89.63166666666666mm 5.0mm 45.36833333333333mm 45.715mm"/>
          <unitbox value="-9.669231698964586 157.19165767709458 219.33846339792916 -164.38331535418914"/>
        </metadata>
        <g stroke-width="0.3" fill="#000000" fill-opacity="0.000" class="geometry" id="img-9c72b6d4-25">
          <g class="color_RGB{N0f8}(0.0,0.0,0.0)" stroke-dasharray="2,1" stroke="#000000" id="img-9c72b6d4-26">
            <g transform="translate(101.77,40.37)">
              <path fill="none" d="M0,8.34 L 0 -8.34" class="primitive"/>
            </g>
          </g>
        </g>
        <g stroke-width="0.3" fill="#000000" fill-opacity="0.000" class="geometry" id="img-9c72b6d4-27">
          <g class="color_RGB{N0f8}(0.0,0.0,0.0)" stroke-dasharray="none" stroke="#000000" id="img-9c72b6d4-28">
            <g transform="translate(112.42,24.51)">
              <path fill="none" d="M-20.58,7.52 L -20.37 7.52 -20.17 7.52 -19.96 7.52 -19.75 7.52 -19.55 7.52 -19.34 7.52 -19.13 7.52 -18.93 7.52 -18.72 7.52 -18.51 7.52 -18.31 7.52 -18.1 7.52 -17.89 7.52 -17.68 7.52 -17.48 7.52 -17.27 7.52 -17.06 7.52 -16.86 7.52 -16.65 7.52 -16.44 7.52 -16.24 7.52 -16.03 7.52 -15.82 7.52 -15.62 7.52 -15.41 7.52 -15.2 7.52 -15 7.52 -14.79 7.52 -14.58 7.52 -14.38 7.52 -14.17 7.52 -13.96 7.52 -13.75 7.52 -13.55 7.52 -13.34 7.52 -13.13 7.52 -12.93 7.52 -12.72 7.52 -12.51 7.52 -12.31 7.52 -12.1 7.52 -11.89 7.52 -11.69 7.52 -11.48 7.52 -11.27 7.52 -11.07 7.52 -10.86 7.52 -10.65 7.52 -10.45 7.52 -10.24 7.27 -10.03 7.03 -9.82 6.8 -9.62 6.56 -9.41 6.33 -9.2 6.11 -9 5.88 -8.79 5.66 -8.58 5.45 -8.38 5.23 -8.17 5.02 -7.96 4.82 -7.76 4.61 -7.55 4.41 -7.34 4.21 -7.14 4.01 -6.93 3.82 -6.72 3.63 -6.52 3.44 -6.31 3.26 -6.1 3.08 -5.89 2.9 -5.69 2.72 -5.48 2.55 -5.27 2.38 -5.07 2.21 -4.86 2.04 -4.65 1.88 -4.45 1.71 -4.24 1.55 -4.03 1.4 -3.83 1.24 -3.62 1.09 -3.41 0.94 -3.21 0.79 -3 0.65 -2.79 0.5 -2.59 0.36 -2.38 0.22 -2.17 0.08 -1.96 -0.05 -1.76 -0.19 -1.55 -0.32 -1.34 -0.45 -1.14 -0.58 -0.93 -0.7 -0.72 -0.83 -0.52 -0.95 -0.31 -1.07 -0.1 -1.19 0.1 -1.31 0.31 -1.42 0.52 -1.53 0.72 -1.65 0.93 -1.76 1.14 -1.87 1.34 -1.97 1.55 -2.08 1.76 -2.18 1.96 -2.29 2.17 -2.39 2.38 -2.49 2.59 -2.58 2.79 -2.68 3 -2.78 3.21 -2.87 3.41 -2.96 3.62 -3.05 3.83 -3.14 4.03 -3.23 4.24 -3.32 4.45 -3.4 4.65 -3.49 4.86 -3.57 5.07 -3.65 5.27 -3.74 5.48 -3.82 5.69 -3.89 5.89 -3.97 6.1 -4.05 6.31 -4.12 6.52 -4.2 6.72 -4.27 6.93 -4.34 7.14 -4.41 7.34 -4.48 7.55 -4.55 7.76 -4.62 7.96 -4.69 8.17 -4.75 8.38 -4.82 8.58 -4.88 8.79 -4.94 9 -5.01 9.2 -5.07 9.41 -5.13 9.62 -5.19 9.82 -5.25 10.03 -5.3 10.24 -5.36 10.45 -5.42 10.65 -5.47 10.86 -5.53 11.07 -5.58 11.27 -5.63 11.48 -5.68 11.69 -5.73 11.89 -5.79 12.1 -5.83 12.31 -5.88 12.51 -5.93 12.72 -5.98 12.93 -6.03 13.13 -6.07 13.34 -6.12 13.55 -6.16 13.75 -6.21 13.96 -6.25 14.17 -6.29 14.38 -6.34 14.58 -6.38 14.79 -6.42 15 -6.46 15.2 -6.5 15.41 -6.54 15.62 -6.58 15.82 -6.61 16.03 -6.65 16.24 -6.69 16.44 -6.73 16.65 -6.76 16.86 -6.8 17.06 -6.83 17.27 -6.87 17.48 -6.9 17.68 -6.93 17.89 -6.97 18.1 -7 18.31 -7.03 18.51 -7.06 18.72 -7.09 18.93 -7.12 19.13 -7.15 19.34 -7.18 19.55 -7.21 19.75 -7.24 19.96 -7.27 20.17 -7.3 20.37 -7.32 20.58 -7.35" class="primitive"/>
            </g>
          </g>
        </g>
      </g>
    </g>
  </g>
  <g class="guide ylabels" font-size="2.82" font-family="'PT Sans Caption','Helvetica Neue','Helvetica',sans-serif" fill="#6C606B" id="img-9c72b6d4-29">
    <g transform="translate(88.63,48.72)">
      <g class="primitive">
        <text text-anchor="end" dy="0.35em">0</text>
      </g>
    </g>
    <g transform="translate(88.63,34.81)">
      <g class="primitive">
        <text text-anchor="end" dy="0.35em">50</text>
      </g>
    </g>
    <g transform="translate(88.63,20.91)">
      <g class="primitive">
        <text text-anchor="end" dy="0.35em">100</text>
      </g>
    </g>
    <g transform="translate(88.63,7)">
      <g class="primitive">
        <text text-anchor="end" dy="0.35em">150</text>
      </g>
    </g>
  </g>
  <g font-size="3.88" font-family="'PT Sans','Helvetica Neue','Helvetica',sans-serif" fill="#564A55" stroke="#000000" stroke-opacity="0.000" id="img-9c72b6d4-30">
    <g transform="translate(78.81,25.86)">
      <g class="primitive">
        <text text-anchor="middle" dy="0.35em" transform="rotate(-90,0, 2)">Y/L</text>
      </g>
    </g>
  </g>
</g>
<g class="plotroot xscalable yscalable" id="img-9c72b6d4-31">
  <g font-size="3.88" font-family="'PT Sans','Helvetica Neue','Helvetica',sans-serif" fill="#564A55" stroke="#000000" stroke-opacity="0.000" id="img-9c72b6d4-32">
    <g transform="translate(43.15,58.39)">
      <g class="primitive">
        <text text-anchor="middle" dy="0.6em">Time</text>
      </g>
    </g>
  </g>
  <g class="guide xlabels" font-size="2.82" font-family="'PT Sans Caption','Helvetica Neue','Helvetica',sans-serif" fill="#6C606B" id="img-9c72b6d4-33">
    <g transform="translate(23.3,51.72)">
      <g class="primitive">
        <text text-anchor="middle" dy="0.6em">0</text>
      </g>
    </g>
    <g transform="translate(33.23,51.72)">
      <g class="primitive">
        <text text-anchor="middle" dy="0.6em">50</text>
      </g>
    </g>
    <g transform="translate(43.15,51.72)">
      <g class="primitive">
        <text text-anchor="middle" dy="0.6em">100</text>
      </g>
    </g>
    <g transform="translate(53.08,51.72)">
      <g class="primitive">
        <text text-anchor="middle" dy="0.6em">150</text>
      </g>
    </g>
    <g transform="translate(63,51.72)">
      <g class="primitive">
        <text text-anchor="middle" dy="0.6em">200</text>
      </g>
    </g>
  </g>
  <g clip-path="url(#img-9c72b6d4-34)">
    <g id="img-9c72b6d4-35">
      <g pointer-events="visible" fill-opacity="0" fill="#000000" fill-opacity="0.000" stroke="#000000" stroke-opacity="0.000" class="guide background" id="img-9c72b6d4-36">
        <g transform="translate(43.15,27.86)">
          <path d="M-21.85,-22.86 L 21.85 -22.86 21.85 22.86 -21.85 22.86 z" class="primitive"/>
        </g>
      </g>
      <g class="guide ygridlines xfixed" stroke-dasharray="0.5,0.5" stroke-width="0.2" stroke="#D0D0E0" id="img-9c72b6d4-37">
        <g transform="translate(43.15,48.72)">
          <path fill="none" d="M-21.85,0 L 21.85 0" class="primitive"/>
        </g>
        <g transform="translate(43.15,34.81)">
          <path fill="none" d="M-21.85,0 L 21.85 0" class="primitive"/>
        </g>
        <g transform="translate(43.15,20.9)">
          <path fill="none" d="M-21.85,0 L 21.85 0" class="primitive"/>
        </g>
        <g transform="translate(43.15,7)">
          <path fill="none" d="M-21.85,0 L 21.85 0" class="primitive"/>
        </g>
      </g>
      <g class="guide xgridlines yfixed" stroke-dasharray="0.5,0.5" stroke-width="0.2" stroke="#D0D0E0" id="img-9c72b6d4-38">
        <g transform="translate(23.3,27.86)">
          <path fill="none" d="M0,-22.86 L 0 22.86" class="primitive"/>
        </g>
        <g transform="translate(33.23,27.86)">
          <path fill="none" d="M0,-22.86 L 0 22.86" class="primitive"/>
        </g>
        <g transform="translate(43.15,27.86)">
          <path fill="none" d="M0,-22.86 L 0 22.86" class="primitive"/>
        </g>
        <g transform="translate(53.08,27.86)">
          <path fill="none" d="M0,-22.86 L 0 22.86" class="primitive"/>
        </g>
        <g transform="translate(63,27.86)">
          <path fill="none" d="M0,-22.86 L 0 22.86" class="primitive"/>
        </g>
      </g>
      <g class="plotpanel" id="img-9c72b6d4-39">
        <metadata>
          <boundingbox value="21.305mm 5.0mm 43.695mm 45.715mm"/>
          <unitbox value="-10.07683587353571 1571.9165767709458 220.15367174707143 -1643.8331535418913"/>
        </metadata>
        <g stroke-width="0.3" fill="#000000" fill-opacity="0.000" class="geometry" id="img-9c72b6d4-40">
          <g class="color_RGB{N0f8}(0.0,0.0,0.0)" stroke-dasharray="2,1" stroke="#000000" id="img-9c72b6d4-41">
            <g transform="translate(33.03,43.15)">
              <path fill="none" d="M0,5.56 L 0 -5.56" class="primitive"/>
            </g>
          </g>
        </g>
        <g stroke-width="0.3" fill="#000000" fill-opacity="0.000" class="geometry" id="img-9c72b6d4-42">
          <g class="color_RGB{N0f8}(0.0,0.0,0.0)" stroke-dasharray="none" stroke="#000000" id="img-9c72b6d4-43">
            <g transform="translate(43.25,24.05)">
              <path fill="none" d="M-19.75,13.54 L -19.55 13.54 -19.35 13.54 -19.15 13.54 -18.95 13.54 -18.76 13.54 -18.56 13.54 -18.36 13.54 -18.16 13.54 -17.96 13.54 -17.76 13.54 -17.57 13.54 -17.37 13.54 -17.17 13.54 -16.97 13.54 -16.77 13.54 -16.57 13.54 -16.37 13.54 -16.18 13.54 -15.98 13.54 -15.78 13.54 -15.58 13.54 -15.38 13.54 -15.18 13.54 -14.98 13.54 -14.79 13.54 -14.59 13.54 -14.39 13.54 -14.19 13.54 -13.99 13.54 -13.79 13.54 -13.6 13.54 -13.4 13.54 -13.2 13.54 -13 13.54 -12.8 13.54 -12.6 13.54 -12.4 13.54 -12.21 13.54 -12.01 13.54 -11.81 13.54 -11.61 13.54 -11.41 13.54 -11.21 13.54 -11.02 13.54 -10.82 13.54 -10.62 13.54 -10.42 13.54 -10.22 13.54 -10.02 13.54 -9.82 13.21 -9.63 12.88 -9.43 12.56 -9.23 12.23 -9.03 11.9 -8.83 11.58 -8.63 11.25 -8.44 10.93 -8.24 10.61 -8.04 10.28 -7.84 9.96 -7.64 9.64 -7.44 9.32 -7.24 9.01 -7.05 8.69 -6.85 8.38 -6.65 8.06 -6.45 7.75 -6.25 7.44 -6.05 7.14 -5.86 6.83 -5.66 6.53 -5.46 6.22 -5.26 5.92 -5.06 5.63 -4.86 5.33 -4.66 5.04 -4.47 4.74 -4.27 4.45 -4.07 4.17 -3.87 3.88 -3.67 3.6 -3.47 3.32 -3.27 3.04 -3.08 2.76 -2.88 2.49 -2.68 2.22 -2.48 1.95 -2.28 1.68 -2.08 1.42 -1.89 1.15 -1.69 0.89 -1.49 0.64 -1.29 0.38 -1.09 0.13 -0.89 -0.12 -0.69 -0.37 -0.5 -0.61 -0.3 -0.86 -0.1 -1.1 0.1 -1.34 0.3 -1.57 0.5 -1.81 0.69 -2.04 0.89 -2.26 1.09 -2.49 1.29 -2.71 1.49 -2.94 1.69 -3.15 1.89 -3.37 2.08 -3.59 2.28 -3.8 2.48 -4.01 2.68 -4.21 2.88 -4.42 3.08 -4.62 3.27 -4.82 3.47 -5.02 3.67 -5.22 3.87 -5.41 4.07 -5.6 4.27 -5.79 4.47 -5.98 4.66 -6.16 4.86 -6.35 5.06 -6.53 5.26 -6.7 5.46 -6.88 5.66 -7.05 5.86 -7.23 6.05 -7.4 6.25 -7.56 6.45 -7.73 6.65 -7.89 6.85 -8.06 7.05 -8.22 7.24 -8.37 7.44 -8.53 7.64 -8.68 7.84 -8.84 8.04 -8.99 8.24 -9.13 8.44 -9.28 8.63 -9.43 8.83 -9.57 9.03 -9.71 9.23 -9.85 9.43 -9.99 9.63 -10.12 9.82 -10.26 10.02 -10.39 10.22 -10.52 10.42 -10.65 10.62 -10.78 10.82 -10.9 11.02 -11.03 11.21 -11.15 11.41 -11.27 11.61 -11.39 11.81 -11.51 12.01 -11.62 12.21 -11.74 12.4 -11.85 12.6 -11.96 12.8 -12.07 13 -12.18 13.2 -12.29 13.4 -12.39 13.6 -12.5 13.79 -12.6 13.99 -12.7 14.19 -12.8 14.39 -12.9 14.59 -13 14.79 -13.1 14.98 -13.19 15.18 -13.28 15.38 -13.38 15.58 -13.47 15.78 -13.56 15.98 -13.65 16.18 -13.73 16.37 -13.82 16.57 -13.91 16.77 -13.99 16.97 -14.07 17.17 -14.15 17.37 -14.24 17.57 -14.31 17.76 -14.39 17.96 -14.47 18.16 -14.55 18.36 -14.62 18.56 -14.7 18.76 -14.77 18.95 -14.84 19.15 -14.91 19.35 -14.98 19.55 -15.05 19.75 -15.12" class="primitive"/>
            </g>
          </g>
        </g>
      </g>
    </g>
  </g>
  <g class="guide ylabels" font-size="2.82" font-family="'PT Sans Caption','Helvetica Neue','Helvetica',sans-serif" fill="#6C606B" id="img-9c72b6d4-44">
    <g transform="translate(20.3,48.72)">
      <g class="primitive">
        <text text-anchor="end" dy="0.35em">0</text>
      </g>
    </g>
    <g transform="translate(20.3,34.81)">
      <g class="primitive">
        <text text-anchor="end" dy="0.35em">500</text>
      </g>
    </g>
    <g transform="translate(20.3,20.9)">
      <g class="primitive">
        <text text-anchor="end" dy="0.35em">1000</text>
      </g>
    </g>
    <g transform="translate(20.3,7)">
      <g class="primitive">
        <text text-anchor="end" dy="0.35em">1500</text>
      </g>
    </g>
  </g>
  <g font-size="3.88" font-family="'PT Sans','Helvetica Neue','Helvetica',sans-serif" fill="#564A55" stroke="#000000" stroke-opacity="0.000" id="img-9c72b6d4-45">
    <g transform="translate(8.81,25.86)">
      <g class="primitive">
        <text text-anchor="middle" dy="0.35em" transform="rotate(-90,0, 2)">K/L</text>
      </g>
    </g>
  </g>
</g>
<defs>
  <clipPath id="img-9c72b6d4-4">
    <path d="M160.3,5 L 205 5 205 50.72 160.3 50.72" />
  </clipPath>
  <clipPath id="img-9c72b6d4-19">
    <path d="M89.63,5 L 135 5 135 50.72 89.63 50.72" />
  </clipPath>
  <clipPath id="img-9c72b6d4-34">
    <path d="M21.3,5 L 65 5 65 50.72 21.3 50.72" />
  </clipPath>
</defs>
</svg>
