<?xml version="1.0" encoding="UTF-8"?>
<svg xmlns="http://www.w3.org/2000/svg"
     xmlns:xlink="http://www.w3.org/1999/xlink"
     xmlns:gadfly="http://www.gadflyjl.org/ns"
     version="1.2"
     width="210mm" height="70mm" viewBox="0 0 210 70"
     stroke="none"
     fill="#000000"
     stroke-width="0.3"
     font-size="3.88"
>
<g class="plotroot xscalable yscalable" id="img-547c2967-1">
  <g font-size="3.88" font-family="'PT Sans','Helvetica Neue','Helvetica',sans-serif" fill="#564A55" stroke="#000000" stroke-opacity="0.000" id="img-547c2967-2">
    <g transform="translate(181.48,58.39)">
      <g class="primitive">
        <text text-anchor="middle" dy="0.6em">Time</text>
      </g>
    </g>
  </g>
  <g class="guide xlabels" font-size="2.82" font-family="'PT Sans Caption','Helvetica Neue','Helvetica',sans-serif" fill="#6C606B" id="img-547c2967-3">
    <g transform="translate(159.96,51.72)">
      <g class="primitive">
        <text text-anchor="middle" dy="0.6em">0</text>
      </g>
    </g>
    <g transform="translate(170.72,51.72)">
      <g class="primitive">
        <text text-anchor="middle" dy="0.6em">50</text>
      </g>
    </g>
    <g transform="translate(181.48,51.72)">
      <g class="primitive">
        <text text-anchor="middle" dy="0.6em">100</text>
      </g>
    </g>
    <g transform="translate(192.24,51.72)">
      <g class="primitive">
        <text text-anchor="middle" dy="0.6em">150</text>
      </g>
    </g>
    <g transform="translate(203,51.72)">
      <g class="primitive">
        <text text-anchor="middle" dy="0.6em">200</text>
      </g>
    </g>
  </g>
  <g clip-path="url(#img-547c2967-4)">
    <g id="img-547c2967-5">
      <g pointer-events="visible" fill-opacity="0" fill="#000000" fill-opacity="0.000" stroke="#000000" stroke-opacity="0.000" class="guide background" id="img-547c2967-6">
        <g transform="translate(181.48,27.86)">
          <path d="M-23.52,-22.86 L 23.52 -22.86 23.52 22.86 -23.52 22.86 z" class="primitive"/>
        </g>
      </g>
      <g class="guide ygridlines xfixed" stroke-dasharray="0.5,0.5" stroke-width="0.2" stroke="#D0D0E0" id="img-547c2967-7">
        <g transform="translate(181.48,48.72)">
          <path fill="none" d="M-23.52,0 L 23.52 0" class="primitive"/>
        </g>
        <g transform="translate(181.48,34.81)">
          <path fill="none" d="M-23.52,0 L 23.52 0" class="primitive"/>
        </g>
        <g transform="translate(181.48,20.9)">
          <path fill="none" d="M-23.52,0 L 23.52 0" class="primitive"/>
        </g>
        <g transform="translate(181.48,7)">
          <path fill="none" d="M-23.52,0 L 23.52 0" class="primitive"/>
        </g>
      </g>
      <g class="guide xgridlines yfixed" stroke-dasharray="0.5,0.5" stroke-width="0.2" stroke="#D0D0E0" id="img-547c2967-8">
        <g transform="translate(159.96,27.86)">
          <path fill="none" d="M0,-22.86 L 0 22.86" class="primitive"/>
        </g>
        <g transform="translate(170.72,27.86)">
          <path fill="none" d="M0,-22.86 L 0 22.86" class="primitive"/>
        </g>
        <g transform="translate(181.48,27.86)">
          <path fill="none" d="M0,-22.86 L 0 22.86" class="primitive"/>
        </g>
        <g transform="translate(192.24,27.86)">
          <path fill="none" d="M0,-22.86 L 0 22.86" class="primitive"/>
        </g>
        <g transform="translate(203,27.86)">
          <path fill="none" d="M0,-22.86 L 0 22.86" class="primitive"/>
        </g>
      </g>
      <g class="plotpanel" id="img-547c2967-9">
        <metadata>
          <boundingbox value="157.95833333333331mm 5.0mm 47.04166666666667mm 45.715mm"/>
          <unitbox value="-9.293320425943852 15.719165767709457 218.58664085188772 -16.438331535418914"/>
        </metadata>
        <g stroke-width="0.3" fill="#000000" fill-opacity="0.000" class="geometry" id="img-547c2967-10">
          <g class="color_RGB{N0f8}(0.0,0.0,0.0)" stroke-dasharray="2,1" stroke="#000000" id="img-547c2967-11">
            <g transform="translate(168.57,43.71)">
              <path fill="none" d="M0,5.01 L 0 -5.01" class="primitive"/>
            </g>
          </g>
        </g>
        <g stroke-width="0.3" fill="#000000" fill-opacity="0.000" class="geometry" id="img-547c2967-12">
          <g class="color_RGB{N0f8}(0.0,0.0,0.0)" stroke-dasharray="none" stroke="#000000" id="img-547c2967-13">
            <g transform="translate(181.59,16.76)">
              <path fill="none" d="M-21.41,21.95 L -21.2 21.95 -20.98 21.95 -20.77 21.95 -20.55 21.95 -20.34 21.95 -20.12 21.95 -19.91 21.95 -19.69 21.95 -19.48 21.95 -19.26 21.95 -19.05 21.95 -18.83 21.95 -18.62 21.95 -18.4 21.95 -18.19 21.95 -17.97 21.95 -17.75 21.95 -17.54 21.95 -17.32 21.95 -17.11 21.95 -16.89 21.95 -16.68 21.95 -16.46 21.95 -16.25 21.95 -16.03 21.95 -15.82 21.95 -15.6 21.95 -15.39 21.95 -15.17 21.95 -14.96 21.95 -14.74 21.95 -14.53 21.95 -14.31 21.95 -14.1 21.95 -13.88 21.95 -13.67 21.95 -13.45 21.95 -13.24 21.95 -13.02 21.95 -12.8 11.93 -12.59 10.99 -12.37 10.08 -12.16 9.21 -11.94 8.39 -11.73 7.6 -11.51 6.85 -11.3 6.14 -11.08 5.46 -10.87 4.81 -10.65 4.19 -10.44 3.6 -10.22 3.04 -10.01 2.5 -9.79 1.99 -9.58 1.51 -9.36 1.04 -9.15 0.6 -8.93 0.18 -8.72 -0.21 -8.5 -0.59 -8.29 -0.96 -8.07 -1.3 -7.86 -1.63 -7.64 -1.94 -7.42 -2.24 -7.21 -2.52 -6.99 -2.79 -6.78 -3.05 -6.56 -3.29 -6.35 -3.52 -6.13 -3.74 -5.92 -3.95 -5.7 -4.15 -5.49 -4.34 -5.27 -4.53 -5.06 -4.7 -4.84 -4.86 -4.63 -5.02 -4.41 -5.17 -4.2 -5.31 -3.98 -5.44 -3.77 -5.57 -3.55 -5.69 -3.34 -5.81 -3.12 -5.92 -2.91 -6.03 -2.69 -6.13 -2.47 -6.22 -2.26 -6.31 -2.04 -6.4 -1.83 -6.48 -1.61 -6.56 -1.4 -6.63 -1.18 -6.7 -0.97 -6.77 -0.75 -6.83 -0.54 -6.89 -0.32 -6.95 -0.11 -7.01 0.11 -7.06 0.32 -7.11 0.54 -7.16 0.75 -7.2 0.97 -7.25 1.18 -7.29 1.4 -7.33 1.61 -7.36 1.83 -7.4 2.04 -7.43 2.26 -7.46 2.47 -7.49 2.69 -7.52 2.91 -7.55 3.12 -7.58 3.34 -7.6 3.55 -7.62 3.77 -7.65 3.98 -7.67 4.2 -7.69 4.41 -7.71 4.63 -7.73 4.84 -7.74 5.06 -7.76 5.27 -7.78 5.49 -7.79 5.7 -7.81 5.92 -7.82 6.13 -7.83 6.35 -7.85 6.56 -7.86 6.78 -7.87 6.99 -7.88 7.21 -7.89 7.42 -7.9 7.64 -7.91 7.86 -7.92 8.07 -7.93 8.29 -7.93 8.5 -7.94 8.72 -7.95 8.93 -7.95 9.15 -7.96 9.36 -7.97 9.58 -7.97 9.79 -7.98 10.01 -7.98 10.22 -7.99 10.44 -7.99 10.65 -8 10.87 -8 11.08 -8.01 11.3 -8.01 11.51 -8.01 11.73 -8.02 11.94 -8.02 12.16 -8.02 12.37 -8.03 12.59 -8.03 12.8 -8.03 13.02 -8.04 13.24 -8.04 13.45 -8.04 13.67 -8.04 13.88 -8.05 14.1 -8.05 14.31 -8.05 14.53 -8.05 14.74 -8.05 14.96 -8.06 15.17 -8.06 15.39 -8.06 15.6 -8.06 15.82 -8.06 16.03 -8.06 16.25 -8.06 16.46 -8.06 16.68 -8.07 16.89 -8.07 17.11 -8.07 17.32 -8.07 17.54 -8.07 17.75 -8.07 17.97 -8.07 18.19 -8.07 18.4 -8.07 18.62 -8.07 18.83 -8.07 19.05 -8.08 19.26 -8.08 19.48 -8.08 19.69 -8.08 19.91 -8.08 20.12 -8.08 20.34 -8.08 20.55 -8.08 20.77 -8.08 20.98 -8.08 21.2 -8.08 21.41 -8.08" class="primitive"/>
            </g>
          </g>
        </g>
      </g>
    </g>
  </g>
  <g class="guide ylabels" font-size="2.82" font-family="'PT Sans Caption','Helvetica Neue','Helvetica',sans-serif" fill="#6C606B" id="img-547c2967-14">
    <g transform="translate(156.96,48.72)">
      <g class="primitive">
        <text text-anchor="end" dy="0.35em">0</text>
      </g>
    </g>
    <g transform="translate(156.96,34.81)">
      <g class="primitive">
        <text text-anchor="end" dy="0.35em">5</text>
      </g>
    </g>
    <g transform="translate(156.96,20.9)">
      <g class="primitive">
        <text text-anchor="end" dy="0.35em">10</text>
      </g>
    </g>
    <g transform="translate(156.96,7)">
      <g class="primitive">
        <text text-anchor="end" dy="0.35em">15</text>
      </g>
    </g>
  </g>
  <g font-size="3.88" font-family="'PT Sans','Helvetica Neue','Helvetica',sans-serif" fill="#564A55" stroke="#000000" stroke-opacity="0.000" id="img-547c2967-15">
    <g transform="translate(148.81,25.86)">
      <g class="primitive">
        <text text-anchor="middle" dy="0.35em" transform="rotate(-90,0, 2)">Consumption per capita, c</text>
      </g>
    </g>
  </g>
</g>
<g class="plotroot xscalable yscalable" id="img-547c2967-16">
  <g font-size="3.88" font-family="'PT Sans','Helvetica Neue','Helvetica',sans-serif" fill="#564A55" stroke="#000000" stroke-opacity="0.000" id="img-547c2967-17">
    <g transform="translate(111.48,58.39)">
      <g class="primitive">
        <text text-anchor="middle" dy="0.6em">Time</text>
      </g>
    </g>
  </g>
  <g class="guide xlabels" font-size="2.82" font-family="'PT Sans Caption','Helvetica Neue','Helvetica',sans-serif" fill="#6C606B" id="img-547c2967-18">
    <g transform="translate(89.96,51.72)">
      <g class="primitive">
        <text text-anchor="middle" dy="0.6em">0</text>
      </g>
    </g>
    <g transform="translate(100.72,51.72)">
      <g class="primitive">
        <text text-anchor="middle" dy="0.6em">50</text>
      </g>
    </g>
    <g transform="translate(111.48,51.72)">
      <g class="primitive">
        <text text-anchor="middle" dy="0.6em">100</text>
      </g>
    </g>
    <g transform="translate(122.24,51.72)">
      <g class="primitive">
        <text text-anchor="middle" dy="0.6em">150</text>
      </g>
    </g>
    <g transform="translate(133,51.72)">
      <g class="primitive">
        <text text-anchor="middle" dy="0.6em">200</text>
      </g>
    </g>
  </g>
  <g clip-path="url(#img-547c2967-19)">
    <g id="img-547c2967-20">
      <g pointer-events="visible" fill-opacity="0" fill="#000000" fill-opacity="0.000" stroke="#000000" stroke-opacity="0.000" class="guide background" id="img-547c2967-21">
        <g transform="translate(111.48,27.86)">
          <path d="M-23.52,-22.86 L 23.52 -22.86 23.52 22.86 -23.52 22.86 z" class="primitive"/>
        </g>
      </g>
      <g class="guide ygridlines xfixed" stroke-dasharray="0.5,0.5" stroke-width="0.2" stroke="#D0D0E0" id="img-547c2967-22">
        <g transform="translate(111.48,48.72)">
          <path fill="none" d="M-23.52,0 L 23.52 0" class="primitive"/>
        </g>
        <g transform="translate(111.48,38.29)">
          <path fill="none" d="M-23.52,0 L 23.52 0" class="primitive"/>
        </g>
        <g transform="translate(111.48,27.86)">
          <path fill="none" d="M-23.52,0 L 23.52 0" class="primitive"/>
        </g>
        <g transform="translate(111.48,17.43)">
          <path fill="none" d="M-23.52,0 L 23.52 0" class="primitive"/>
        </g>
        <g transform="translate(111.48,7)">
          <path fill="none" d="M-23.52,0 L 23.52 0" class="primitive"/>
        </g>
      </g>
      <g class="guide xgridlines yfixed" stroke-dasharray="0.5,0.5" stroke-width="0.2" stroke="#D0D0E0" id="img-547c2967-23">
        <g transform="translate(89.96,27.86)">
          <path fill="none" d="M0,-22.86 L 0 22.86" class="primitive"/>
        </g>
        <g transform="translate(100.72,27.86)">
          <path fill="none" d="M0,-22.86 L 0 22.86" class="primitive"/>
        </g>
        <g transform="translate(111.48,27.86)">
          <path fill="none" d="M0,-22.86 L 0 22.86" class="primitive"/>
        </g>
        <g transform="translate(122.24,27.86)">
          <path fill="none" d="M0,-22.86 L 0 22.86" class="primitive"/>
        </g>
        <g transform="translate(133,27.86)">
          <path fill="none" d="M0,-22.86 L 0 22.86" class="primitive"/>
        </g>
      </g>
      <g class="plotpanel" id="img-547c2967-24">
        <metadata>
          <boundingbox value="87.95833333333333mm 5.0mm 47.04166666666667mm 45.715mm"/>
          <unitbox value="-9.293320425943852 20.958887690279276 218.58664085188772 -21.917775380558552"/>
        </metadata>
        <g stroke-width="0.3" fill="#000000" fill-opacity="0.000" class="geometry" id="img-547c2967-25">
          <g class="color_RGB{N0f8}(0.0,0.0,0.0)" stroke-dasharray="2,1" stroke="#000000" id="img-547c2967-26">
            <g transform="translate(98.57,44.54)">
              <path fill="none" d="M0,4.17 L 0 -4.17" class="primitive"/>
            </g>
          </g>
        </g>
        <g stroke-width="0.3" fill="#000000" fill-opacity="0.000" class="geometry" id="img-547c2967-27">
          <g class="color_RGB{N0f8}(0.0,0.0,0.0)" stroke-dasharray="none" stroke="#000000" id="img-547c2967-28">
            <g transform="translate(111.59,22.08)">
              <path fill="none" d="M-21.41,18.29 L -21.2 18.29 -20.98 18.29 -20.77 18.29 -20.55 18.29 -20.34 18.29 -20.12 18.29 -19.91 18.29 -19.69 18.29 -19.48 18.29 -19.26 18.29 -19.05 18.29 -18.83 18.29 -18.62 18.29 -18.4 18.29 -18.19 18.29 -17.97 18.29 -17.75 18.29 -17.54 18.29 -17.32 18.29 -17.11 18.29 -16.89 18.29 -16.68 18.29 -16.46 18.29 -16.25 18.29 -16.03 18.29 -15.82 18.29 -15.6 18.29 -15.39 18.29 -15.17 18.29 -14.96 18.29 -14.74 18.29 -14.53 18.29 -14.31 18.29 -14.1 18.29 -13.88 18.29 -13.67 18.29 -13.45 18.29 -13.24 18.29 -13.02 18.29 -12.8 9.95 -12.59 9.15 -12.37 8.4 -12.16 7.68 -11.94 6.99 -11.73 6.34 -11.51 5.71 -11.3 5.11 -11.08 4.55 -10.87 4.01 -10.65 3.49 -10.44 3 -10.22 2.53 -10.01 2.08 -9.79 1.66 -9.58 1.25 -9.36 0.87 -9.15 0.5 -8.93 0.15 -8.72 -0.18 -8.5 -0.5 -8.29 -0.8 -8.07 -1.08 -7.86 -1.36 -7.64 -1.62 -7.42 -1.87 -7.21 -2.1 -6.99 -2.33 -6.78 -2.54 -6.56 -2.74 -6.35 -2.94 -6.13 -3.12 -5.92 -3.29 -5.7 -3.46 -5.49 -3.62 -5.27 -3.77 -5.06 -3.92 -4.84 -4.05 -4.63 -4.18 -4.41 -4.31 -4.2 -4.42 -3.98 -4.54 -3.77 -4.64 -3.55 -4.74 -3.34 -4.84 -3.12 -4.93 -2.91 -5.02 -2.69 -5.1 -2.47 -5.18 -2.26 -5.26 -2.04 -5.33 -1.83 -5.4 -1.61 -5.46 -1.4 -5.53 -1.18 -5.59 -0.97 -5.64 -0.75 -5.69 -0.54 -5.75 -0.32 -5.79 -0.11 -5.84 0.11 -5.88 0.32 -5.92 0.54 -5.96 0.75 -6 0.97 -6.04 1.18 -6.07 1.4 -6.1 1.61 -6.14 1.83 -6.16 2.04 -6.19 2.26 -6.22 2.47 -6.24 2.69 -6.27 2.91 -6.29 3.12 -6.31 3.34 -6.33 3.55 -6.35 3.77 -6.37 3.98 -6.39 4.2 -6.41 4.41 -6.42 4.63 -6.44 4.84 -6.45 5.06 -6.47 5.27 -6.48 5.49 -6.49 5.7 -6.51 5.92 -6.52 6.13 -6.53 6.35 -6.54 6.56 -6.55 6.78 -6.56 6.99 -6.57 7.21 -6.57 7.42 -6.58 7.64 -6.59 7.86 -6.6 8.07 -6.6 8.29 -6.61 8.5 -6.62 8.72 -6.62 8.93 -6.63 9.15 -6.63 9.36 -6.64 9.58 -6.64 9.79 -6.65 10.01 -6.65 10.22 -6.66 10.44 -6.66 10.65 -6.67 10.87 -6.67 11.08 -6.67 11.3 -6.68 11.51 -6.68 11.73 -6.68 11.94 -6.68 12.16 -6.69 12.37 -6.69 12.59 -6.69 12.8 -6.69 13.02 -6.7 13.24 -6.7 13.45 -6.7 13.67 -6.7 13.88 -6.7 14.1 -6.71 14.31 -6.71 14.53 -6.71 14.74 -6.71 14.96 -6.71 15.17 -6.71 15.39 -6.72 15.6 -6.72 15.82 -6.72 16.03 -6.72 16.25 -6.72 16.46 -6.72 16.68 -6.72 16.89 -6.72 17.11 -6.72 17.32 -6.72 17.54 -6.73 17.75 -6.73 17.97 -6.73 18.19 -6.73 18.4 -6.73 18.62 -6.73 18.83 -6.73 19.05 -6.73 19.26 -6.73 19.48 -6.73 19.69 -6.73 19.91 -6.73 20.12 -6.73 20.34 -6.73 20.55 -6.73 20.77 -6.73 20.98 -6.73 21.2 -6.73 21.41 -6.73" class="primitive"/>
            </g>
          </g>
        </g>
      </g>
    </g>
  </g>
  <g class="guide ylabels" font-size="2.82" font-family="'PT Sans Caption','Helvetica Neue','Helvetica',sans-serif" fill="#6C606B" id="img-547c2967-29">
    <g transform="translate(86.96,48.72)">
      <g class="primitive">
        <text text-anchor="end" dy="0.35em">0</text>
      </g>
    </g>
    <g transform="translate(86.96,38.29)">
      <g class="primitive">
        <text text-anchor="end" dy="0.35em">5</text>
      </g>
    </g>
    <g transform="translate(86.96,27.86)">
      <g class="primitive">
        <text text-anchor="end" dy="0.35em">10</text>
      </g>
    </g>
    <g transform="translate(86.96,17.43)">
      <g class="primitive">
        <text text-anchor="end" dy="0.35em">15</text>
      </g>
    </g>
    <g transform="translate(86.96,7)">
      <g class="primitive">
        <text text-anchor="end" dy="0.35em">20</text>
      </g>
    </g>
  </g>
  <g font-size="3.88" font-family="'PT Sans','Helvetica Neue','Helvetica',sans-serif" fill="#564A55" stroke="#000000" stroke-opacity="0.000" id="img-547c2967-30">
    <g transform="translate(78.81,25.86)">
      <g class="primitive">
        <text text-anchor="middle" dy="0.35em" transform="rotate(-90,0, 2)">Output per capita, y</text>
      </g>
    </g>
  </g>
</g>
<g class="plotroot xscalable yscalable" id="img-547c2967-31">
  <g font-size="3.88" font-family="'PT Sans','Helvetica Neue','Helvetica',sans-serif" fill="#564A55" stroke="#000000" stroke-opacity="0.000" id="img-547c2967-32">
    <g transform="translate(41.48,58.39)">
      <g class="primitive">
        <text text-anchor="middle" dy="0.6em">Time</text>
      </g>
    </g>
  </g>
  <g class="guide xlabels" font-size="2.82" font-family="'PT Sans Caption','Helvetica Neue','Helvetica',sans-serif" fill="#6C606B" id="img-547c2967-33">
    <g transform="translate(19.96,51.72)">
      <g class="primitive">
        <text text-anchor="middle" dy="0.6em">0</text>
      </g>
    </g>
    <g transform="translate(30.72,51.72)">
      <g class="primitive">
        <text text-anchor="middle" dy="0.6em">50</text>
      </g>
    </g>
    <g transform="translate(41.48,51.72)">
      <g class="primitive">
        <text text-anchor="middle" dy="0.6em">100</text>
      </g>
    </g>
    <g transform="translate(52.24,51.72)">
      <g class="primitive">
        <text text-anchor="middle" dy="0.6em">150</text>
      </g>
    </g>
    <g transform="translate(63,51.72)">
      <g class="primitive">
        <text text-anchor="middle" dy="0.6em">200</text>
      </g>
    </g>
  </g>
  <g clip-path="url(#img-547c2967-34)">
    <g id="img-547c2967-35">
      <g pointer-events="visible" fill-opacity="0" fill="#000000" fill-opacity="0.000" stroke="#000000" stroke-opacity="0.000" class="guide background" id="img-547c2967-36">
        <g transform="translate(41.48,27.86)">
          <path d="M-23.52,-22.86 L 23.52 -22.86 23.52 22.86 -23.52 22.86 z" class="primitive"/>
        </g>
      </g>
      <g class="guide ygridlines xfixed" stroke-dasharray="0.5,0.5" stroke-width="0.2" stroke="#D0D0E0" id="img-547c2967-37">
        <g transform="translate(41.48,48.72)">
          <path fill="none" d="M-23.52,0 L 23.52 0" class="primitive"/>
        </g>
        <g transform="translate(41.48,38.29)">
          <path fill="none" d="M-23.52,0 L 23.52 0" class="primitive"/>
        </g>
        <g transform="translate(41.48,27.86)">
          <path fill="none" d="M-23.52,0 L 23.52 0" class="primitive"/>
        </g>
        <g transform="translate(41.48,17.43)">
          <path fill="none" d="M-23.52,0 L 23.52 0" class="primitive"/>
        </g>
        <g transform="translate(41.48,7)">
          <path fill="none" d="M-23.52,0 L 23.52 0" class="primitive"/>
        </g>
      </g>
      <g class="guide xgridlines yfixed" stroke-dasharray="0.5,0.5" stroke-width="0.2" stroke="#D0D0E0" id="img-547c2967-38">
        <g transform="translate(19.96,27.86)">
          <path fill="none" d="M0,-22.86 L 0 22.86" class="primitive"/>
        </g>
        <g transform="translate(30.72,27.86)">
          <path fill="none" d="M0,-22.86 L 0 22.86" class="primitive"/>
        </g>
        <g transform="translate(41.48,27.86)">
          <path fill="none" d="M0,-22.86 L 0 22.86" class="primitive"/>
        </g>
        <g transform="translate(52.24,27.86)">
          <path fill="none" d="M0,-22.86 L 0 22.86" class="primitive"/>
        </g>
        <g transform="translate(63,27.86)">
          <path fill="none" d="M0,-22.86 L 0 22.86" class="primitive"/>
        </g>
      </g>
      <g class="plotpanel" id="img-547c2967-39">
        <metadata>
          <boundingbox value="17.95833333333333mm 5.0mm 47.04166666666667mm 45.715mm"/>
          <unitbox value="-9.293320425943852 20.958887690279276 218.58664085188772 -21.917775380558552"/>
        </metadata>
        <g stroke-width="0.3" fill="#000000" fill-opacity="0.000" class="geometry" id="img-547c2967-40">
          <g class="color_RGB{N0f8}(0.0,0.0,0.0)" stroke-dasharray="2,1" stroke="#000000" id="img-547c2967-41">
            <g transform="translate(28.57,44.54)">
              <path fill="none" d="M0,4.17 L 0 -4.17" class="primitive"/>
            </g>
          </g>
        </g>
        <g stroke-width="0.3" fill="#000000" fill-opacity="0.000" class="geometry" id="img-547c2967-42">
          <g class="color_RGB{N0f8}(0.0,0.0,0.0)" stroke-dasharray="none" stroke="#000000" id="img-547c2967-43">
            <g transform="translate(41.59,23.37)">
              <path fill="none" d="M-21.41,17 L -21.2 17 -20.98 17 -20.77 17 -20.55 17 -20.34 17 -20.12 17 -19.91 17 -19.69 17 -19.48 17 -19.26 17 -19.05 17 -18.83 17 -18.62 17 -18.4 17 -18.19 17 -17.97 17 -17.75 17 -17.54 17 -17.32 17 -17.11 17 -16.89 17 -16.68 17 -16.46 17 -16.25 17 -16.03 17 -15.82 17 -15.6 17 -15.39 17 -15.17 17 -14.96 17 -14.74 17 -14.53 17 -14.31 17 -14.1 17 -13.88 17 -13.67 17 -13.45 17 -13.24 17 -13.02 17 -12.8 17 -12.59 16.19 -12.37 15.38 -12.16 14.58 -11.94 13.78 -11.73 13 -11.51 12.23 -11.3 11.47 -11.08 10.73 -10.87 10 -10.65 9.29 -10.44 8.61 -10.22 7.94 -10.01 7.29 -9.79 6.66 -9.58 6.05 -9.36 5.46 -9.15 4.89 -8.93 4.33 -8.72 3.8 -8.5 3.29 -8.29 2.8 -8.07 2.33 -7.86 1.87 -7.64 1.43 -7.42 1.01 -7.21 0.61 -6.99 0.22 -6.78 -0.15 -6.56 -0.51 -6.35 -0.85 -6.13 -1.18 -5.92 -1.49 -5.7 -1.79 -5.49 -2.08 -5.27 -2.35 -5.06 -2.62 -4.84 -2.87 -4.63 -3.11 -4.41 -3.34 -4.2 -3.56 -3.98 -3.77 -3.77 -3.97 -3.55 -4.16 -3.34 -4.34 -3.12 -4.51 -2.91 -4.68 -2.69 -4.84 -2.47 -4.99 -2.26 -5.13 -2.04 -5.27 -1.83 -5.4 -1.61 -5.53 -1.4 -5.64 -1.18 -5.76 -0.97 -5.87 -0.75 -5.97 -0.54 -6.07 -0.32 -6.16 -0.11 -6.25 0.11 -6.34 0.32 -6.42 0.54 -6.49 0.75 -6.57 0.97 -6.64 1.18 -6.71 1.4 -6.77 1.61 -6.83 1.83 -6.89 2.04 -6.94 2.26 -6.99 2.47 -7.04 2.69 -7.09 2.91 -7.14 3.12 -7.18 3.34 -7.22 3.55 -7.26 3.77 -7.3 3.98 -7.33 4.2 -7.37 4.41 -7.4 4.63 -7.43 4.84 -7.46 5.06 -7.48 5.27 -7.51 5.49 -7.54 5.7 -7.56 5.92 -7.58 6.13 -7.6 6.35 -7.62 6.56 -7.64 6.78 -7.66 6.99 -7.68 7.21 -7.7 7.42 -7.71 7.64 -7.73 7.86 -7.74 8.07 -7.76 8.29 -7.77 8.5 -7.78 8.72 -7.79 8.93 -7.81 9.15 -7.82 9.36 -7.83 9.58 -7.84 9.79 -7.85 10.01 -7.86 10.22 -7.86 10.44 -7.87 10.65 -7.88 10.87 -7.89 11.08 -7.89 11.3 -7.9 11.51 -7.91 11.73 -7.91 11.94 -7.92 12.16 -7.92 12.37 -7.93 12.59 -7.93 12.8 -7.94 13.02 -7.94 13.24 -7.95 13.45 -7.95 13.67 -7.95 13.88 -7.96 14.1 -7.96 14.31 -7.96 14.53 -7.97 14.74 -7.97 14.96 -7.97 15.17 -7.98 15.39 -7.98 15.6 -7.98 15.82 -7.98 16.03 -7.99 16.25 -7.99 16.46 -7.99 16.68 -7.99 16.89 -7.99 17.11 -8 17.32 -8 17.54 -8 17.75 -8 17.97 -8 18.19 -8 18.4 -8 18.62 -8 18.83 -8.01 19.05 -8.01 19.26 -8.01 19.48 -8.01 19.69 -8.01 19.91 -8.01 20.12 -8.01 20.34 -8.01 20.55 -8.01 20.77 -8.01 20.98 -8.01 21.2 -8.02 21.41 -8.02" class="primitive"/>
            </g>
          </g>
        </g>
      </g>
    </g>
  </g>
  <g class="guide ylabels" font-size="2.82" font-family="'PT Sans Caption','Helvetica Neue','Helvetica',sans-serif" fill="#6C606B" id="img-547c2967-44">
    <g transform="translate(16.96,48.72)">
      <g class="primitive">
        <text text-anchor="end" dy="0.35em">0</text>
      </g>
    </g>
    <g transform="translate(16.96,38.29)">
      <g class="primitive">
        <text text-anchor="end" dy="0.35em">5</text>
      </g>
    </g>
    <g transform="translate(16.96,27.86)">
      <g class="primitive">
        <text text-anchor="end" dy="0.35em">10</text>
      </g>
    </g>
    <g transform="translate(16.96,17.43)">
      <g class="primitive">
        <text text-anchor="end" dy="0.35em">15</text>
      </g>
    </g>
    <g transform="translate(16.96,7)">
      <g class="primitive">
        <text text-anchor="end" dy="0.35em">20</text>
      </g>
    </g>
  </g>
  <g font-size="3.88" font-family="'PT Sans','Helvetica Neue','Helvetica',sans-serif" fill="#564A55" stroke="#000000" stroke-opacity="0.000" id="img-547c2967-45">
    <g transform="translate(8.81,25.86)">
      <g class="primitive">
        <text text-anchor="middle" dy="0.35em" transform="rotate(-90,0, 2)">Capital per capita, k</text>
      </g>
    </g>
  </g>
</g>
<defs>
  <clipPath id="img-547c2967-4">
    <path d="M157.96,5 L 205 5 205 50.72 157.96 50.72" />
  </clipPath>
  <clipPath id="img-547c2967-19">
    <path d="M87.96,5 L 135 5 135 50.72 87.96 50.72" />
  </clipPath>
  <clipPath id="img-547c2967-34">
    <path d="M17.96,5 L 65 5 65 50.72 17.96 50.72" />
  </clipPath>
</defs>
</svg>
