<?xml version="1.0" encoding="UTF-8"?>
<svg xmlns="http://www.w3.org/2000/svg"
     xmlns:xlink="http://www.w3.org/1999/xlink"
     xmlns:gadfly="http://www.gadflyjl.org/ns"
     version="1.2"
     width="210mm" height="140mm" viewBox="0 0 210 140"
     stroke="none"
     fill="#000000"
     stroke-width="0.3"
     font-size="3.88"
>
<g class="plotroot xscalable yscalable" id="img-c068be6a-1">
  <g font-size="3.88" font-family="'PT Sans','Helvetica Neue','Helvetica',sans-serif" fill="#564A55" stroke="#000000" stroke-opacity="0.000" id="img-c068be6a-2">
    <g transform="translate(182.65,128.39)">
      <g class="primitive">
        <text text-anchor="middle" dy="0.6em">Time</text>
      </g>
    </g>
  </g>
  <g class="guide xlabels" font-size="2.82" font-family="'PT Sans Caption','Helvetica Neue','Helvetica',sans-serif" fill="#6C606B" id="img-c068be6a-3">
    <g transform="translate(162.3,121.72)">
      <g class="primitive">
        <text text-anchor="middle" dy="0.6em">0</text>
      </g>
    </g>
    <g transform="translate(175.87,121.72)">
      <g class="primitive">
        <text text-anchor="middle" dy="0.6em">100</text>
      </g>
    </g>
    <g transform="translate(189.44,121.72)">
      <g class="primitive">
        <text text-anchor="middle" dy="0.6em">200</text>
      </g>
    </g>
    <g transform="translate(203,121.72)">
      <g class="primitive">
        <text text-anchor="middle" dy="0.6em">300</text>
      </g>
    </g>
  </g>
  <g clip-path="url(#img-c068be6a-4)">
    <g id="img-c068be6a-5">
      <g pointer-events="visible" fill-opacity="0" fill="#000000" fill-opacity="0.000" stroke="#000000" stroke-opacity="0.000" class="guide background" id="img-c068be6a-6">
        <g transform="translate(182.65,97.86)">
          <path d="M-22.35,-22.86 L 22.35 -22.86 22.35 22.86 -22.35 22.86 z" class="primitive"/>
        </g>
      </g>
      <g class="guide ygridlines xfixed" stroke-dasharray="0.5,0.5" stroke-width="0.2" stroke="#D0D0E0" id="img-c068be6a-7">
        <g transform="translate(182.65,118.72)">
          <path fill="none" d="M-22.35,0 L 22.35 0" class="primitive"/>
        </g>
        <g transform="translate(182.65,111.76)">
          <path fill="none" d="M-22.35,0 L 22.35 0" class="primitive"/>
        </g>
        <g transform="translate(182.65,104.81)">
          <path fill="none" d="M-22.35,0 L 22.35 0" class="primitive"/>
        </g>
        <g transform="translate(182.65,97.86)">
          <path fill="none" d="M-22.35,0 L 22.35 0" class="primitive"/>
        </g>
        <g transform="translate(182.65,90.9)">
          <path fill="none" d="M-22.35,0 L 22.35 0" class="primitive"/>
        </g>
        <g transform="translate(182.65,83.95)">
          <path fill="none" d="M-22.35,0 L 22.35 0" class="primitive"/>
        </g>
        <g transform="translate(182.65,77)">
          <path fill="none" d="M-22.35,0 L 22.35 0" class="primitive"/>
        </g>
      </g>
      <g class="guide xgridlines yfixed" stroke-dasharray="0.5,0.5" stroke-width="0.2" stroke="#D0D0E0" id="img-c068be6a-8">
        <g transform="translate(162.3,97.86)">
          <path fill="none" d="M0,-22.86 L 0 22.86" class="primitive"/>
        </g>
        <g transform="translate(175.87,97.86)">
          <path fill="none" d="M0,-22.86 L 0 22.86" class="primitive"/>
        </g>
        <g transform="translate(189.44,97.86)">
          <path fill="none" d="M0,-22.86 L 0 22.86" class="primitive"/>
        </g>
        <g transform="translate(203,97.86)">
          <path fill="none" d="M0,-22.86 L 0 22.86" class="primitive"/>
        </g>
      </g>
      <g class="plotpanel" id="img-c068be6a-9">
        <metadata>
          <boundingbox value="160.305mm 75.0mm 44.695mm 45.715mm"/>
          <unitbox value="-14.74382602285293 0.06287666307083782 329.4876520457059 -0.06575332614167564"/>
        </metadata>
        <g stroke-width="0.3" fill="#000000" fill-opacity="0.000" class="geometry" id="img-c068be6a-10">
          <g class="color_RGB{N0f8}(0.0,0.0,0.0)" stroke-dasharray="2,1" stroke="#000000" id="img-c068be6a-11">
            <g transform="translate(182.79,118.72)">
              <path fill="none" d="M-20.21,0 L 20.21 0" class="primitive"/>
            </g>
          </g>
        </g>
        <g stroke-width="0.3" fill="#000000" fill-opacity="0.000" class="geometry" id="img-c068be6a-12">
          <g class="color_RGB{N0f8}(0.0,0.0,0.0)" stroke-dasharray="none" stroke="#000000" id="img-c068be6a-13">
            <g transform="translate(182.79,115.92)">
              <path fill="none" d="M-20.21,-34.85 L -20.08 -32.15 -19.94 -29.76 -19.8 -27.62 -19.67 -25.7 -19.53 -23.97 -19.4 -22.39 -19.26 -20.96 -19.13 -19.65 -18.99 -18.45 -18.86 -17.35 -18.72 -16.33 -18.58 -15.38 -18.45 -14.51 -18.31 -13.69 -18.18 -12.93 -18.04 -12.22 -17.91 -11.56 -17.77 -10.94 -17.63 -10.35 -17.5 -9.8 -17.36 -9.29 -17.23 -8.8 -17.09 -8.34 -16.96 -7.9 -16.82 -7.49 -16.68 -7.09 -16.55 -6.72 -16.41 -6.37 -16.28 -6.03 -16.14 -5.71 -16.01 -5.41 -15.87 -5.12 -15.74 -4.84 -15.6 -4.58 -15.46 -4.32 -15.33 -4.08 -15.19 -3.85 -15.06 -3.63 -14.92 -3.41 -14.79 -3.21 -14.65 -3.02 -14.51 -2.83 -14.38 -2.65 -14.24 -2.47 -14.11 -2.31 -13.97 -2.15 -13.84 -1.99 -13.7 -1.85 -13.57 -1.7 -13.43 -1.57 -13.29 -1.43 -13.16 -1.31 -13.02 -1.18 -12.89 -1.06 -12.75 -0.95 -12.62 -0.84 -12.48 -0.73 -12.34 -0.63 -12.21 -0.53 -12.07 -0.43 -11.94 -0.34 -11.8 -0.25 -11.67 -0.16 -11.53 -0.08 -11.39 0 -11.26 0.08 -11.12 0.16 -10.99 0.23 -10.85 0.31 -10.72 0.38 -10.58 0.44 -10.45 0.51 -10.31 0.57 -10.17 0.63 -10.04 0.69 -9.9 0.75 -9.77 0.8 -9.63 0.86 -9.5 0.91 -9.36 0.96 -9.22 1.01 -9.09 1.06 -8.95 1.11 -8.82 1.15 -8.68 1.2 -8.55 1.24 -8.41 1.28 -8.27 1.32 -8.14 1.36 -8 1.4 -7.87 1.44 -7.73 1.47 -7.6 1.51 -7.46 1.54 -7.33 1.57 -7.19 1.6 -7.05 1.64 -6.92 1.67 -6.78 1.7 -6.65 1.72 -6.51 1.75 -6.38 1.78 -6.24 1.81 -6.1 1.83 -5.97 1.86 -5.83 1.88 -5.7 1.9 -5.56 1.93 -5.43 1.95 -5.29 1.97 -5.15 1.99 -5.02 2.01 -4.88 2.03 -4.75 2.05 -4.61 2.07 -4.48 2.09 -4.34 2.11 -4.21 2.13 -4.07 2.14 -3.93 2.16 -3.8 2.18 -3.66 2.19 -3.53 2.21 -3.39 2.22 -3.26 2.24 -3.12 2.25 -2.98 2.26 -2.85 2.28 -2.71 2.29 -2.58 2.3 -2.44 2.32 -2.31 2.33 -2.17 2.34 -2.03 2.35 -1.9 2.36 -1.76 2.37 -1.63 2.38 -1.49 2.4 -1.36 2.41 -1.22 2.42 -1.09 2.42 -0.95 2.43 -0.81 2.44 -0.68 2.45 -0.54 2.46 -0.41 2.47 -0.27 2.48 -0.14 2.49 -0 2.49 0.14 2.5 0.27 2.51 0.41 2.52 0.54 2.52 0.68 2.53 0.81 2.54 0.95 2.54 1.09 2.55 1.22 2.56 1.36 2.56 1.49 2.57 1.63 2.57 1.76 2.58 1.9 2.58 2.03 2.59 2.17 2.59 2.31 2.6 2.44 2.6 2.58 2.61 2.71 2.61 2.85 2.62 2.98 2.62 3.12 2.63 3.26 2.63 3.39 2.64 3.53 2.64 3.66 2.64 3.8 2.65 3.93 2.65 4.07 2.65 4.21 2.66 4.34 2.66 4.48 2.67 4.61 2.67 4.75 2.67 4.88 2.67 5.02 2.68 5.15 2.68 5.29 2.68 5.43 2.69 5.56 2.69 5.7 2.69 5.83 2.69 5.97 2.7 6.1 2.7 6.24 2.7 6.38 2.7 6.51 2.71 6.65 2.71 6.78 2.71 6.92 2.71 7.05 2.72 7.19 2.72 7.33 2.72 7.46 2.72 7.6 2.72 7.73 2.73 7.87 2.73 8 2.73 8.14 2.73 8.27 2.73 8.41 2.73 8.55 2.74 8.68 2.74 8.82 2.74 8.95 2.74 9.09 2.74 9.22 2.74 9.36 2.74 9.5 2.75 9.63 2.75 9.77 2.75 9.9 2.75 10.04 2.75 10.17 2.75 10.31 2.75 10.45 2.75 10.58 2.76 10.72 2.76 10.85 2.76 10.99 2.76 11.12 2.76 11.26 2.76 11.39 2.76 11.53 2.76 11.67 2.76 11.8 2.76 11.94 2.76 12.07 2.77 12.21 2.77 12.34 2.77 12.48 2.77 12.62 2.77 12.75 2.77 12.89 2.77 13.02 2.77 13.16 2.77 13.29 2.77 13.43 2.77 13.56 2.77 13.7 2.77 13.84 2.77 13.97 2.78 14.11 2.78 14.24 2.78 14.38 2.78 14.51 2.78 14.65 2.78 14.79 2.78 14.92 2.78 15.06 2.78 15.19 2.78 15.33 2.78 15.46 2.78 15.6 2.78 15.74 2.78 15.87 2.78 16.01 2.78 16.14 2.78 16.28 2.78 16.41 2.78 16.55 2.78 16.68 2.78 16.82 2.78 16.96 2.79 17.09 2.79 17.23 2.79 17.36 2.79 17.5 2.79 17.63 2.79 17.77 2.79 17.91 2.79 18.04 2.79 18.18 2.79 18.31 2.79 18.45 2.79 18.58 2.79 18.72 2.79 18.86 2.79 18.99 2.79 19.13 2.79 19.26 2.79 19.4 2.79 19.53 2.79 19.67 2.79 19.8 2.79 19.94 2.79 20.08 2.79 20.21 2.79" class="primitive"/>
            </g>
          </g>
        </g>
      </g>
    </g>
  </g>
  <g class="guide ylabels" font-size="2.82" font-family="'PT Sans Caption','Helvetica Neue','Helvetica',sans-serif" fill="#6C606B" id="img-c068be6a-14">
    <g transform="translate(159.3,118.72)">
      <g class="primitive">
        <text text-anchor="end" dy="0.35em">0.00</text>
      </g>
    </g>
    <g transform="translate(159.3,111.76)">
      <g class="primitive">
        <text text-anchor="end" dy="0.35em">0.01</text>
      </g>
    </g>
    <g transform="translate(159.3,104.81)">
      <g class="primitive">
        <text text-anchor="end" dy="0.35em">0.02</text>
      </g>
    </g>
    <g transform="translate(159.3,97.86)">
      <g class="primitive">
        <text text-anchor="end" dy="0.35em">0.03</text>
      </g>
    </g>
    <g transform="translate(159.3,90.9)">
      <g class="primitive">
        <text text-anchor="end" dy="0.35em">0.04</text>
      </g>
    </g>
    <g transform="translate(159.3,83.95)">
      <g class="primitive">
        <text text-anchor="end" dy="0.35em">0.05</text>
      </g>
    </g>
    <g transform="translate(159.3,77)">
      <g class="primitive">
        <text text-anchor="end" dy="0.35em">0.06</text>
      </g>
    </g>
  </g>
  <g font-size="3.88" font-family="'PT Sans','Helvetica Neue','Helvetica',sans-serif" fill="#564A55" stroke="#000000" stroke-opacity="0.000" id="img-c068be6a-15">
    <g transform="translate(148.81,95.86)">
      <g class="primitive">
        <text text-anchor="middle" dy="0.35em" transform="rotate(-90,0, 2)">Growth of c</text>
      </g>
    </g>
  </g>
</g>
<g class="plotroot xscalable yscalable" id="img-c068be6a-16">
  <g font-size="3.88" font-family="'PT Sans','Helvetica Neue','Helvetica',sans-serif" fill="#564A55" stroke="#000000" stroke-opacity="0.000" id="img-c068be6a-17">
    <g transform="translate(112.65,128.39)">
      <g class="primitive">
        <text text-anchor="middle" dy="0.6em">Time</text>
      </g>
    </g>
  </g>
  <g class="guide xlabels" font-size="2.82" font-family="'PT Sans Caption','Helvetica Neue','Helvetica',sans-serif" fill="#6C606B" id="img-c068be6a-18">
    <g transform="translate(92.3,121.72)">
      <g class="primitive">
        <text text-anchor="middle" dy="0.6em">0</text>
      </g>
    </g>
    <g transform="translate(105.87,121.72)">
      <g class="primitive">
        <text text-anchor="middle" dy="0.6em">100</text>
      </g>
    </g>
    <g transform="translate(119.44,121.72)">
      <g class="primitive">
        <text text-anchor="middle" dy="0.6em">200</text>
      </g>
    </g>
    <g transform="translate(133,121.72)">
      <g class="primitive">
        <text text-anchor="middle" dy="0.6em">300</text>
      </g>
    </g>
  </g>
  <g clip-path="url(#img-c068be6a-19)">
    <g id="img-c068be6a-20">
      <g pointer-events="visible" fill-opacity="0" fill="#000000" fill-opacity="0.000" stroke="#000000" stroke-opacity="0.000" class="guide background" id="img-c068be6a-21">
        <g transform="translate(112.65,97.86)">
          <path d="M-22.35,-22.86 L 22.35 -22.86 22.35 22.86 -22.35 22.86 z" class="primitive"/>
        </g>
      </g>
      <g class="guide ygridlines xfixed" stroke-dasharray="0.5,0.5" stroke-width="0.2" stroke="#D0D0E0" id="img-c068be6a-22">
        <g transform="translate(112.65,118.72)">
          <path fill="none" d="M-22.35,0 L 22.35 0" class="primitive"/>
        </g>
        <g transform="translate(112.65,111.76)">
          <path fill="none" d="M-22.35,0 L 22.35 0" class="primitive"/>
        </g>
        <g transform="translate(112.65,104.81)">
          <path fill="none" d="M-22.35,0 L 22.35 0" class="primitive"/>
        </g>
        <g transform="translate(112.65,97.86)">
          <path fill="none" d="M-22.35,0 L 22.35 0" class="primitive"/>
        </g>
        <g transform="translate(112.65,90.9)">
          <path fill="none" d="M-22.35,0 L 22.35 0" class="primitive"/>
        </g>
        <g transform="translate(112.65,83.95)">
          <path fill="none" d="M-22.35,0 L 22.35 0" class="primitive"/>
        </g>
        <g transform="translate(112.65,77)">
          <path fill="none" d="M-22.35,0 L 22.35 0" class="primitive"/>
        </g>
      </g>
      <g class="guide xgridlines yfixed" stroke-dasharray="0.5,0.5" stroke-width="0.2" stroke="#D0D0E0" id="img-c068be6a-23">
        <g transform="translate(92.3,97.86)">
          <path fill="none" d="M0,-22.86 L 0 22.86" class="primitive"/>
        </g>
        <g transform="translate(105.87,97.86)">
          <path fill="none" d="M0,-22.86 L 0 22.86" class="primitive"/>
        </g>
        <g transform="translate(119.44,97.86)">
          <path fill="none" d="M0,-22.86 L 0 22.86" class="primitive"/>
        </g>
        <g transform="translate(133,97.86)">
          <path fill="none" d="M0,-22.86 L 0 22.86" class="primitive"/>
        </g>
      </g>
      <g class="plotpanel" id="img-c068be6a-24">
        <metadata>
          <boundingbox value="90.305mm 75.0mm 44.695mm 45.715mm"/>
          <unitbox value="-14.74382602285293 0.06287666307083782 329.4876520457059 -0.06575332614167564"/>
        </metadata>
        <g stroke-width="0.3" fill="#000000" fill-opacity="0.000" class="geometry" id="img-c068be6a-25">
          <g class="color_RGB{N0f8}(0.0,0.0,0.0)" stroke-dasharray="2,1" stroke="#000000" id="img-c068be6a-26">
            <g transform="translate(112.79,118.72)">
              <path fill="none" d="M-20.21,0 L 20.21 0" class="primitive"/>
            </g>
          </g>
        </g>
        <g stroke-width="0.3" fill="#000000" fill-opacity="0.000" class="geometry" id="img-c068be6a-27">
          <g class="color_RGB{N0f8}(0.0,0.0,0.0)" stroke-dasharray="none" stroke="#000000" id="img-c068be6a-28">
            <g transform="translate(112.79,115.92)">
              <path fill="none" d="M-20.21,-34.85 L -20.08 -32.15 -19.94 -29.76 -19.8 -27.62 -19.67 -25.7 -19.53 -23.97 -19.4 -22.39 -19.26 -20.96 -19.13 -19.65 -18.99 -18.45 -18.86 -17.35 -18.72 -16.33 -18.58 -15.38 -18.45 -14.51 -18.31 -13.69 -18.18 -12.93 -18.04 -12.22 -17.91 -11.56 -17.77 -10.94 -17.63 -10.35 -17.5 -9.8 -17.36 -9.29 -17.23 -8.8 -17.09 -8.34 -16.96 -7.9 -16.82 -7.49 -16.68 -7.09 -16.55 -6.72 -16.41 -6.37 -16.28 -6.03 -16.14 -5.71 -16.01 -5.41 -15.87 -5.12 -15.74 -4.84 -15.6 -4.58 -15.46 -4.32 -15.33 -4.08 -15.19 -3.85 -15.06 -3.63 -14.92 -3.41 -14.79 -3.21 -14.65 -3.02 -14.51 -2.83 -14.38 -2.65 -14.24 -2.47 -14.11 -2.31 -13.97 -2.15 -13.84 -1.99 -13.7 -1.85 -13.57 -1.7 -13.43 -1.57 -13.29 -1.43 -13.16 -1.31 -13.02 -1.18 -12.89 -1.06 -12.75 -0.95 -12.62 -0.84 -12.48 -0.73 -12.34 -0.63 -12.21 -0.53 -12.07 -0.43 -11.94 -0.34 -11.8 -0.25 -11.67 -0.16 -11.53 -0.08 -11.39 0 -11.26 0.08 -11.12 0.16 -10.99 0.23 -10.85 0.31 -10.72 0.38 -10.58 0.44 -10.45 0.51 -10.31 0.57 -10.17 0.63 -10.04 0.69 -9.9 0.75 -9.77 0.8 -9.63 0.86 -9.5 0.91 -9.36 0.96 -9.22 1.01 -9.09 1.06 -8.95 1.11 -8.82 1.15 -8.68 1.2 -8.55 1.24 -8.41 1.28 -8.27 1.32 -8.14 1.36 -8 1.4 -7.87 1.44 -7.73 1.47 -7.6 1.51 -7.46 1.54 -7.33 1.57 -7.19 1.6 -7.05 1.64 -6.92 1.67 -6.78 1.7 -6.65 1.72 -6.51 1.75 -6.38 1.78 -6.24 1.81 -6.1 1.83 -5.97 1.86 -5.83 1.88 -5.7 1.9 -5.56 1.93 -5.43 1.95 -5.29 1.97 -5.15 1.99 -5.02 2.01 -4.88 2.03 -4.75 2.05 -4.61 2.07 -4.48 2.09 -4.34 2.11 -4.21 2.13 -4.07 2.14 -3.93 2.16 -3.8 2.18 -3.66 2.19 -3.53 2.21 -3.39 2.22 -3.26 2.24 -3.12 2.25 -2.98 2.26 -2.85 2.28 -2.71 2.29 -2.58 2.3 -2.44 2.32 -2.31 2.33 -2.17 2.34 -2.03 2.35 -1.9 2.36 -1.76 2.37 -1.63 2.38 -1.49 2.4 -1.36 2.41 -1.22 2.42 -1.09 2.42 -0.95 2.43 -0.81 2.44 -0.68 2.45 -0.54 2.46 -0.41 2.47 -0.27 2.48 -0.14 2.49 -0 2.49 0.14 2.5 0.27 2.51 0.41 2.52 0.54 2.52 0.68 2.53 0.81 2.54 0.95 2.54 1.09 2.55 1.22 2.56 1.36 2.56 1.49 2.57 1.63 2.57 1.76 2.58 1.9 2.58 2.03 2.59 2.17 2.59 2.31 2.6 2.44 2.6 2.58 2.61 2.71 2.61 2.85 2.62 2.98 2.62 3.12 2.63 3.26 2.63 3.39 2.64 3.53 2.64 3.66 2.64 3.8 2.65 3.93 2.65 4.07 2.65 4.21 2.66 4.34 2.66 4.48 2.67 4.61 2.67 4.75 2.67 4.88 2.67 5.02 2.68 5.15 2.68 5.29 2.68 5.43 2.69 5.56 2.69 5.7 2.69 5.83 2.69 5.97 2.7 6.1 2.7 6.24 2.7 6.38 2.7 6.51 2.71 6.65 2.71 6.78 2.71 6.92 2.71 7.05 2.72 7.19 2.72 7.33 2.72 7.46 2.72 7.6 2.72 7.73 2.73 7.87 2.73 8 2.73 8.14 2.73 8.27 2.73 8.41 2.73 8.55 2.74 8.68 2.74 8.82 2.74 8.95 2.74 9.09 2.74 9.22 2.74 9.36 2.74 9.5 2.75 9.63 2.75 9.77 2.75 9.9 2.75 10.04 2.75 10.17 2.75 10.31 2.75 10.45 2.75 10.58 2.76 10.72 2.76 10.85 2.76 10.99 2.76 11.12 2.76 11.26 2.76 11.39 2.76 11.53 2.76 11.67 2.76 11.8 2.76 11.94 2.76 12.07 2.77 12.21 2.77 12.34 2.77 12.48 2.77 12.62 2.77 12.75 2.77 12.89 2.77 13.02 2.77 13.16 2.77 13.29 2.77 13.43 2.77 13.56 2.77 13.7 2.77 13.84 2.77 13.97 2.78 14.11 2.78 14.24 2.78 14.38 2.78 14.51 2.78 14.65 2.78 14.79 2.78 14.92 2.78 15.06 2.78 15.19 2.78 15.33 2.78 15.46 2.78 15.6 2.78 15.74 2.78 15.87 2.78 16.01 2.78 16.14 2.78 16.28 2.78 16.41 2.78 16.55 2.78 16.68 2.78 16.82 2.78 16.96 2.79 17.09 2.79 17.23 2.79 17.36 2.79 17.5 2.79 17.63 2.79 17.77 2.79 17.91 2.79 18.04 2.79 18.18 2.79 18.31 2.79 18.45 2.79 18.58 2.79 18.72 2.79 18.86 2.79 18.99 2.79 19.13 2.79 19.26 2.79 19.4 2.79 19.53 2.79 19.67 2.79 19.8 2.79 19.94 2.79 20.08 2.79 20.21 2.79" class="primitive"/>
            </g>
          </g>
        </g>
      </g>
    </g>
  </g>
  <g class="guide ylabels" font-size="2.82" font-family="'PT Sans Caption','Helvetica Neue','Helvetica',sans-serif" fill="#6C606B" id="img-c068be6a-29">
    <g transform="translate(89.3,118.72)">
      <g class="primitive">
        <text text-anchor="end" dy="0.35em">0.00</text>
      </g>
    </g>
    <g transform="translate(89.3,111.76)">
      <g class="primitive">
        <text text-anchor="end" dy="0.35em">0.01</text>
      </g>
    </g>
    <g transform="translate(89.3,104.81)">
      <g class="primitive">
        <text text-anchor="end" dy="0.35em">0.02</text>
      </g>
    </g>
    <g transform="translate(89.3,97.86)">
      <g class="primitive">
        <text text-anchor="end" dy="0.35em">0.03</text>
      </g>
    </g>
    <g transform="translate(89.3,90.9)">
      <g class="primitive">
        <text text-anchor="end" dy="0.35em">0.04</text>
      </g>
    </g>
    <g transform="translate(89.3,83.95)">
      <g class="primitive">
        <text text-anchor="end" dy="0.35em">0.05</text>
      </g>
    </g>
    <g transform="translate(89.3,77)">
      <g class="primitive">
        <text text-anchor="end" dy="0.35em">0.06</text>
      </g>
    </g>
  </g>
  <g font-size="3.88" font-family="'PT Sans','Helvetica Neue','Helvetica',sans-serif" fill="#564A55" stroke="#000000" stroke-opacity="0.000" id="img-c068be6a-30">
    <g transform="translate(78.81,95.86)">
      <g class="primitive">
        <text text-anchor="middle" dy="0.35em" transform="rotate(-90,0, 2)">Growth of y</text>
      </g>
    </g>
  </g>
</g>
<g class="plotroot xscalable yscalable" id="img-c068be6a-31">
  <g font-size="3.88" font-family="'PT Sans','Helvetica Neue','Helvetica',sans-serif" fill="#564A55" stroke="#000000" stroke-opacity="0.000" id="img-c068be6a-32">
    <g transform="translate(42.65,128.39)">
      <g class="primitive">
        <text text-anchor="middle" dy="0.6em">Time</text>
      </g>
    </g>
  </g>
  <g class="guide xlabels" font-size="2.82" font-family="'PT Sans Caption','Helvetica Neue','Helvetica',sans-serif" fill="#6C606B" id="img-c068be6a-33">
    <g transform="translate(22.3,121.72)">
      <g class="primitive">
        <text text-anchor="middle" dy="0.6em">0</text>
      </g>
    </g>
    <g transform="translate(35.87,121.72)">
      <g class="primitive">
        <text text-anchor="middle" dy="0.6em">100</text>
      </g>
    </g>
    <g transform="translate(49.44,121.72)">
      <g class="primitive">
        <text text-anchor="middle" dy="0.6em">200</text>
      </g>
    </g>
    <g transform="translate(63,121.72)">
      <g class="primitive">
        <text text-anchor="middle" dy="0.6em">300</text>
      </g>
    </g>
  </g>
  <g clip-path="url(#img-c068be6a-34)">
    <g id="img-c068be6a-35">
      <g pointer-events="visible" fill-opacity="0" fill="#000000" fill-opacity="0.000" stroke="#000000" stroke-opacity="0.000" class="guide background" id="img-c068be6a-36">
        <g transform="translate(42.65,97.86)">
          <path d="M-22.35,-22.86 L 22.35 -22.86 22.35 22.86 -22.35 22.86 z" class="primitive"/>
        </g>
      </g>
      <g class="guide ygridlines xfixed" stroke-dasharray="0.5,0.5" stroke-width="0.2" stroke="#D0D0E0" id="img-c068be6a-37">
        <g transform="translate(42.65,118.72)">
          <path fill="none" d="M-22.35,0 L 22.35 0" class="primitive"/>
        </g>
        <g transform="translate(42.65,104.81)">
          <path fill="none" d="M-22.35,0 L 22.35 0" class="primitive"/>
        </g>
        <g transform="translate(42.65,90.9)">
          <path fill="none" d="M-22.35,0 L 22.35 0" class="primitive"/>
        </g>
        <g transform="translate(42.65,77)">
          <path fill="none" d="M-22.35,0 L 22.35 0" class="primitive"/>
        </g>
      </g>
      <g class="guide xgridlines yfixed" stroke-dasharray="0.5,0.5" stroke-width="0.2" stroke="#D0D0E0" id="img-c068be6a-38">
        <g transform="translate(22.3,97.86)">
          <path fill="none" d="M0,-22.86 L 0 22.86" class="primitive"/>
        </g>
        <g transform="translate(35.87,97.86)">
          <path fill="none" d="M0,-22.86 L 0 22.86" class="primitive"/>
        </g>
        <g transform="translate(49.44,97.86)">
          <path fill="none" d="M0,-22.86 L 0 22.86" class="primitive"/>
        </g>
        <g transform="translate(63,97.86)">
          <path fill="none" d="M0,-22.86 L 0 22.86" class="primitive"/>
        </g>
      </g>
      <g class="plotpanel" id="img-c068be6a-39">
        <metadata>
          <boundingbox value="20.305mm 75.0mm 44.695mm 45.715mm"/>
          <unitbox value="-14.74382602285293 0.1571916576770946 329.4876520457059 -0.16438331535418915"/>
        </metadata>
        <g stroke-width="0.3" fill="#000000" fill-opacity="0.000" class="geometry" id="img-c068be6a-40">
          <g class="color_RGB{N0f8}(0.0,0.0,0.0)" stroke-dasharray="2,1" stroke="#000000" id="img-c068be6a-41">
            <g transform="translate(42.79,118.72)">
              <path fill="none" d="M-20.21,0 L 20.21 0" class="primitive"/>
            </g>
          </g>
        </g>
        <g stroke-width="0.3" fill="#000000" fill-opacity="0.000" class="geometry" id="img-c068be6a-42">
          <g class="color_RGB{N0f8}(0.0,0.0,0.0)" stroke-dasharray="none" stroke="#000000" id="img-c068be6a-43">
            <g transform="translate(42.79,116.48)">
              <path fill="none" d="M-20.21,-27.88 L -20.08 -25.72 -19.94 -23.81 -19.8 -22.1 -19.67 -20.56 -19.53 -19.17 -19.4 -17.91 -19.26 -16.77 -19.13 -15.72 -18.99 -14.76 -18.86 -13.88 -18.72 -13.06 -18.58 -12.31 -18.45 -11.61 -18.31 -10.95 -18.18 -10.35 -18.04 -9.78 -17.91 -9.25 -17.77 -8.75 -17.63 -8.28 -17.5 -7.84 -17.36 -7.43 -17.23 -7.04 -17.09 -6.67 -16.96 -6.32 -16.82 -5.99 -16.68 -5.68 -16.55 -5.38 -16.41 -5.09 -16.28 -4.83 -16.14 -4.57 -16.01 -4.33 -15.87 -4.09 -15.74 -3.87 -15.6 -3.66 -15.46 -3.46 -15.33 -3.26 -15.19 -3.08 -15.06 -2.9 -14.92 -2.73 -14.79 -2.57 -14.65 -2.41 -14.51 -2.26 -14.38 -2.12 -14.24 -1.98 -14.11 -1.85 -13.97 -1.72 -13.84 -1.6 -13.7 -1.48 -13.56 -1.36 -13.43 -1.25 -13.29 -1.15 -13.16 -1.04 -13.02 -0.95 -12.89 -0.85 -12.75 -0.76 -12.62 -0.67 -12.48 -0.59 -12.34 -0.5 -12.21 -0.42 -12.07 -0.35 -11.94 -0.27 -11.8 -0.2 -11.67 -0.13 -11.53 -0.06 -11.39 0 -11.26 0.07 -11.12 0.13 -10.99 0.19 -10.85 0.24 -10.72 0.3 -10.58 0.35 -10.45 0.41 -10.31 0.46 -10.17 0.51 -10.04 0.55 -9.9 0.6 -9.77 0.64 -9.63 0.69 -9.5 0.73 -9.36 0.77 -9.22 0.81 -9.09 0.85 -8.95 0.89 -8.82 0.92 -8.68 0.96 -8.55 0.99 -8.41 1.02 -8.27 1.06 -8.14 1.09 -8 1.12 -7.87 1.15 -7.73 1.18 -7.6 1.2 -7.46 1.23 -7.33 1.26 -7.19 1.28 -7.05 1.31 -6.92 1.33 -6.78 1.36 -6.65 1.38 -6.51 1.4 -6.38 1.42 -6.24 1.44 -6.1 1.47 -5.97 1.49 -5.83 1.5 -5.7 1.52 -5.56 1.54 -5.43 1.56 -5.29 1.58 -5.15 1.59 -5.02 1.61 -4.88 1.63 -4.75 1.64 -4.61 1.66 -4.48 1.67 -4.34 1.69 -4.21 1.7 -4.07 1.71 -3.93 1.73 -3.8 1.74 -3.66 1.75 -3.53 1.77 -3.39 1.78 -3.26 1.79 -3.12 1.8 -2.98 1.81 -2.85 1.82 -2.71 1.83 -2.58 1.84 -2.44 1.85 -2.31 1.86 -2.17 1.87 -2.03 1.88 -1.9 1.89 -1.76 1.9 -1.63 1.91 -1.49 1.92 -1.36 1.92 -1.22 1.93 -1.09 1.94 -0.95 1.95 -0.81 1.95 -0.68 1.96 -0.54 1.97 -0.41 1.98 -0.27 1.98 -0.14 1.99 0 1.99 0.14 2 0.27 2.01 0.41 2.01 0.54 2.02 0.68 2.02 0.81 2.03 0.95 2.03 1.09 2.04 1.22 2.04 1.36 2.05 1.49 2.05 1.63 2.06 1.76 2.06 1.9 2.07 2.03 2.07 2.17 2.08 2.31 2.08 2.44 2.08 2.58 2.09 2.71 2.09 2.85 2.09 2.98 2.1 3.12 2.1 3.26 2.11 3.39 2.11 3.53 2.11 3.66 2.11 3.8 2.12 3.93 2.12 4.07 2.12 4.21 2.13 4.34 2.13 4.48 2.13 4.61 2.13 4.75 2.14 4.88 2.14 5.02 2.14 5.15 2.14 5.29 2.15 5.43 2.15 5.56 2.15 5.7 2.15 5.83 2.16 5.97 2.16 6.1 2.16 6.24 2.16 6.38 2.16 6.51 2.17 6.65 2.17 6.78 2.17 6.92 2.17 7.05 2.17 7.19 2.17 7.33 2.18 7.46 2.18 7.6 2.18 7.73 2.18 7.87 2.18 8 2.18 8.14 2.18 8.27 2.19 8.41 2.19 8.55 2.19 8.68 2.19 8.82 2.19 8.95 2.19 9.09 2.19 9.22 2.19 9.36 2.2 9.5 2.2 9.63 2.2 9.77 2.2 9.9 2.2 10.04 2.2 10.17 2.2 10.31 2.2 10.45 2.2 10.58 2.2 10.72 2.2 10.85 2.21 10.99 2.21 11.12 2.21 11.26 2.21 11.39 2.21 11.53 2.21 11.67 2.21 11.8 2.21 11.94 2.21 12.07 2.21 12.21 2.21 12.34 2.21 12.48 2.21 12.62 2.21 12.75 2.22 12.89 2.22 13.02 2.22 13.16 2.22 13.29 2.22 13.43 2.22 13.57 2.22 13.7 2.22 13.84 2.22 13.97 2.22 14.11 2.22 14.24 2.22 14.38 2.22 14.51 2.22 14.65 2.22 14.79 2.22 14.92 2.22 15.06 2.22 15.19 2.22 15.33 2.22 15.46 2.22 15.6 2.22 15.74 2.23 15.87 2.23 16.01 2.23 16.14 2.23 16.28 2.23 16.41 2.23 16.55 2.23 16.68 2.23 16.82 2.23 16.96 2.23 17.09 2.23 17.23 2.23 17.36 2.23 17.5 2.23 17.63 2.23 17.77 2.23 17.91 2.23 18.04 2.23 18.18 2.23 18.31 2.23 18.45 2.23 18.58 2.23 18.72 2.23 18.86 2.23 18.99 2.23 19.13 2.23 19.26 2.23 19.4 2.23 19.53 2.23 19.67 2.23 19.8 2.23 19.94 2.23 20.08 2.23 20.21 2.23" class="primitive"/>
            </g>
          </g>
        </g>
      </g>
    </g>
  </g>
  <g class="guide ylabels" font-size="2.82" font-family="'PT Sans Caption','Helvetica Neue','Helvetica',sans-serif" fill="#6C606B" id="img-c068be6a-44">
    <g transform="translate(19.3,118.72)">
      <g class="primitive">
        <text text-anchor="end" dy="0.35em">0.00</text>
      </g>
    </g>
    <g transform="translate(19.3,104.81)">
      <g class="primitive">
        <text text-anchor="end" dy="0.35em">0.05</text>
      </g>
    </g>
    <g transform="translate(19.3,90.9)">
      <g class="primitive">
        <text text-anchor="end" dy="0.35em">0.10</text>
      </g>
    </g>
    <g transform="translate(19.3,77)">
      <g class="primitive">
        <text text-anchor="end" dy="0.35em">0.15</text>
      </g>
    </g>
  </g>
  <g font-size="3.88" font-family="'PT Sans','Helvetica Neue','Helvetica',sans-serif" fill="#564A55" stroke="#000000" stroke-opacity="0.000" id="img-c068be6a-45">
    <g transform="translate(8.81,95.86)">
      <g class="primitive">
        <text text-anchor="middle" dy="0.35em" transform="rotate(-90,0, 2)">Growth of k</text>
      </g>
    </g>
  </g>
</g>
<g class="plotroot xscalable yscalable" id="img-c068be6a-46">
  <g font-size="3.88" font-family="'PT Sans','Helvetica Neue','Helvetica',sans-serif" fill="#564A55" stroke="#000000" stroke-opacity="0.000" id="img-c068be6a-47">
    <g transform="translate(181.48,58.39)">
      <g class="primitive">
        <text text-anchor="middle" dy="0.6em">Time</text>
      </g>
    </g>
  </g>
  <g class="guide xlabels" font-size="2.82" font-family="'PT Sans Caption','Helvetica Neue','Helvetica',sans-serif" fill="#6C606B" id="img-c068be6a-48">
    <g transform="translate(159.96,51.72)">
      <g class="primitive">
        <text text-anchor="middle" dy="0.6em">0</text>
      </g>
    </g>
    <g transform="translate(174.31,51.72)">
      <g class="primitive">
        <text text-anchor="middle" dy="0.6em">100</text>
      </g>
    </g>
    <g transform="translate(188.65,51.72)">
      <g class="primitive">
        <text text-anchor="middle" dy="0.6em">200</text>
      </g>
    </g>
    <g transform="translate(203,51.72)">
      <g class="primitive">
        <text text-anchor="middle" dy="0.6em">300</text>
      </g>
    </g>
  </g>
  <g clip-path="url(#img-c068be6a-49)">
    <g id="img-c068be6a-50">
      <g pointer-events="visible" fill-opacity="0" fill="#000000" fill-opacity="0.000" stroke="#000000" stroke-opacity="0.000" class="guide background" id="img-c068be6a-51">
        <g transform="translate(181.48,27.86)">
          <path d="M-23.52,-22.86 L 23.52 -22.86 23.52 22.86 -23.52 22.86 z" class="primitive"/>
        </g>
      </g>
      <g class="guide ygridlines xfixed" stroke-dasharray="0.5,0.5" stroke-width="0.2" stroke="#D0D0E0" id="img-c068be6a-52">
        <g transform="translate(181.48,48.72)">
          <path fill="none" d="M-23.52,0 L 23.52 0" class="primitive"/>
        </g>
        <g transform="translate(181.48,34.81)">
          <path fill="none" d="M-23.52,0 L 23.52 0" class="primitive"/>
        </g>
        <g transform="translate(181.48,20.9)">
          <path fill="none" d="M-23.52,0 L 23.52 0" class="primitive"/>
        </g>
        <g transform="translate(181.48,7)">
          <path fill="none" d="M-23.52,0 L 23.52 0" class="primitive"/>
        </g>
      </g>
      <g class="guide xgridlines yfixed" stroke-dasharray="0.5,0.5" stroke-width="0.2" stroke="#D0D0E0" id="img-c068be6a-53">
        <g transform="translate(159.96,27.86)">
          <path fill="none" d="M0,-22.86 L 0 22.86" class="primitive"/>
        </g>
        <g transform="translate(174.31,27.86)">
          <path fill="none" d="M0,-22.86 L 0 22.86" class="primitive"/>
        </g>
        <g transform="translate(188.65,27.86)">
          <path fill="none" d="M0,-22.86 L 0 22.86" class="primitive"/>
        </g>
        <g transform="translate(203,27.86)">
          <path fill="none" d="M0,-22.86 L 0 22.86" class="primitive"/>
        </g>
      </g>
      <g class="plotpanel" id="img-c068be6a-54">
        <metadata>
          <boundingbox value="157.95833333333331mm 5.0mm 47.04166666666667mm 45.715mm"/>
          <unitbox value="-13.93998063891578 15.719165767709457 327.87996127783157 -16.438331535418914"/>
        </metadata>
        <g stroke-width="0.3" fill="#000000" fill-opacity="0.000" class="geometry" id="img-c068be6a-55">
          <g class="color_RGB{N0f8}(0.0,0.0,0.0)" stroke-dasharray="2,1" stroke="#000000" id="img-c068be6a-56">
            <g transform="translate(181.55,7)">
              <path fill="none" d="M-21.45,0 L 21.45 0" class="primitive"/>
            </g>
          </g>
        </g>
        <g stroke-width="0.3" fill="#000000" fill-opacity="0.000" class="geometry" id="img-c068be6a-57">
          <g class="color_RGB{N0f8}(0.0,0.0,0.0)" stroke-dasharray="none" stroke="#000000" id="img-c068be6a-58">
            <g transform="translate(181.55,11)">
              <path fill="none" d="M-21.45,25.2 L -21.31 24.5 -21.16 23.82 -21.02 23.15 -20.88 22.5 -20.73 21.87 -20.59 21.24 -20.44 20.64 -20.3 20.04 -20.16 19.46 -20.01 18.9 -19.87 18.34 -19.73 17.8 -19.58 17.28 -19.44 16.76 -19.3 16.26 -19.15 15.77 -19.01 15.29 -18.87 14.82 -18.72 14.36 -18.58 13.92 -18.44 13.48 -18.29 13.06 -18.15 12.64 -18.01 12.24 -17.86 11.84 -17.72 11.46 -17.58 11.08 -17.43 10.71 -17.29 10.35 -17.14 10 -17 9.66 -16.86 9.33 -16.71 9.01 -16.57 8.69 -16.43 8.38 -16.28 8.08 -16.14 7.78 -16 7.49 -15.85 7.21 -15.71 6.94 -15.57 6.67 -15.42 6.41 -15.28 6.16 -15.14 5.91 -14.99 5.67 -14.85 5.43 -14.71 5.2 -14.56 4.98 -14.42 4.76 -14.28 4.54 -14.13 4.33 -13.99 4.13 -13.85 3.93 -13.7 3.74 -13.56 3.55 -13.41 3.36 -13.27 3.18 -13.13 3.01 -12.98 2.84 -12.84 2.67 -12.7 2.51 -12.55 2.35 -12.41 2.19 -12.27 2.04 -12.12 1.89 -11.98 1.75 -11.84 1.61 -11.69 1.47 -11.55 1.34 -11.41 1.21 -11.26 1.08 -11.12 0.95 -10.98 0.83 -10.83 0.71 -10.69 0.6 -10.55 0.49 -10.4 0.38 -10.26 0.27 -10.11 0.16 -9.97 0.06 -9.83 -0.04 -9.68 -0.13 -9.54 -0.23 -9.4 -0.32 -9.25 -0.41 -9.11 -0.5 -8.97 -0.59 -8.82 -0.67 -8.68 -0.75 -8.54 -0.83 -8.39 -0.91 -8.25 -0.98 -8.11 -1.06 -7.96 -1.13 -7.82 -1.2 -7.68 -1.27 -7.53 -1.34 -7.39 -1.4 -7.25 -1.47 -7.1 -1.53 -6.96 -1.59 -6.81 -1.65 -6.67 -1.71 -6.53 -1.76 -6.38 -1.82 -6.24 -1.87 -6.1 -1.92 -5.95 -1.97 -5.81 -2.02 -5.67 -2.07 -5.52 -2.12 -5.38 -2.16 -5.24 -2.21 -5.09 -2.25 -4.95 -2.3 -4.81 -2.34 -4.66 -2.38 -4.52 -2.42 -4.38 -2.46 -4.23 -2.5 -4.09 -2.53 -3.95 -2.57 -3.8 -2.6 -3.66 -2.64 -3.52 -2.67 -3.37 -2.7 -3.23 -2.74 -3.08 -2.77 -2.94 -2.8 -2.8 -2.83 -2.65 -2.86 -2.51 -2.88 -2.37 -2.91 -2.22 -2.94 -2.08 -2.96 -1.94 -2.99 -1.79 -3.01 -1.65 -3.04 -1.51 -3.06 -1.36 -3.09 -1.22 -3.11 -1.08 -3.13 -0.93 -3.15 -0.79 -3.17 -0.65 -3.19 -0.5 -3.21 -0.36 -3.23 -0.22 -3.25 -0.07 -3.27 0.07 -3.29 0.22 -3.31 0.36 -3.32 0.5 -3.34 0.65 -3.36 0.79 -3.37 0.93 -3.39 1.08 -3.4 1.22 -3.42 1.36 -3.43 1.51 -3.45 1.65 -3.46 1.79 -3.47 1.94 -3.49 2.08 -3.5 2.22 -3.51 2.37 -3.52 2.51 -3.53 2.65 -3.55 2.8 -3.56 2.94 -3.57 3.08 -3.58 3.23 -3.59 3.37 -3.6 3.52 -3.61 3.66 -3.62 3.8 -3.63 3.95 -3.64 4.09 -3.65 4.23 -3.66 4.38 -3.66 4.52 -3.67 4.66 -3.68 4.81 -3.69 4.95 -3.7 5.09 -3.7 5.24 -3.71 5.38 -3.72 5.52 -3.73 5.67 -3.73 5.81 -3.74 5.95 -3.75 6.1 -3.75 6.24 -3.76 6.38 -3.76 6.53 -3.77 6.67 -3.78 6.81 -3.78 6.96 -3.79 7.1 -3.79 7.25 -3.8 7.39 -3.8 7.53 -3.81 7.68 -3.81 7.82 -3.82 7.96 -3.82 8.11 -3.83 8.25 -3.83 8.39 -3.83 8.54 -3.84 8.68 -3.84 8.82 -3.85 8.97 -3.85 9.11 -3.85 9.25 -3.86 9.4 -3.86 9.54 -3.87 9.68 -3.87 9.83 -3.87 9.97 -3.88 10.11 -3.88 10.26 -3.88 10.4 -3.88 10.55 -3.89 10.69 -3.89 10.83 -3.89 10.98 -3.9 11.12 -3.9 11.26 -3.9 11.41 -3.9 11.55 -3.91 11.69 -3.91 11.84 -3.91 11.98 -3.91 12.12 -3.92 12.27 -3.92 12.41 -3.92 12.55 -3.92 12.7 -3.92 12.84 -3.93 12.98 -3.93 13.13 -3.93 13.27 -3.93 13.41 -3.93 13.56 -3.93 13.7 -3.94 13.85 -3.94 13.99 -3.94 14.13 -3.94 14.28 -3.94 14.42 -3.94 14.56 -3.95 14.71 -3.95 14.85 -3.95 14.99 -3.95 15.14 -3.95 15.28 -3.95 15.42 -3.95 15.57 -3.96 15.71 -3.96 15.85 -3.96 16 -3.96 16.14 -3.96 16.28 -3.96 16.43 -3.96 16.57 -3.96 16.71 -3.96 16.86 -3.97 17 -3.97 17.14 -3.97 17.29 -3.97 17.43 -3.97 17.58 -3.97 17.72 -3.97 17.86 -3.97 18.01 -3.97 18.15 -3.97 18.29 -3.97 18.44 -3.97 18.58 -3.98 18.72 -3.98 18.87 -3.98 19.01 -3.98 19.15 -3.98 19.3 -3.98 19.44 -3.98 19.58 -3.98 19.73 -3.98 19.87 -3.98 20.01 -3.98 20.16 -3.98 20.3 -3.98 20.44 -3.98 20.59 -3.98 20.73 -3.98 20.88 -3.98 21.02 -3.99 21.16 -3.99 21.31 -3.99 21.45 -3.99" class="primitive"/>
            </g>
          </g>
        </g>
      </g>
    </g>
  </g>
  <g class="guide ylabels" font-size="2.82" font-family="'PT Sans Caption','Helvetica Neue','Helvetica',sans-serif" fill="#6C606B" id="img-c068be6a-59">
    <g transform="translate(156.96,48.72)">
      <g class="primitive">
        <text text-anchor="end" dy="0.35em">0</text>
      </g>
    </g>
    <g transform="translate(156.96,34.81)">
      <g class="primitive">
        <text text-anchor="end" dy="0.35em">5</text>
      </g>
    </g>
    <g transform="translate(156.96,20.9)">
      <g class="primitive">
        <text text-anchor="end" dy="0.35em">10</text>
      </g>
    </g>
    <g transform="translate(156.96,7)">
      <g class="primitive">
        <text text-anchor="end" dy="0.35em">15</text>
      </g>
    </g>
  </g>
  <g font-size="3.88" font-family="'PT Sans','Helvetica Neue','Helvetica',sans-serif" fill="#564A55" stroke="#000000" stroke-opacity="0.000" id="img-c068be6a-60">
    <g transform="translate(148.81,25.86)">
      <g class="primitive">
        <text text-anchor="middle" dy="0.35em" transform="rotate(-90,0, 2)">Consumption per capita, c</text>
      </g>
    </g>
  </g>
</g>
<g class="plotroot xscalable yscalable" id="img-c068be6a-61">
  <g font-size="3.88" font-family="'PT Sans','Helvetica Neue','Helvetica',sans-serif" fill="#564A55" stroke="#000000" stroke-opacity="0.000" id="img-c068be6a-62">
    <g transform="translate(111.48,58.39)">
      <g class="primitive">
        <text text-anchor="middle" dy="0.6em">Time</text>
      </g>
    </g>
  </g>
  <g class="guide xlabels" font-size="2.82" font-family="'PT Sans Caption','Helvetica Neue','Helvetica',sans-serif" fill="#6C606B" id="img-c068be6a-63">
    <g transform="translate(89.96,51.72)">
      <g class="primitive">
        <text text-anchor="middle" dy="0.6em">0</text>
      </g>
    </g>
    <g transform="translate(104.31,51.72)">
      <g class="primitive">
        <text text-anchor="middle" dy="0.6em">100</text>
      </g>
    </g>
    <g transform="translate(118.65,51.72)">
      <g class="primitive">
        <text text-anchor="middle" dy="0.6em">200</text>
      </g>
    </g>
    <g transform="translate(133,51.72)">
      <g class="primitive">
        <text text-anchor="middle" dy="0.6em">300</text>
      </g>
    </g>
  </g>
  <g clip-path="url(#img-c068be6a-64)">
    <g id="img-c068be6a-65">
      <g pointer-events="visible" fill-opacity="0" fill="#000000" fill-opacity="0.000" stroke="#000000" stroke-opacity="0.000" class="guide background" id="img-c068be6a-66">
        <g transform="translate(111.48,27.86)">
          <path d="M-23.52,-22.86 L 23.52 -22.86 23.52 22.86 -23.52 22.86 z" class="primitive"/>
        </g>
      </g>
      <g class="guide ygridlines xfixed" stroke-dasharray="0.5,0.5" stroke-width="0.2" stroke="#D0D0E0" id="img-c068be6a-67">
        <g transform="translate(111.48,48.72)">
          <path fill="none" d="M-23.52,0 L 23.52 0" class="primitive"/>
        </g>
        <g transform="translate(111.48,38.29)">
          <path fill="none" d="M-23.52,0 L 23.52 0" class="primitive"/>
        </g>
        <g transform="translate(111.48,27.86)">
          <path fill="none" d="M-23.52,0 L 23.52 0" class="primitive"/>
        </g>
        <g transform="translate(111.48,17.43)">
          <path fill="none" d="M-23.52,0 L 23.52 0" class="primitive"/>
        </g>
        <g transform="translate(111.48,7)">
          <path fill="none" d="M-23.52,0 L 23.52 0" class="primitive"/>
        </g>
      </g>
      <g class="guide xgridlines yfixed" stroke-dasharray="0.5,0.5" stroke-width="0.2" stroke="#D0D0E0" id="img-c068be6a-68">
        <g transform="translate(89.96,27.86)">
          <path fill="none" d="M0,-22.86 L 0 22.86" class="primitive"/>
        </g>
        <g transform="translate(104.31,27.86)">
          <path fill="none" d="M0,-22.86 L 0 22.86" class="primitive"/>
        </g>
        <g transform="translate(118.65,27.86)">
          <path fill="none" d="M0,-22.86 L 0 22.86" class="primitive"/>
        </g>
        <g transform="translate(133,27.86)">
          <path fill="none" d="M0,-22.86 L 0 22.86" class="primitive"/>
        </g>
      </g>
      <g class="plotpanel" id="img-c068be6a-69">
        <metadata>
          <boundingbox value="87.95833333333333mm 5.0mm 47.04166666666667mm 45.715mm"/>
          <unitbox value="-13.93998063891578 20.958887690279276 327.87996127783157 -21.917775380558552"/>
        </metadata>
        <g stroke-width="0.3" fill="#000000" fill-opacity="0.000" class="geometry" id="img-c068be6a-70">
          <g class="color_RGB{N0f8}(0.0,0.0,0.0)" stroke-dasharray="2,1" stroke="#000000" id="img-c068be6a-71">
            <g transform="translate(111.55,7)">
              <path fill="none" d="M-21.45,0 L 21.45 0" class="primitive"/>
            </g>
          </g>
        </g>
        <g stroke-width="0.3" fill="#000000" fill-opacity="0.000" class="geometry" id="img-c068be6a-72">
          <g class="color_RGB{N0f8}(0.0,0.0,0.0)" stroke-dasharray="none" stroke="#000000" id="img-c068be6a-73">
            <g transform="translate(111.55,11)">
              <path fill="none" d="M-21.45,25.2 L -21.31 24.5 -21.16 23.82 -21.02 23.15 -20.88 22.5 -20.73 21.87 -20.59 21.24 -20.44 20.64 -20.3 20.04 -20.16 19.46 -20.01 18.9 -19.87 18.34 -19.73 17.8 -19.58 17.28 -19.44 16.76 -19.3 16.26 -19.15 15.77 -19.01 15.29 -18.87 14.82 -18.72 14.36 -18.58 13.92 -18.44 13.48 -18.29 13.06 -18.15 12.64 -18.01 12.24 -17.86 11.84 -17.72 11.46 -17.58 11.08 -17.43 10.71 -17.29 10.35 -17.14 10 -17 9.66 -16.86 9.33 -16.71 9.01 -16.57 8.69 -16.43 8.38 -16.28 8.08 -16.14 7.78 -16 7.49 -15.85 7.21 -15.71 6.94 -15.57 6.67 -15.42 6.41 -15.28 6.16 -15.14 5.91 -14.99 5.67 -14.85 5.43 -14.71 5.2 -14.56 4.98 -14.42 4.76 -14.28 4.54 -14.13 4.33 -13.99 4.13 -13.85 3.93 -13.7 3.74 -13.56 3.55 -13.41 3.36 -13.27 3.18 -13.13 3.01 -12.98 2.84 -12.84 2.67 -12.7 2.51 -12.55 2.35 -12.41 2.19 -12.27 2.04 -12.12 1.89 -11.98 1.75 -11.84 1.61 -11.69 1.47 -11.55 1.34 -11.41 1.21 -11.26 1.08 -11.12 0.95 -10.98 0.83 -10.83 0.71 -10.69 0.6 -10.55 0.49 -10.4 0.38 -10.26 0.27 -10.11 0.16 -9.97 0.06 -9.83 -0.04 -9.68 -0.13 -9.54 -0.23 -9.4 -0.32 -9.25 -0.41 -9.11 -0.5 -8.97 -0.59 -8.82 -0.67 -8.68 -0.75 -8.54 -0.83 -8.39 -0.91 -8.25 -0.98 -8.11 -1.06 -7.96 -1.13 -7.82 -1.2 -7.68 -1.27 -7.53 -1.34 -7.39 -1.4 -7.25 -1.47 -7.1 -1.53 -6.96 -1.59 -6.81 -1.65 -6.67 -1.71 -6.53 -1.76 -6.38 -1.82 -6.24 -1.87 -6.1 -1.92 -5.95 -1.97 -5.81 -2.02 -5.67 -2.07 -5.52 -2.12 -5.38 -2.16 -5.24 -2.21 -5.09 -2.25 -4.95 -2.3 -4.81 -2.34 -4.66 -2.38 -4.52 -2.42 -4.38 -2.46 -4.23 -2.5 -4.09 -2.53 -3.95 -2.57 -3.8 -2.6 -3.66 -2.64 -3.52 -2.67 -3.37 -2.7 -3.23 -2.74 -3.08 -2.77 -2.94 -2.8 -2.8 -2.83 -2.65 -2.86 -2.51 -2.88 -2.37 -2.91 -2.22 -2.94 -2.08 -2.96 -1.94 -2.99 -1.79 -3.01 -1.65 -3.04 -1.51 -3.06 -1.36 -3.09 -1.22 -3.11 -1.08 -3.13 -0.93 -3.15 -0.79 -3.17 -0.65 -3.19 -0.5 -3.21 -0.36 -3.23 -0.22 -3.25 -0.07 -3.27 0.07 -3.29 0.22 -3.31 0.36 -3.32 0.5 -3.34 0.65 -3.36 0.79 -3.37 0.93 -3.39 1.08 -3.4 1.22 -3.42 1.36 -3.43 1.51 -3.45 1.65 -3.46 1.79 -3.47 1.94 -3.49 2.08 -3.5 2.22 -3.51 2.37 -3.52 2.51 -3.53 2.65 -3.55 2.8 -3.56 2.94 -3.57 3.08 -3.58 3.23 -3.59 3.37 -3.6 3.52 -3.61 3.66 -3.62 3.8 -3.63 3.95 -3.64 4.09 -3.65 4.23 -3.66 4.38 -3.66 4.52 -3.67 4.66 -3.68 4.81 -3.69 4.95 -3.7 5.09 -3.7 5.24 -3.71 5.38 -3.72 5.52 -3.73 5.67 -3.73 5.81 -3.74 5.95 -3.75 6.1 -3.75 6.24 -3.76 6.38 -3.76 6.53 -3.77 6.67 -3.78 6.81 -3.78 6.96 -3.79 7.1 -3.79 7.25 -3.8 7.39 -3.8 7.53 -3.81 7.68 -3.81 7.82 -3.82 7.96 -3.82 8.11 -3.83 8.25 -3.83 8.39 -3.83 8.54 -3.84 8.68 -3.84 8.82 -3.85 8.97 -3.85 9.11 -3.85 9.25 -3.86 9.4 -3.86 9.54 -3.87 9.68 -3.87 9.83 -3.87 9.97 -3.88 10.11 -3.88 10.26 -3.88 10.4 -3.88 10.55 -3.89 10.69 -3.89 10.83 -3.89 10.98 -3.9 11.12 -3.9 11.26 -3.9 11.41 -3.9 11.55 -3.91 11.69 -3.91 11.84 -3.91 11.98 -3.91 12.12 -3.92 12.27 -3.92 12.41 -3.92 12.55 -3.92 12.7 -3.92 12.84 -3.93 12.98 -3.93 13.13 -3.93 13.27 -3.93 13.41 -3.93 13.56 -3.93 13.7 -3.94 13.85 -3.94 13.99 -3.94 14.13 -3.94 14.28 -3.94 14.42 -3.94 14.56 -3.95 14.71 -3.95 14.85 -3.95 14.99 -3.95 15.14 -3.95 15.28 -3.95 15.42 -3.95 15.57 -3.96 15.71 -3.96 15.85 -3.96 16 -3.96 16.14 -3.96 16.28 -3.96 16.43 -3.96 16.57 -3.96 16.71 -3.96 16.86 -3.97 17 -3.97 17.14 -3.97 17.29 -3.97 17.43 -3.97 17.58 -3.97 17.72 -3.97 17.86 -3.97 18.01 -3.97 18.15 -3.97 18.29 -3.97 18.44 -3.97 18.58 -3.98 18.72 -3.98 18.87 -3.98 19.01 -3.98 19.15 -3.98 19.3 -3.98 19.44 -3.98 19.58 -3.98 19.73 -3.98 19.87 -3.98 20.01 -3.98 20.16 -3.98 20.3 -3.98 20.44 -3.98 20.59 -3.98 20.73 -3.98 20.88 -3.98 21.02 -3.99 21.16 -3.99 21.31 -3.99 21.45 -3.99" class="primitive"/>
            </g>
          </g>
        </g>
      </g>
    </g>
  </g>
  <g class="guide ylabels" font-size="2.82" font-family="'PT Sans Caption','Helvetica Neue','Helvetica',sans-serif" fill="#6C606B" id="img-c068be6a-74">
    <g transform="translate(86.96,48.72)">
      <g class="primitive">
        <text text-anchor="end" dy="0.35em">0</text>
      </g>
    </g>
    <g transform="translate(86.96,38.29)">
      <g class="primitive">
        <text text-anchor="end" dy="0.35em">5</text>
      </g>
    </g>
    <g transform="translate(86.96,27.86)">
      <g class="primitive">
        <text text-anchor="end" dy="0.35em">10</text>
      </g>
    </g>
    <g transform="translate(86.96,17.43)">
      <g class="primitive">
        <text text-anchor="end" dy="0.35em">15</text>
      </g>
    </g>
    <g transform="translate(86.96,7)">
      <g class="primitive">
        <text text-anchor="end" dy="0.35em">20</text>
      </g>
    </g>
  </g>
  <g font-size="3.88" font-family="'PT Sans','Helvetica Neue','Helvetica',sans-serif" fill="#564A55" stroke="#000000" stroke-opacity="0.000" id="img-c068be6a-75">
    <g transform="translate(78.81,25.86)">
      <g class="primitive">
        <text text-anchor="middle" dy="0.35em" transform="rotate(-90,0, 2)">Output per capita, y</text>
      </g>
    </g>
  </g>
</g>
<g class="plotroot xscalable yscalable" id="img-c068be6a-76">
  <g font-size="3.88" font-family="'PT Sans','Helvetica Neue','Helvetica',sans-serif" fill="#564A55" stroke="#000000" stroke-opacity="0.000" id="img-c068be6a-77">
    <g transform="translate(42.32,58.39)">
      <g class="primitive">
        <text text-anchor="middle" dy="0.6em">Time</text>
      </g>
    </g>
  </g>
  <g class="guide xlabels" font-size="2.82" font-family="'PT Sans Caption','Helvetica Neue','Helvetica',sans-serif" fill="#6C606B" id="img-c068be6a-78">
    <g transform="translate(21.63,51.72)">
      <g class="primitive">
        <text text-anchor="middle" dy="0.6em">0</text>
      </g>
    </g>
    <g transform="translate(35.42,51.72)">
      <g class="primitive">
        <text text-anchor="middle" dy="0.6em">100</text>
      </g>
    </g>
    <g transform="translate(49.21,51.72)">
      <g class="primitive">
        <text text-anchor="middle" dy="0.6em">200</text>
      </g>
    </g>
    <g transform="translate(63,51.72)">
      <g class="primitive">
        <text text-anchor="middle" dy="0.6em">300</text>
      </g>
    </g>
  </g>
  <g clip-path="url(#img-c068be6a-79)">
    <g id="img-c068be6a-80">
      <g pointer-events="visible" fill-opacity="0" fill="#000000" fill-opacity="0.000" stroke="#000000" stroke-opacity="0.000" class="guide background" id="img-c068be6a-81">
        <g transform="translate(42.32,27.86)">
          <path d="M-22.68,-22.86 L 22.68 -22.86 22.68 22.86 -22.68 22.86 z" class="primitive"/>
        </g>
      </g>
      <g class="guide ygridlines xfixed" stroke-dasharray="0.5,0.5" stroke-width="0.2" stroke="#D0D0E0" id="img-c068be6a-82">
        <g transform="translate(42.32,48.72)">
          <path fill="none" d="M-22.68,0 L 22.68 0" class="primitive"/>
        </g>
        <g transform="translate(42.32,27.86)">
          <path fill="none" d="M-22.68,0 L 22.68 0" class="primitive"/>
        </g>
        <g transform="translate(42.32,7)">
          <path fill="none" d="M-22.68,0 L 22.68 0" class="primitive"/>
        </g>
      </g>
      <g class="guide xgridlines yfixed" stroke-dasharray="0.5,0.5" stroke-width="0.2" stroke="#D0D0E0" id="img-c068be6a-83">
        <g transform="translate(21.63,27.86)">
          <path fill="none" d="M0,-22.86 L 0 22.86" class="primitive"/>
        </g>
        <g transform="translate(35.42,27.86)">
          <path fill="none" d="M0,-22.86 L 0 22.86" class="primitive"/>
        </g>
        <g transform="translate(49.21,27.86)">
          <path fill="none" d="M0,-22.86 L 0 22.86" class="primitive"/>
        </g>
        <g transform="translate(63,27.86)">
          <path fill="none" d="M0,-22.86 L 0 22.86" class="primitive"/>
        </g>
      </g>
      <g class="plotpanel" id="img-c068be6a-84">
        <metadata>
          <boundingbox value="19.631666666666668mm 5.0mm 45.36833333333333mm 45.715mm"/>
          <unitbox value="-14.50384754844688 104.79443845139637 329.00769509689377 -109.58887690279275"/>
        </metadata>
        <g stroke-width="0.3" fill="#000000" fill-opacity="0.000" class="geometry" id="img-c068be6a-85">
          <g class="color_RGB{N0f8}(0.0,0.0,0.0)" stroke-dasharray="2,1" stroke="#000000" id="img-c068be6a-86">
            <g transform="translate(42.38,7)">
              <path fill="none" d="M-20.62,0 L 20.62 0" class="primitive"/>
            </g>
          </g>
        </g>
        <g stroke-width="0.3" fill="#000000" fill-opacity="0.000" class="geometry" id="img-c068be6a-87">
          <g class="color_RGB{N0f8}(0.0,0.0,0.0)" stroke-dasharray="none" stroke="#000000" id="img-c068be6a-88">
            <g transform="translate(42.38,13.58)">
              <path fill="none" d="M-20.62,31.38 L -20.48 30.95 -20.34 30.51 -20.2 30.05 -20.06 29.59 -19.93 29.11 -19.79 28.63 -19.65 28.14 -19.51 27.65 -19.37 27.15 -19.24 26.65 -19.1 26.14 -18.96 25.63 -18.82 25.12 -18.68 24.61 -18.55 24.1 -18.41 23.59 -18.27 23.08 -18.13 22.57 -18 22.06 -17.86 21.56 -17.72 21.06 -17.58 20.56 -17.44 20.07 -17.31 19.58 -17.17 19.09 -17.03 18.61 -16.89 18.13 -16.75 17.66 -16.62 17.19 -16.48 16.73 -16.34 16.27 -16.2 15.82 -16.06 15.38 -15.93 14.94 -15.79 14.51 -15.65 14.08 -15.51 13.66 -15.38 13.25 -15.24 12.84 -15.1 12.43 -14.96 12.04 -14.82 11.65 -14.69 11.27 -14.55 10.89 -14.41 10.52 -14.27 10.16 -14.13 9.8 -14 9.45 -13.86 9.1 -13.72 8.76 -13.58 8.43 -13.44 8.1 -13.31 7.78 -13.17 7.46 -13.03 7.16 -12.89 6.85 -12.76 6.55 -12.62 6.26 -12.48 5.98 -12.34 5.7 -12.2 5.42 -12.07 5.15 -11.93 4.89 -11.79 4.63 -11.65 4.38 -11.51 4.13 -11.38 3.89 -11.24 3.65 -11.1 3.41 -10.96 3.19 -10.82 2.96 -10.69 2.74 -10.55 2.53 -10.41 2.32 -10.27 2.11 -10.14 1.91 -10 1.72 -9.86 1.53 -9.72 1.34 -9.58 1.15 -9.45 0.97 -9.31 0.8 -9.17 0.63 -9.03 0.46 -8.89 0.29 -8.76 0.13 -8.62 -0.03 -8.48 -0.18 -8.34 -0.33 -8.2 -0.48 -8.07 -0.62 -7.93 -0.76 -7.79 -0.9 -7.65 -1.03 -7.52 -1.16 -7.38 -1.29 -7.24 -1.42 -7.1 -1.54 -6.96 -1.66 -6.83 -1.78 -6.69 -1.89 -6.55 -2 -6.41 -2.11 -6.27 -2.22 -6.14 -2.32 -6 -2.42 -5.86 -2.52 -5.72 -2.62 -5.58 -2.71 -5.45 -2.81 -5.31 -2.9 -5.17 -2.99 -5.03 -3.07 -4.9 -3.16 -4.76 -3.24 -4.62 -3.32 -4.48 -3.4 -4.34 -3.47 -4.21 -3.55 -4.07 -3.62 -3.93 -3.69 -3.79 -3.76 -3.65 -3.83 -3.52 -3.9 -3.38 -3.96 -3.24 -4.02 -3.1 -4.09 -2.96 -4.15 -2.83 -4.21 -2.69 -4.26 -2.55 -4.32 -2.41 -4.37 -2.28 -4.43 -2.14 -4.48 -2 -4.53 -1.86 -4.58 -1.72 -4.63 -1.59 -4.68 -1.45 -4.72 -1.31 -4.77 -1.17 -4.81 -1.03 -4.85 -0.9 -4.9 -0.76 -4.94 -0.62 -4.98 -0.48 -5.02 -0.34 -5.05 -0.21 -5.09 -0.07 -5.13 0.07 -5.16 0.21 -5.2 0.34 -5.23 0.48 -5.26 0.62 -5.3 0.76 -5.33 0.9 -5.36 1.03 -5.39 1.17 -5.42 1.31 -5.44 1.45 -5.47 1.59 -5.5 1.72 -5.53 1.86 -5.55 2 -5.58 2.14 -5.6 2.28 -5.63 2.41 -5.65 2.55 -5.67 2.69 -5.69 2.83 -5.72 2.96 -5.74 3.1 -5.76 3.24 -5.78 3.38 -5.8 3.52 -5.82 3.65 -5.83 3.79 -5.85 3.93 -5.87 4.07 -5.89 4.21 -5.91 4.34 -5.92 4.48 -5.94 4.62 -5.95 4.76 -5.97 4.9 -5.98 5.03 -6 5.17 -6.01 5.31 -6.03 5.45 -6.04 5.58 -6.05 5.72 -6.07 5.86 -6.08 6 -6.09 6.14 -6.1 6.27 -6.12 6.41 -6.13 6.55 -6.14 6.69 -6.15 6.83 -6.16 6.96 -6.17 7.1 -6.18 7.24 -6.19 7.38 -6.2 7.52 -6.21 7.65 -6.22 7.79 -6.23 7.93 -6.24 8.07 -6.24 8.2 -6.25 8.34 -6.26 8.48 -6.27 8.62 -6.28 8.76 -6.28 8.89 -6.29 9.03 -6.3 9.17 -6.31 9.31 -6.31 9.45 -6.32 9.58 -6.33 9.72 -6.33 9.86 -6.34 10 -6.34 10.14 -6.35 10.27 -6.36 10.41 -6.36 10.55 -6.37 10.69 -6.37 10.82 -6.38 10.96 -6.38 11.1 -6.39 11.24 -6.39 11.38 -6.4 11.51 -6.4 11.65 -6.41 11.79 -6.41 11.93 -6.41 12.07 -6.42 12.2 -6.42 12.34 -6.43 12.48 -6.43 12.62 -6.43 12.76 -6.44 12.89 -6.44 13.03 -6.44 13.17 -6.45 13.31 -6.45 13.44 -6.45 13.58 -6.46 13.72 -6.46 13.86 -6.46 14 -6.47 14.13 -6.47 14.27 -6.47 14.41 -6.47 14.55 -6.48 14.69 -6.48 14.82 -6.48 14.96 -6.49 15.1 -6.49 15.24 -6.49 15.38 -6.49 15.51 -6.49 15.65 -6.5 15.79 -6.5 15.93 -6.5 16.06 -6.5 16.2 -6.5 16.34 -6.51 16.48 -6.51 16.62 -6.51 16.75 -6.51 16.89 -6.51 17.03 -6.52 17.17 -6.52 17.31 -6.52 17.44 -6.52 17.58 -6.52 17.72 -6.52 17.86 -6.52 18 -6.53 18.13 -6.53 18.27 -6.53 18.41 -6.53 18.55 -6.53 18.68 -6.53 18.82 -6.53 18.96 -6.54 19.1 -6.54 19.24 -6.54 19.37 -6.54 19.51 -6.54 19.65 -6.54 19.79 -6.54 19.93 -6.54 20.06 -6.54 20.2 -6.55 20.34 -6.55 20.48 -6.55 20.62 -6.55" class="primitive"/>
            </g>
          </g>
        </g>
      </g>
    </g>
  </g>
  <g class="guide ylabels" font-size="2.82" font-family="'PT Sans Caption','Helvetica Neue','Helvetica',sans-serif" fill="#6C606B" id="img-c068be6a-89">
    <g transform="translate(18.63,48.72)">
      <g class="primitive">
        <text text-anchor="end" dy="0.35em">0</text>
      </g>
    </g>
    <g transform="translate(18.63,27.86)">
      <g class="primitive">
        <text text-anchor="end" dy="0.35em">50</text>
      </g>
    </g>
    <g transform="translate(18.63,7)">
      <g class="primitive">
        <text text-anchor="end" dy="0.35em">100</text>
      </g>
    </g>
  </g>
  <g font-size="3.88" font-family="'PT Sans','Helvetica Neue','Helvetica',sans-serif" fill="#564A55" stroke="#000000" stroke-opacity="0.000" id="img-c068be6a-90">
    <g transform="translate(8.81,25.86)">
      <g class="primitive">
        <text text-anchor="middle" dy="0.35em" transform="rotate(-90,0, 2)">Capital per capita, k</text>
      </g>
    </g>
  </g>
</g>
<defs>
  <clipPath id="img-c068be6a-4">
    <path d="M160.3,75 L 205 75 205 120.72 160.3 120.72" />
  </clipPath>
  <clipPath id="img-c068be6a-19">
    <path d="M90.3,75 L 135 75 135 120.72 90.3 120.72" />
  </clipPath>
  <clipPath id="img-c068be6a-34">
    <path d="M20.3,75 L 65 75 65 120.72 20.3 120.72" />
  </clipPath>
  <clipPath id="img-c068be6a-49">
    <path d="M157.96,5 L 205 5 205 50.72 157.96 50.72" />
  </clipPath>
  <clipPath id="img-c068be6a-64">
    <path d="M87.96,5 L 135 5 135 50.72 87.96 50.72" />
  </clipPath>
  <clipPath id="img-c068be6a-79">
    <path d="M19.63,5 L 65 5 65 50.72 19.63 50.72" />
  </clipPath>
</defs>
</svg>
