<?xml version="1.0" encoding="UTF-8"?>
<svg xmlns="http://www.w3.org/2000/svg"
     xmlns:xlink="http://www.w3.org/1999/xlink"
     xmlns:gadfly="http://www.gadflyjl.org/ns"
     version="1.2"
     width="210mm" height="70mm" viewBox="0 0 210 70"
     stroke="none"
     fill="#000000"
     stroke-width="0.3"
     font-size="3.88"
>
<g class="plotroot xscalable yscalable" id="img-c93bed79-1">
  <g font-size="3.88" font-family="'PT Sans','Helvetica Neue','Helvetica',sans-serif" fill="#564A55" stroke="#000000" stroke-opacity="0.000" id="img-c93bed79-2">
    <g transform="translate(180.64,58.39)">
      <g class="primitive">
        <text text-anchor="middle" dy="0.6em">Time</text>
      </g>
    </g>
  </g>
  <g class="guide xlabels" font-size="2.82" font-family="'PT Sans Caption','Helvetica Neue','Helvetica',sans-serif" fill="#6C606B" id="img-c93bed79-3">
    <g transform="translate(158.28,51.72)">
      <g class="primitive">
        <text text-anchor="middle" dy="0.6em">0</text>
      </g>
    </g>
    <g transform="translate(169.46,51.72)">
      <g class="primitive">
        <text text-anchor="middle" dy="0.6em">50</text>
      </g>
    </g>
    <g transform="translate(180.64,51.72)">
      <g class="primitive">
        <text text-anchor="middle" dy="0.6em">100</text>
      </g>
    </g>
    <g transform="translate(191.82,51.72)">
      <g class="primitive">
        <text text-anchor="middle" dy="0.6em">150</text>
      </g>
    </g>
    <g transform="translate(203,51.72)">
      <g class="primitive">
        <text text-anchor="middle" dy="0.6em">200</text>
      </g>
    </g>
  </g>
  <g clip-path="url(#img-c93bed79-4)">
    <g id="img-c93bed79-5">
      <g pointer-events="visible" fill-opacity="0" fill="#000000" fill-opacity="0.000" stroke="#000000" stroke-opacity="0.000" class="guide background" id="img-c93bed79-6">
        <g transform="translate(180.64,27.86)">
          <path d="M-24.36,-22.86 L 24.36 -22.86 24.36 22.86 -24.36 22.86 z" class="primitive"/>
        </g>
      </g>
      <g class="guide ygridlines xfixed" stroke-dasharray="0.5,0.5" stroke-width="0.2" stroke="#D0D0E0" id="img-c93bed79-7">
        <g transform="translate(180.64,48.72)">
          <path fill="none" d="M-24.36,0 L 24.36 0" class="primitive"/>
        </g>
        <g transform="translate(180.64,34.81)">
          <path fill="none" d="M-24.36,0 L 24.36 0" class="primitive"/>
        </g>
        <g transform="translate(180.64,20.9)">
          <path fill="none" d="M-24.36,0 L 24.36 0" class="primitive"/>
        </g>
        <g transform="translate(180.64,7)">
          <path fill="none" d="M-24.36,0 L 24.36 0" class="primitive"/>
        </g>
      </g>
      <g class="guide xgridlines yfixed" stroke-dasharray="0.5,0.5" stroke-width="0.2" stroke="#D0D0E0" id="img-c93bed79-8">
        <g transform="translate(158.28,27.86)">
          <path fill="none" d="M0,-22.86 L 0 22.86" class="primitive"/>
        </g>
        <g transform="translate(169.46,27.86)">
          <path fill="none" d="M0,-22.86 L 0 22.86" class="primitive"/>
        </g>
        <g transform="translate(180.64,27.86)">
          <path fill="none" d="M0,-22.86 L 0 22.86" class="primitive"/>
        </g>
        <g transform="translate(191.82,27.86)">
          <path fill="none" d="M0,-22.86 L 0 22.86" class="primitive"/>
        </g>
        <g transform="translate(203,27.86)">
          <path fill="none" d="M0,-22.86 L 0 22.86" class="primitive"/>
        </g>
      </g>
      <g class="plotpanel" id="img-c93bed79-9">
        <metadata>
          <boundingbox value="156.285mm 5.0mm 48.715mm 45.715mm"/>
          <unitbox value="-8.945544000894554 9.431499460625673 217.89108800178911 -9.862998921251348"/>
        </metadata>
        <g stroke-width="0.3" fill="#000000" fill-opacity="0.000" class="geometry" id="img-c93bed79-10">
          <g class="color_RGB{N0f8}(0.0,0.0,0.0)" stroke-dasharray="2,1" stroke="#000000" id="img-c93bed79-11">
            <g transform="translate(180.75,13.95)">
              <path fill="none" d="M-22.25,0 L 22.25 0" class="primitive"/>
            </g>
          </g>
        </g>
        <g stroke-width="0.3" fill="#000000" fill-opacity="0.000" class="geometry" id="img-c93bed79-12">
          <g class="color_RGB{N0f8}(0.0,0.0,0.0)" stroke-dasharray="none" stroke="#000000" id="img-c93bed79-13">
            <g transform="translate(180.75,13.26)">
              <path fill="none" d="M-22.25,-6.26 L -22.02 -5.91 -21.8 -5.58 -21.57 -5.26 -21.35 -4.96 -21.13 -4.68 -20.9 -4.41 -20.68 -4.15 -20.46 -3.91 -20.23 -3.68 -20.01 -3.46 -19.79 -3.25 -19.56 -3.06 -19.34 -2.87 -19.12 -2.69 -18.89 -2.52 -18.67 -2.36 -18.44 -2.21 -18.22 -2.06 -18 -1.92 -17.77 -1.79 -17.55 -1.67 -17.33 -1.55 -17.1 -1.44 -16.88 -1.33 -16.66 -1.23 -16.43 -1.13 -16.21 -1.04 -15.99 -0.95 -15.76 -0.87 -15.54 -0.79 -15.31 -0.72 -15.09 -0.65 -14.87 -0.58 -14.64 -0.52 -14.42 -0.46 -14.2 -0.4 -13.97 -0.34 -13.75 -0.29 -13.53 -0.24 -13.3 -0.2 -13.08 -0.15 -12.86 -0.11 -12.63 -0.07 -12.41 -0.03 -12.18 0.01 -11.96 0.04 -11.74 0.07 -11.51 0.1 -11.29 0.13 -11.07 0.16 -10.84 0.19 -10.62 0.21 -10.4 0.24 -10.17 0.26 -9.95 0.28 -9.73 0.3 -9.5 0.32 -9.28 0.34 -9.05 0.36 -8.83 0.37 -8.61 0.39 -8.38 0.41 -8.16 0.42 -7.94 0.43 -7.71 0.45 -7.49 0.46 -7.27 0.47 -7.04 0.48 -6.82 0.49 -6.6 0.5 -6.37 0.51 -6.15 0.52 -5.92 0.53 -5.7 0.54 -5.48 0.55 -5.25 0.55 -5.03 0.56 -4.81 0.57 -4.58 0.57 -4.36 0.58 -4.14 0.59 -3.91 0.59 -3.69 0.6 -3.47 0.6 -3.24 0.61 -3.02 0.61 -2.79 0.61 -2.57 0.62 -2.35 0.62 -2.12 0.63 -1.9 0.63 -1.68 0.63 -1.45 0.63 -1.23 0.64 -1.01 0.64 -0.78 0.64 -0.56 0.65 -0.34 0.65 -0.11 0.65 0.11 0.65 0.34 0.65 0.56 0.66 0.78 0.66 1.01 0.66 1.23 0.66 1.45 0.66 1.68 0.67 1.9 0.67 2.12 0.67 2.35 0.67 2.57 0.67 2.79 0.67 3.02 0.67 3.24 0.67 3.47 0.67 3.69 0.68 3.91 0.68 4.14 0.68 4.36 0.68 4.58 0.68 4.81 0.68 5.03 0.68 5.25 0.68 5.48 0.68 5.7 0.68 5.92 0.68 6.15 0.68 6.37 0.68 6.6 0.68 6.82 0.68 7.04 0.69 7.27 0.69 7.49 0.69 7.71 0.69 7.94 0.69 8.16 0.69 8.38 0.69 8.61 0.69 8.83 0.69 9.05 0.69 9.28 0.69 9.5 0.69 9.73 0.69 9.95 0.69 10.17 0.69 10.4 0.69 10.62 0.69 10.84 0.69 11.07 0.69 11.29 0.69 11.51 0.69 11.74 0.69 11.96 0.69 12.18 0.69 12.41 0.69 12.63 0.69 12.86 0.69 13.08 0.69 13.3 0.69 13.53 0.69 13.75 0.69 13.97 0.69 14.2 0.69 14.42 0.69 14.64 0.69 14.87 0.69 15.09 0.69 15.31 0.69 15.54 0.69 15.76 0.69 15.99 0.69 16.21 0.69 16.43 0.69 16.66 0.69 16.88 0.69 17.1 0.69 17.33 0.69 17.55 0.69 17.77 0.69 18 0.69 18.22 0.69 18.44 0.69 18.67 0.69 18.89 0.69 19.12 0.69 19.34 0.69 19.56 0.69 19.79 0.69 20.01 0.69 20.23 0.69 20.46 0.69 20.68 0.69 20.9 0.69 21.13 0.69 21.35 0.69 21.57 0.69 21.8 0.69 22.02 0.69 22.25 0.69" class="primitive"/>
            </g>
          </g>
        </g>
      </g>
    </g>
  </g>
  <g class="guide ylabels" font-size="2.82" font-family="'PT Sans Caption','Helvetica Neue','Helvetica',sans-serif" fill="#6C606B" id="img-c93bed79-14">
    <g transform="translate(155.29,48.72)">
      <g class="primitive">
        <text text-anchor="end" dy="0.35em">0</text>
      </g>
    </g>
    <g transform="translate(155.29,34.81)">
      <g class="primitive">
        <text text-anchor="end" dy="0.35em">3</text>
      </g>
    </g>
    <g transform="translate(155.29,20.9)">
      <g class="primitive">
        <text text-anchor="end" dy="0.35em">6</text>
      </g>
    </g>
    <g transform="translate(155.29,7)">
      <g class="primitive">
        <text text-anchor="end" dy="0.35em">9</text>
      </g>
    </g>
  </g>
  <g font-size="3.88" font-family="'PT Sans','Helvetica Neue','Helvetica',sans-serif" fill="#564A55" stroke="#000000" stroke-opacity="0.000" id="img-c93bed79-15">
    <g transform="translate(148.81,25.86)">
      <g class="primitive">
        <text text-anchor="middle" dy="0.35em" transform="rotate(-90,0, 2)">Consumption per capita, c</text>
      </g>
    </g>
  </g>
</g>
<g class="plotroot xscalable yscalable" id="img-c93bed79-16">
  <g font-size="3.88" font-family="'PT Sans','Helvetica Neue','Helvetica',sans-serif" fill="#564A55" stroke="#000000" stroke-opacity="0.000" id="img-c93bed79-17">
    <g transform="translate(111.48,58.39)">
      <g class="primitive">
        <text text-anchor="middle" dy="0.6em">Time</text>
      </g>
    </g>
  </g>
  <g class="guide xlabels" font-size="2.82" font-family="'PT Sans Caption','Helvetica Neue','Helvetica',sans-serif" fill="#6C606B" id="img-c93bed79-18">
    <g transform="translate(89.96,51.72)">
      <g class="primitive">
        <text text-anchor="middle" dy="0.6em">0</text>
      </g>
    </g>
    <g transform="translate(100.72,51.72)">
      <g class="primitive">
        <text text-anchor="middle" dy="0.6em">50</text>
      </g>
    </g>
    <g transform="translate(111.48,51.72)">
      <g class="primitive">
        <text text-anchor="middle" dy="0.6em">100</text>
      </g>
    </g>
    <g transform="translate(122.24,51.72)">
      <g class="primitive">
        <text text-anchor="middle" dy="0.6em">150</text>
      </g>
    </g>
    <g transform="translate(133,51.72)">
      <g class="primitive">
        <text text-anchor="middle" dy="0.6em">200</text>
      </g>
    </g>
  </g>
  <g clip-path="url(#img-c93bed79-19)">
    <g id="img-c93bed79-20">
      <g pointer-events="visible" fill-opacity="0" fill="#000000" fill-opacity="0.000" stroke="#000000" stroke-opacity="0.000" class="guide background" id="img-c93bed79-21">
        <g transform="translate(111.48,27.86)">
          <path d="M-23.52,-22.86 L 23.52 -22.86 23.52 22.86 -23.52 22.86 z" class="primitive"/>
        </g>
      </g>
      <g class="guide ygridlines xfixed" stroke-dasharray="0.5,0.5" stroke-width="0.2" stroke="#D0D0E0" id="img-c93bed79-22">
        <g transform="translate(111.48,48.72)">
          <path fill="none" d="M-23.52,0 L 23.52 0" class="primitive"/>
        </g>
        <g transform="translate(111.48,41.76)">
          <path fill="none" d="M-23.52,0 L 23.52 0" class="primitive"/>
        </g>
        <g transform="translate(111.48,34.81)">
          <path fill="none" d="M-23.52,0 L 23.52 0" class="primitive"/>
        </g>
        <g transform="translate(111.48,27.86)">
          <path fill="none" d="M-23.52,0 L 23.52 0" class="primitive"/>
        </g>
        <g transform="translate(111.48,20.9)">
          <path fill="none" d="M-23.52,0 L 23.52 0" class="primitive"/>
        </g>
        <g transform="translate(111.48,13.95)">
          <path fill="none" d="M-23.52,0 L 23.52 0" class="primitive"/>
        </g>
        <g transform="translate(111.48,7)">
          <path fill="none" d="M-23.52,0 L 23.52 0" class="primitive"/>
        </g>
      </g>
      <g class="guide xgridlines yfixed" stroke-dasharray="0.5,0.5" stroke-width="0.2" stroke="#D0D0E0" id="img-c93bed79-23">
        <g transform="translate(89.96,27.86)">
          <path fill="none" d="M0,-22.86 L 0 22.86" class="primitive"/>
        </g>
        <g transform="translate(100.72,27.86)">
          <path fill="none" d="M0,-22.86 L 0 22.86" class="primitive"/>
        </g>
        <g transform="translate(111.48,27.86)">
          <path fill="none" d="M0,-22.86 L 0 22.86" class="primitive"/>
        </g>
        <g transform="translate(122.24,27.86)">
          <path fill="none" d="M0,-22.86 L 0 22.86" class="primitive"/>
        </g>
        <g transform="translate(133,27.86)">
          <path fill="none" d="M0,-22.86 L 0 22.86" class="primitive"/>
        </g>
      </g>
      <g class="plotpanel" id="img-c93bed79-24">
        <metadata>
          <boundingbox value="87.95833333333333mm 5.0mm 47.04166666666667mm 45.715mm"/>
          <unitbox value="-9.293320425943852 12.575332614167566 218.58664085188772 -13.15066522833513"/>
        </metadata>
        <g stroke-width="0.3" fill="#000000" fill-opacity="0.000" class="geometry" id="img-c93bed79-25">
          <g class="color_RGB{N0f8}(0.0,0.0,0.0)" stroke-dasharray="2,1" stroke="#000000" id="img-c93bed79-26">
            <g transform="translate(111.59,13.95)">
              <path fill="none" d="M-21.41,0 L 21.41 0" class="primitive"/>
            </g>
          </g>
        </g>
        <g stroke-width="0.3" fill="#000000" fill-opacity="0.000" class="geometry" id="img-c93bed79-27">
          <g class="color_RGB{N0f8}(0.0,0.0,0.0)" stroke-dasharray="none" stroke="#000000" id="img-c93bed79-28">
            <g transform="translate(111.59,13.26)">
              <path fill="none" d="M-21.41,-6.26 L -21.2 -5.91 -20.98 -5.58 -20.77 -5.26 -20.55 -4.96 -20.34 -4.68 -20.12 -4.41 -19.91 -4.15 -19.69 -3.91 -19.48 -3.68 -19.26 -3.46 -19.05 -3.25 -18.83 -3.06 -18.62 -2.87 -18.4 -2.69 -18.19 -2.52 -17.97 -2.36 -17.75 -2.21 -17.54 -2.06 -17.32 -1.92 -17.11 -1.79 -16.89 -1.67 -16.68 -1.55 -16.46 -1.44 -16.25 -1.33 -16.03 -1.23 -15.82 -1.13 -15.6 -1.04 -15.39 -0.95 -15.17 -0.87 -14.96 -0.79 -14.74 -0.72 -14.53 -0.65 -14.31 -0.58 -14.1 -0.52 -13.88 -0.46 -13.67 -0.4 -13.45 -0.34 -13.24 -0.29 -13.02 -0.24 -12.8 -0.2 -12.59 -0.15 -12.37 -0.11 -12.16 -0.07 -11.94 -0.03 -11.73 0.01 -11.51 0.04 -11.3 0.07 -11.08 0.1 -10.87 0.13 -10.65 0.16 -10.44 0.19 -10.22 0.21 -10.01 0.24 -9.79 0.26 -9.58 0.28 -9.36 0.3 -9.15 0.32 -8.93 0.34 -8.72 0.36 -8.5 0.37 -8.29 0.39 -8.07 0.41 -7.86 0.42 -7.64 0.43 -7.42 0.45 -7.21 0.46 -6.99 0.47 -6.78 0.48 -6.56 0.49 -6.35 0.5 -6.13 0.51 -5.92 0.52 -5.7 0.53 -5.49 0.54 -5.27 0.55 -5.06 0.55 -4.84 0.56 -4.63 0.57 -4.41 0.57 -4.2 0.58 -3.98 0.59 -3.77 0.59 -3.55 0.6 -3.34 0.6 -3.12 0.61 -2.91 0.61 -2.69 0.61 -2.47 0.62 -2.26 0.62 -2.04 0.63 -1.83 0.63 -1.61 0.63 -1.4 0.63 -1.18 0.64 -0.97 0.64 -0.75 0.64 -0.54 0.65 -0.32 0.65 -0.11 0.65 0.11 0.65 0.32 0.65 0.54 0.66 0.75 0.66 0.97 0.66 1.18 0.66 1.4 0.66 1.61 0.67 1.83 0.67 2.04 0.67 2.26 0.67 2.47 0.67 2.69 0.67 2.91 0.67 3.12 0.67 3.34 0.67 3.55 0.68 3.77 0.68 3.98 0.68 4.2 0.68 4.41 0.68 4.63 0.68 4.84 0.68 5.06 0.68 5.27 0.68 5.49 0.68 5.7 0.68 5.92 0.68 6.13 0.68 6.35 0.68 6.56 0.68 6.78 0.69 6.99 0.69 7.21 0.69 7.42 0.69 7.64 0.69 7.86 0.69 8.07 0.69 8.29 0.69 8.5 0.69 8.72 0.69 8.93 0.69 9.15 0.69 9.36 0.69 9.58 0.69 9.79 0.69 10.01 0.69 10.22 0.69 10.44 0.69 10.65 0.69 10.87 0.69 11.08 0.69 11.3 0.69 11.51 0.69 11.73 0.69 11.94 0.69 12.16 0.69 12.37 0.69 12.59 0.69 12.8 0.69 13.02 0.69 13.24 0.69 13.45 0.69 13.67 0.69 13.88 0.69 14.1 0.69 14.31 0.69 14.53 0.69 14.74 0.69 14.96 0.69 15.17 0.69 15.39 0.69 15.6 0.69 15.82 0.69 16.03 0.69 16.25 0.69 16.46 0.69 16.68 0.69 16.89 0.69 17.11 0.69 17.32 0.69 17.54 0.69 17.75 0.69 17.97 0.69 18.19 0.69 18.4 0.69 18.62 0.69 18.83 0.69 19.05 0.69 19.26 0.69 19.48 0.69 19.69 0.69 19.91 0.69 20.12 0.69 20.34 0.69 20.55 0.69 20.77 0.69 20.98 0.69 21.2 0.69 21.41 0.69" class="primitive"/>
            </g>
          </g>
        </g>
      </g>
    </g>
  </g>
  <g class="guide ylabels" font-size="2.82" font-family="'PT Sans Caption','Helvetica Neue','Helvetica',sans-serif" fill="#6C606B" id="img-c93bed79-29">
    <g transform="translate(86.96,48.72)">
      <g class="primitive">
        <text text-anchor="end" dy="0.35em">0</text>
      </g>
    </g>
    <g transform="translate(86.96,41.76)">
      <g class="primitive">
        <text text-anchor="end" dy="0.35em">2</text>
      </g>
    </g>
    <g transform="translate(86.96,34.81)">
      <g class="primitive">
        <text text-anchor="end" dy="0.35em">4</text>
      </g>
    </g>
    <g transform="translate(86.96,27.86)">
      <g class="primitive">
        <text text-anchor="end" dy="0.35em">6</text>
      </g>
    </g>
    <g transform="translate(86.96,20.9)">
      <g class="primitive">
        <text text-anchor="end" dy="0.35em">8</text>
      </g>
    </g>
    <g transform="translate(86.96,13.95)">
      <g class="primitive">
        <text text-anchor="end" dy="0.35em">10</text>
      </g>
    </g>
    <g transform="translate(86.96,7)">
      <g class="primitive">
        <text text-anchor="end" dy="0.35em">12</text>
      </g>
    </g>
  </g>
  <g font-size="3.88" font-family="'PT Sans','Helvetica Neue','Helvetica',sans-serif" fill="#564A55" stroke="#000000" stroke-opacity="0.000" id="img-c93bed79-30">
    <g transform="translate(78.81,25.86)">
      <g class="primitive">
        <text text-anchor="middle" dy="0.35em" transform="rotate(-90,0, 2)">Output per capita, y</text>
      </g>
    </g>
  </g>
</g>
<g class="plotroot xscalable yscalable" id="img-c93bed79-31">
  <g font-size="3.88" font-family="'PT Sans','Helvetica Neue','Helvetica',sans-serif" fill="#564A55" stroke="#000000" stroke-opacity="0.000" id="img-c93bed79-32">
    <g transform="translate(41.48,58.39)">
      <g class="primitive">
        <text text-anchor="middle" dy="0.6em">Time</text>
      </g>
    </g>
  </g>
  <g class="guide xlabels" font-size="2.82" font-family="'PT Sans Caption','Helvetica Neue','Helvetica',sans-serif" fill="#6C606B" id="img-c93bed79-33">
    <g transform="translate(19.96,51.72)">
      <g class="primitive">
        <text text-anchor="middle" dy="0.6em">0</text>
      </g>
    </g>
    <g transform="translate(30.72,51.72)">
      <g class="primitive">
        <text text-anchor="middle" dy="0.6em">50</text>
      </g>
    </g>
    <g transform="translate(41.48,51.72)">
      <g class="primitive">
        <text text-anchor="middle" dy="0.6em">100</text>
      </g>
    </g>
    <g transform="translate(52.24,51.72)">
      <g class="primitive">
        <text text-anchor="middle" dy="0.6em">150</text>
      </g>
    </g>
    <g transform="translate(63,51.72)">
      <g class="primitive">
        <text text-anchor="middle" dy="0.6em">200</text>
      </g>
    </g>
  </g>
  <g clip-path="url(#img-c93bed79-34)">
    <g id="img-c93bed79-35">
      <g pointer-events="visible" fill-opacity="0" fill="#000000" fill-opacity="0.000" stroke="#000000" stroke-opacity="0.000" class="guide background" id="img-c93bed79-36">
        <g transform="translate(41.48,27.86)">
          <path d="M-23.52,-22.86 L 23.52 -22.86 23.52 22.86 -23.52 22.86 z" class="primitive"/>
        </g>
      </g>
      <g class="guide ygridlines xfixed" stroke-dasharray="0.5,0.5" stroke-width="0.2" stroke="#D0D0E0" id="img-c93bed79-37">
        <g transform="translate(41.48,48.72)">
          <path fill="none" d="M-23.52,0 L 23.52 0" class="primitive"/>
        </g>
        <g transform="translate(41.48,37.13)">
          <path fill="none" d="M-23.52,0 L 23.52 0" class="primitive"/>
        </g>
        <g transform="translate(41.48,25.54)">
          <path fill="none" d="M-23.52,0 L 23.52 0" class="primitive"/>
        </g>
        <g transform="translate(41.48,13.95)">
          <path fill="none" d="M-23.52,0 L 23.52 0" class="primitive"/>
        </g>
      </g>
      <g class="guide xgridlines yfixed" stroke-dasharray="0.5,0.5" stroke-width="0.2" stroke="#D0D0E0" id="img-c93bed79-38">
        <g transform="translate(19.96,27.86)">
          <path fill="none" d="M0,-22.86 L 0 22.86" class="primitive"/>
        </g>
        <g transform="translate(30.72,27.86)">
          <path fill="none" d="M0,-22.86 L 0 22.86" class="primitive"/>
        </g>
        <g transform="translate(41.48,27.86)">
          <path fill="none" d="M0,-22.86 L 0 22.86" class="primitive"/>
        </g>
        <g transform="translate(52.24,27.86)">
          <path fill="none" d="M0,-22.86 L 0 22.86" class="primitive"/>
        </g>
        <g transform="translate(63,27.86)">
          <path fill="none" d="M0,-22.86 L 0 22.86" class="primitive"/>
        </g>
      </g>
      <g class="plotpanel" id="img-c93bed79-39">
        <metadata>
          <boundingbox value="17.95833333333333mm 5.0mm 47.04166666666667mm 45.715mm"/>
          <unitbox value="-9.293320425943852 37.72599784250269 218.58664085188772 -39.45199568500539"/>
        </metadata>
        <g stroke-width="0.3" fill="#000000" fill-opacity="0.000" class="geometry" id="img-c93bed79-40">
          <g class="color_RGB{N0f8}(0.0,0.0,0.0)" stroke-dasharray="2,1" stroke="#000000" id="img-c93bed79-41">
            <g transform="translate(41.59,19.75)">
              <path fill="none" d="M-21.41,0 L 21.41 0" class="primitive"/>
            </g>
          </g>
        </g>
        <g stroke-width="0.3" fill="#000000" fill-opacity="0.000" class="geometry" id="img-c93bed79-42">
          <g class="color_RGB{N0f8}(0.0,0.0,0.0)" stroke-dasharray="none" stroke="#000000" id="img-c93bed79-43">
            <g transform="translate(41.59,18.53)">
              <path fill="none" d="M-21.41,-11.53 L -21.2 -10.84 -20.98 -10.18 -20.77 -9.56 -20.55 -8.98 -20.34 -8.43 -20.12 -7.92 -19.91 -7.43 -19.69 -6.97 -19.48 -6.53 -19.26 -6.12 -19.05 -5.74 -18.83 -5.37 -18.62 -5.02 -18.4 -4.7 -18.19 -4.39 -17.97 -4.09 -17.75 -3.82 -17.54 -3.56 -17.32 -3.31 -17.11 -3.07 -16.89 -2.85 -16.68 -2.64 -16.46 -2.44 -16.25 -2.26 -16.03 -2.08 -15.82 -1.91 -15.6 -1.75 -15.39 -1.6 -15.17 -1.45 -14.96 -1.32 -14.74 -1.19 -14.53 -1.06 -14.31 -0.95 -14.1 -0.84 -13.88 -0.73 -13.67 -0.63 -13.45 -0.54 -13.24 -0.45 -13.02 -0.37 -12.8 -0.29 -12.59 -0.21 -12.37 -0.14 -12.16 -0.07 -11.94 -0.01 -11.73 0.06 -11.51 0.12 -11.3 0.17 -11.08 0.22 -10.87 0.27 -10.65 0.32 -10.44 0.37 -10.22 0.41 -10.01 0.45 -9.79 0.49 -9.58 0.52 -9.36 0.56 -9.15 0.59 -8.93 0.62 -8.72 0.65 -8.5 0.68 -8.29 0.71 -8.07 0.73 -7.86 0.76 -7.64 0.78 -7.42 0.8 -7.21 0.82 -6.99 0.84 -6.78 0.86 -6.56 0.88 -6.35 0.9 -6.13 0.91 -5.92 0.93 -5.7 0.94 -5.49 0.96 -5.27 0.97 -5.06 0.98 -4.84 0.99 -4.63 1 -4.41 1.01 -4.2 1.02 -3.98 1.03 -3.77 1.04 -3.55 1.05 -3.34 1.06 -3.12 1.07 -2.91 1.08 -2.69 1.08 -2.47 1.09 -2.26 1.1 -2.04 1.1 -1.83 1.11 -1.61 1.11 -1.4 1.12 -1.18 1.12 -0.97 1.13 -0.75 1.13 -0.54 1.14 -0.32 1.14 -0.11 1.14 0.11 1.15 0.32 1.15 0.54 1.15 0.75 1.16 0.97 1.16 1.18 1.16 1.4 1.17 1.61 1.17 1.83 1.17 2.04 1.17 2.26 1.17 2.47 1.18 2.69 1.18 2.91 1.18 3.12 1.18 3.34 1.18 3.55 1.19 3.77 1.19 3.98 1.19 4.2 1.19 4.41 1.19 4.63 1.19 4.84 1.19 5.06 1.19 5.27 1.2 5.49 1.2 5.7 1.2 5.92 1.2 6.13 1.2 6.35 1.2 6.56 1.2 6.78 1.2 6.99 1.2 7.21 1.2 7.42 1.2 7.64 1.2 7.86 1.2 8.07 1.21 8.29 1.21 8.5 1.21 8.72 1.21 8.93 1.21 9.15 1.21 9.36 1.21 9.58 1.21 9.79 1.21 10.01 1.21 10.22 1.21 10.44 1.21 10.65 1.21 10.87 1.21 11.08 1.21 11.3 1.21 11.51 1.21 11.73 1.21 11.94 1.21 12.16 1.21 12.37 1.21 12.59 1.21 12.8 1.21 13.02 1.21 13.24 1.21 13.45 1.21 13.67 1.21 13.88 1.21 14.1 1.21 14.31 1.21 14.53 1.21 14.74 1.21 14.96 1.21 15.17 1.21 15.39 1.21 15.6 1.21 15.82 1.21 16.03 1.21 16.25 1.21 16.46 1.21 16.68 1.21 16.89 1.21 17.11 1.21 17.32 1.21 17.54 1.21 17.75 1.21 17.97 1.21 18.19 1.21 18.4 1.21 18.62 1.21 18.83 1.21 19.05 1.21 19.26 1.21 19.48 1.21 19.69 1.21 19.91 1.21 20.12 1.21 20.34 1.21 20.55 1.21 20.77 1.21 20.98 1.21 21.2 1.21 21.41 1.21" class="primitive"/>
            </g>
          </g>
        </g>
      </g>
    </g>
  </g>
  <g class="guide ylabels" font-size="2.82" font-family="'PT Sans Caption','Helvetica Neue','Helvetica',sans-serif" fill="#6C606B" id="img-c93bed79-44">
    <g transform="translate(16.96,48.72)">
      <g class="primitive">
        <text text-anchor="end" dy="0.35em">0</text>
      </g>
    </g>
    <g transform="translate(16.96,37.13)">
      <g class="primitive">
        <text text-anchor="end" dy="0.35em">10</text>
      </g>
    </g>
    <g transform="translate(16.96,25.54)">
      <g class="primitive">
        <text text-anchor="end" dy="0.35em">20</text>
      </g>
    </g>
    <g transform="translate(16.96,13.95)">
      <g class="primitive">
        <text text-anchor="end" dy="0.35em">30</text>
      </g>
    </g>
  </g>
  <g font-size="3.88" font-family="'PT Sans','Helvetica Neue','Helvetica',sans-serif" fill="#564A55" stroke="#000000" stroke-opacity="0.000" id="img-c93bed79-45">
    <g transform="translate(8.81,25.86)">
      <g class="primitive">
        <text text-anchor="middle" dy="0.35em" transform="rotate(-90,0, 2)">Capital per capita, k</text>
      </g>
    </g>
  </g>
</g>
<defs>
  <clipPath id="img-c93bed79-4">
    <path d="M156.28,5 L 205 5 205 50.72 156.28 50.72" />
  </clipPath>
  <clipPath id="img-c93bed79-19">
    <path d="M87.96,5 L 135 5 135 50.72 87.96 50.72" />
  </clipPath>
  <clipPath id="img-c93bed79-34">
    <path d="M17.96,5 L 65 5 65 50.72 17.96 50.72" />
  </clipPath>
</defs>
</svg>
