<?xml version="1.0" encoding="UTF-8"?>
<svg xmlns="http://www.w3.org/2000/svg"
     xmlns:xlink="http://www.w3.org/1999/xlink"
     xmlns:gadfly="http://www.gadflyjl.org/ns"
     version="1.2"
     width="210mm" height="70mm" viewBox="0 0 210 70"
     stroke="none"
     fill="#000000"
     stroke-width="0.3"
     font-size="3.88"
>
<g class="plotroot xscalable yscalable" id="img-f9b878e0-1">
  <g font-size="3.88" font-family="'PT Sans','Helvetica Neue','Helvetica',sans-serif" fill="#564A55" stroke="#000000" stroke-opacity="0.000" id="img-f9b878e0-2">
    <g transform="translate(181.48,58.39)">
      <g class="primitive">
        <text text-anchor="middle" dy="0.6em">Time</text>
      </g>
    </g>
  </g>
  <g class="guide xlabels" font-size="2.82" font-family="'PT Sans Caption','Helvetica Neue','Helvetica',sans-serif" fill="#6C606B" id="img-f9b878e0-3">
    <g transform="translate(159.96,51.72)">
      <g class="primitive">
        <text text-anchor="middle" dy="0.6em">0</text>
      </g>
    </g>
    <g transform="translate(170.72,51.72)">
      <g class="primitive">
        <text text-anchor="middle" dy="0.6em">50</text>
      </g>
    </g>
    <g transform="translate(181.48,51.72)">
      <g class="primitive">
        <text text-anchor="middle" dy="0.6em">100</text>
      </g>
    </g>
    <g transform="translate(192.24,51.72)">
      <g class="primitive">
        <text text-anchor="middle" dy="0.6em">150</text>
      </g>
    </g>
    <g transform="translate(203,51.72)">
      <g class="primitive">
        <text text-anchor="middle" dy="0.6em">200</text>
      </g>
    </g>
  </g>
  <g clip-path="url(#img-f9b878e0-4)">
    <g id="img-f9b878e0-5">
      <g pointer-events="visible" fill-opacity="0" fill="#000000" fill-opacity="0.000" stroke="#000000" stroke-opacity="0.000" class="guide background" id="img-f9b878e0-6">
        <g transform="translate(181.48,27.86)">
          <path d="M-23.52,-22.86 L 23.52 -22.86 23.52 22.86 -23.52 22.86 z" class="primitive"/>
        </g>
      </g>
      <g class="guide ygridlines xfixed" stroke-dasharray="0.5,0.5" stroke-width="0.2" stroke="#D0D0E0" id="img-f9b878e0-7">
        <g transform="translate(181.48,48.72)">
          <path fill="none" d="M-23.52,0 L 23.52 0" class="primitive"/>
        </g>
        <g transform="translate(181.48,27.86)">
          <path fill="none" d="M-23.52,0 L 23.52 0" class="primitive"/>
        </g>
        <g transform="translate(181.48,7)">
          <path fill="none" d="M-23.52,0 L 23.52 0" class="primitive"/>
        </g>
      </g>
      <g class="guide xgridlines yfixed" stroke-dasharray="0.5,0.5" stroke-width="0.2" stroke="#D0D0E0" id="img-f9b878e0-8">
        <g transform="translate(159.96,27.86)">
          <path fill="none" d="M0,-22.86 L 0 22.86" class="primitive"/>
        </g>
        <g transform="translate(170.72,27.86)">
          <path fill="none" d="M0,-22.86 L 0 22.86" class="primitive"/>
        </g>
        <g transform="translate(181.48,27.86)">
          <path fill="none" d="M0,-22.86 L 0 22.86" class="primitive"/>
        </g>
        <g transform="translate(192.24,27.86)">
          <path fill="none" d="M0,-22.86 L 0 22.86" class="primitive"/>
        </g>
        <g transform="translate(203,27.86)">
          <path fill="none" d="M0,-22.86 L 0 22.86" class="primitive"/>
        </g>
      </g>
      <g class="plotpanel" id="img-f9b878e0-9">
        <metadata>
          <boundingbox value="157.95833333333331mm 5.0mm 47.04166666666667mm 45.715mm"/>
          <unitbox value="-9.293320425943852 10.479443845139638 218.58664085188772 -10.958887690279276"/>
        </metadata>
        <g stroke-width="0.3" fill="#000000" fill-opacity="0.000" class="geometry" id="img-f9b878e0-10">
          <g class="color_RGB{N0f8}(0.0,0.0,0.0)" stroke-dasharray="2,1" stroke="#000000" id="img-f9b878e0-11">
            <g transform="translate(170.72,33.07)">
              <path fill="none" d="M0,15.64 L 0 -15.64" class="primitive"/>
            </g>
          </g>
        </g>
        <g stroke-width="0.3" fill="#000000" fill-opacity="0.000" class="geometry" id="img-f9b878e0-12">
          <g class="color_RGB{N0f8}(0.0,0.0,0.0)" stroke-dasharray="none" stroke="#000000" id="img-f9b878e0-13">
            <g transform="translate(181.59,25.49)">
              <path fill="none" d="M-21.41,-8.06 L -21.2 -8.06 -20.98 -8.06 -20.77 -8.06 -20.55 -8.06 -20.34 -8.06 -20.12 -8.06 -19.91 -8.06 -19.69 -8.06 -19.48 -8.06 -19.26 -8.06 -19.05 -8.06 -18.83 -8.06 -18.62 -8.06 -18.4 -8.06 -18.19 -8.06 -17.97 -8.06 -17.75 -8.06 -17.54 -8.06 -17.32 -8.06 -17.11 -8.06 -16.89 -8.06 -16.68 -8.06 -16.46 -8.06 -16.25 -8.06 -16.03 -8.06 -15.82 -8.06 -15.6 -8.06 -15.39 -8.06 -15.17 -8.06 -14.96 -8.06 -14.74 -8.06 -14.53 -8.06 -14.31 -8.06 -14.1 -8.06 -13.88 -8.06 -13.67 -8.06 -13.45 -8.06 -13.24 -8.06 -13.02 -8.06 -12.8 -8.06 -12.59 -8.06 -12.37 -8.06 -12.16 -8.06 -11.94 -8.06 -11.73 -8.06 -11.51 -8.06 -11.3 -8.06 -11.08 -8.06 -10.87 -8.06 -10.65 -12.35 -10.44 -11.47 -10.22 -10.64 -10.01 -9.85 -9.79 -9.1 -9.58 -8.39 -9.36 -7.71 -9.15 -7.07 -8.93 -6.46 -8.72 -5.88 -8.5 -5.34 -8.29 -4.82 -8.07 -4.32 -7.86 -3.85 -7.64 -3.41 -7.42 -2.99 -7.21 -2.58 -6.99 -2.2 -6.78 -1.84 -6.56 -1.5 -6.35 -1.17 -6.13 -0.86 -5.92 -0.57 -5.7 -0.29 -5.49 -0.03 -5.27 0.23 -5.06 0.47 -4.84 0.69 -4.63 0.91 -4.41 1.11 -4.2 1.31 -3.98 1.49 -3.77 1.67 -3.55 1.83 -3.34 1.99 -3.12 2.14 -2.91 2.28 -2.69 2.42 -2.47 2.55 -2.26 2.67 -2.04 2.78 -1.83 2.89 -1.61 3 -1.4 3.1 -1.18 3.19 -0.97 3.28 -0.75 3.37 -0.54 3.45 -0.32 3.52 -0.11 3.6 0.11 3.67 0.32 3.73 0.54 3.79 0.75 3.85 0.97 3.91 1.18 3.96 1.4 4.01 1.61 4.06 1.83 4.11 2.04 4.15 2.26 4.19 2.47 4.23 2.69 4.27 2.91 4.3 3.12 4.34 3.34 4.37 3.55 4.4 3.77 4.43 3.98 4.46 4.2 4.48 4.41 4.51 4.63 4.53 4.84 4.55 5.06 4.57 5.27 4.59 5.49 4.61 5.7 4.63 5.92 4.65 6.13 4.67 6.35 4.68 6.56 4.7 6.78 4.71 6.99 4.72 7.21 4.74 7.42 4.75 7.64 4.76 7.86 4.77 8.07 4.78 8.29 4.79 8.5 4.8 8.72 4.81 8.93 4.82 9.15 4.83 9.36 4.83 9.58 4.84 9.79 4.85 10.01 4.85 10.22 4.86 10.44 4.87 10.65 4.87 10.87 4.88 11.08 4.88 11.3 4.89 11.51 4.89 11.73 4.9 11.94 4.9 12.16 4.9 12.37 4.91 12.59 4.91 12.8 4.91 13.02 4.92 13.24 4.92 13.45 4.92 13.67 4.93 13.88 4.93 14.1 4.93 14.31 4.93 14.53 4.94 14.74 4.94 14.96 4.94 15.17 4.94 15.39 4.94 15.6 4.95 15.82 4.95 16.03 4.95 16.25 4.95 16.46 4.95 16.68 4.95 16.89 4.95 17.11 4.95 17.32 4.96 17.54 4.96 17.75 4.96 17.97 4.96 18.19 4.96 18.4 4.96 18.62 4.96 18.83 4.96 19.05 4.96 19.26 4.96 19.48 4.96 19.69 4.97 19.91 4.97 20.12 4.97 20.34 4.97 20.55 4.97 20.77 4.97 20.98 4.97 21.2 4.97 21.41 4.97" class="primitive"/>
            </g>
          </g>
        </g>
      </g>
    </g>
  </g>
  <g class="guide ylabels" font-size="2.82" font-family="'PT Sans Caption','Helvetica Neue','Helvetica',sans-serif" fill="#6C606B" id="img-f9b878e0-14">
    <g transform="translate(156.96,48.72)">
      <g class="primitive">
        <text text-anchor="end" dy="0.35em">0</text>
      </g>
    </g>
    <g transform="translate(156.96,27.86)">
      <g class="primitive">
        <text text-anchor="end" dy="0.35em">5</text>
      </g>
    </g>
    <g transform="translate(156.96,7)">
      <g class="primitive">
        <text text-anchor="end" dy="0.35em">10</text>
      </g>
    </g>
  </g>
  <g font-size="3.88" font-family="'PT Sans','Helvetica Neue','Helvetica',sans-serif" fill="#564A55" stroke="#000000" stroke-opacity="0.000" id="img-f9b878e0-15">
    <g transform="translate(148.81,25.86)">
      <g class="primitive">
        <text text-anchor="middle" dy="0.35em" transform="rotate(-90,0, 2)">Consumption per capita, c</text>
      </g>
    </g>
  </g>
</g>
<g class="plotroot xscalable yscalable" id="img-f9b878e0-16">
  <g font-size="3.88" font-family="'PT Sans','Helvetica Neue','Helvetica',sans-serif" fill="#564A55" stroke="#000000" stroke-opacity="0.000" id="img-f9b878e0-17">
    <g transform="translate(111.48,58.39)">
      <g class="primitive">
        <text text-anchor="middle" dy="0.6em">Time</text>
      </g>
    </g>
  </g>
  <g class="guide xlabels" font-size="2.82" font-family="'PT Sans Caption','Helvetica Neue','Helvetica',sans-serif" fill="#6C606B" id="img-f9b878e0-18">
    <g transform="translate(89.96,51.72)">
      <g class="primitive">
        <text text-anchor="middle" dy="0.6em">0</text>
      </g>
    </g>
    <g transform="translate(100.72,51.72)">
      <g class="primitive">
        <text text-anchor="middle" dy="0.6em">50</text>
      </g>
    </g>
    <g transform="translate(111.48,51.72)">
      <g class="primitive">
        <text text-anchor="middle" dy="0.6em">100</text>
      </g>
    </g>
    <g transform="translate(122.24,51.72)">
      <g class="primitive">
        <text text-anchor="middle" dy="0.6em">150</text>
      </g>
    </g>
    <g transform="translate(133,51.72)">
      <g class="primitive">
        <text text-anchor="middle" dy="0.6em">200</text>
      </g>
    </g>
  </g>
  <g clip-path="url(#img-f9b878e0-19)">
    <g id="img-f9b878e0-20">
      <g pointer-events="visible" fill-opacity="0" fill="#000000" fill-opacity="0.000" stroke="#000000" stroke-opacity="0.000" class="guide background" id="img-f9b878e0-21">
        <g transform="translate(111.48,27.86)">
          <path d="M-23.52,-22.86 L 23.52 -22.86 23.52 22.86 -23.52 22.86 z" class="primitive"/>
        </g>
      </g>
      <g class="guide ygridlines xfixed" stroke-dasharray="0.5,0.5" stroke-width="0.2" stroke="#D0D0E0" id="img-f9b878e0-22">
        <g transform="translate(111.48,48.72)">
          <path fill="none" d="M-23.52,0 L 23.52 0" class="primitive"/>
        </g>
        <g transform="translate(111.48,27.86)">
          <path fill="none" d="M-23.52,0 L 23.52 0" class="primitive"/>
        </g>
        <g transform="translate(111.48,7)">
          <path fill="none" d="M-23.52,0 L 23.52 0" class="primitive"/>
        </g>
      </g>
      <g class="guide xgridlines yfixed" stroke-dasharray="0.5,0.5" stroke-width="0.2" stroke="#D0D0E0" id="img-f9b878e0-23">
        <g transform="translate(89.96,27.86)">
          <path fill="none" d="M0,-22.86 L 0 22.86" class="primitive"/>
        </g>
        <g transform="translate(100.72,27.86)">
          <path fill="none" d="M0,-22.86 L 0 22.86" class="primitive"/>
        </g>
        <g transform="translate(111.48,27.86)">
          <path fill="none" d="M0,-22.86 L 0 22.86" class="primitive"/>
        </g>
        <g transform="translate(122.24,27.86)">
          <path fill="none" d="M0,-22.86 L 0 22.86" class="primitive"/>
        </g>
        <g transform="translate(133,27.86)">
          <path fill="none" d="M0,-22.86 L 0 22.86" class="primitive"/>
        </g>
      </g>
      <g class="plotpanel" id="img-f9b878e0-24">
        <metadata>
          <boundingbox value="87.95833333333333mm 5.0mm 47.04166666666667mm 45.715mm"/>
          <unitbox value="-9.293320425943852 10.479443845139638 218.58664085188772 -10.958887690279276"/>
        </metadata>
        <g stroke-width="0.3" fill="#000000" fill-opacity="0.000" class="geometry" id="img-f9b878e0-25">
          <g class="color_RGB{N0f8}(0.0,0.0,0.0)" stroke-dasharray="2,1" stroke="#000000" id="img-f9b878e0-26">
            <g transform="translate(100.72,27.86)">
              <path fill="none" d="M0,20.86 L 0 -20.86" class="primitive"/>
            </g>
          </g>
        </g>
        <g stroke-width="0.3" fill="#000000" fill-opacity="0.000" class="geometry" id="img-f9b878e0-27">
          <g class="color_RGB{N0f8}(0.0,0.0,0.0)" stroke-dasharray="none" stroke="#000000" id="img-f9b878e0-28">
            <g transform="translate(111.59,20.68)">
              <path fill="none" d="M-21.41,-13.68 L -21.2 -13.68 -20.98 -13.68 -20.77 -13.68 -20.55 -13.68 -20.34 -13.68 -20.12 -13.68 -19.91 -13.68 -19.69 -13.68 -19.48 -13.68 -19.26 -13.68 -19.05 -13.68 -18.83 -13.68 -18.62 -13.68 -18.4 -13.68 -18.19 -13.68 -17.97 -13.68 -17.75 -13.68 -17.54 -13.68 -17.32 -13.68 -17.11 -13.68 -16.89 -13.68 -16.68 -13.68 -16.46 -13.68 -16.25 -13.68 -16.03 -13.68 -15.82 -13.68 -15.6 -13.68 -15.39 -13.68 -15.17 -13.68 -14.96 -13.68 -14.74 -13.68 -14.53 -13.68 -14.31 -13.68 -14.1 -13.68 -13.88 -13.68 -13.67 -13.68 -13.45 -13.68 -13.24 -13.68 -13.02 -13.68 -12.8 -13.68 -12.59 -13.68 -12.37 -13.68 -12.16 -13.68 -11.94 -13.68 -11.73 -13.68 -11.51 -13.68 -11.3 -13.68 -11.08 -13.68 -10.87 -13.68 -10.65 -12.62 -10.44 -11.62 -10.22 -10.67 -10.01 -9.77 -9.79 -8.91 -9.58 -8.1 -9.36 -7.32 -9.15 -6.59 -8.93 -5.9 -8.72 -5.24 -8.5 -4.61 -8.29 -4.01 -8.07 -3.45 -7.86 -2.91 -7.64 -2.4 -7.42 -1.92 -7.21 -1.46 -6.99 -1.03 -6.78 -0.61 -6.56 -0.22 -6.35 0.15 -6.13 0.5 -5.92 0.84 -5.7 1.16 -5.49 1.46 -5.27 1.75 -5.06 2.02 -4.84 2.28 -4.63 2.53 -4.41 2.76 -4.2 2.98 -3.98 3.19 -3.77 3.39 -3.55 3.58 -3.34 3.76 -3.12 3.93 -2.91 4.1 -2.69 4.25 -2.47 4.4 -2.26 4.54 -2.04 4.67 -1.83 4.8 -1.61 4.92 -1.4 5.03 -1.18 5.14 -0.97 5.24 -0.75 5.34 -0.54 5.43 -0.32 5.52 -0.11 5.6 0.11 5.68 0.32 5.75 0.54 5.83 0.75 5.89 0.97 5.96 1.18 6.02 1.4 6.08 1.61 6.13 1.83 6.18 2.04 6.23 2.26 6.28 2.47 6.33 2.69 6.37 2.91 6.41 3.12 6.45 3.34 6.48 3.55 6.52 3.77 6.55 3.98 6.58 4.2 6.61 4.41 6.64 4.63 6.67 4.84 6.69 5.06 6.72 5.27 6.74 5.49 6.76 5.7 6.78 5.92 6.8 6.13 6.82 6.35 6.84 6.56 6.86 6.78 6.87 6.99 6.89 7.21 6.9 7.42 6.92 7.64 6.93 7.86 6.94 8.07 6.95 8.29 6.97 8.5 6.98 8.72 6.99 8.93 7 9.15 7 9.36 7.01 9.58 7.02 9.79 7.03 10.01 7.04 10.22 7.04 10.44 7.05 10.65 7.06 10.87 7.06 11.08 7.07 11.3 7.07 11.51 7.08 11.73 7.08 11.94 7.09 12.16 7.09 12.37 7.1 12.59 7.1 12.8 7.11 13.02 7.11 13.24 7.11 13.45 7.12 13.67 7.12 13.88 7.12 14.1 7.13 14.31 7.13 14.53 7.13 14.74 7.13 14.96 7.14 15.17 7.14 15.39 7.14 15.6 7.14 15.82 7.14 16.03 7.14 16.25 7.15 16.46 7.15 16.68 7.15 16.89 7.15 17.11 7.15 17.32 7.15 17.54 7.16 17.75 7.16 17.97 7.16 18.19 7.16 18.4 7.16 18.62 7.16 18.83 7.16 19.05 7.16 19.26 7.16 19.48 7.16 19.69 7.16 19.91 7.17 20.12 7.17 20.34 7.17 20.55 7.17 20.77 7.17 20.98 7.17 21.2 7.17 21.41 7.17" class="primitive"/>
            </g>
          </g>
        </g>
      </g>
    </g>
  </g>
  <g class="guide ylabels" font-size="2.82" font-family="'PT Sans Caption','Helvetica Neue','Helvetica',sans-serif" fill="#6C606B" id="img-f9b878e0-29">
    <g transform="translate(86.96,48.72)">
      <g class="primitive">
        <text text-anchor="end" dy="0.35em">0</text>
      </g>
    </g>
    <g transform="translate(86.96,27.86)">
      <g class="primitive">
        <text text-anchor="end" dy="0.35em">5</text>
      </g>
    </g>
    <g transform="translate(86.96,7)">
      <g class="primitive">
        <text text-anchor="end" dy="0.35em">10</text>
      </g>
    </g>
  </g>
  <g font-size="3.88" font-family="'PT Sans','Helvetica Neue','Helvetica',sans-serif" fill="#564A55" stroke="#000000" stroke-opacity="0.000" id="img-f9b878e0-30">
    <g transform="translate(78.81,25.86)">
      <g class="primitive">
        <text text-anchor="middle" dy="0.35em" transform="rotate(-90,0, 2)">Output per capita, y</text>
      </g>
    </g>
  </g>
</g>
<g class="plotroot xscalable yscalable" id="img-f9b878e0-31">
  <g font-size="3.88" font-family="'PT Sans','Helvetica Neue','Helvetica',sans-serif" fill="#564A55" stroke="#000000" stroke-opacity="0.000" id="img-f9b878e0-32">
    <g transform="translate(41.48,58.39)">
      <g class="primitive">
        <text text-anchor="middle" dy="0.6em">Time</text>
      </g>
    </g>
  </g>
  <g class="guide xlabels" font-size="2.82" font-family="'PT Sans Caption','Helvetica Neue','Helvetica',sans-serif" fill="#6C606B" id="img-f9b878e0-33">
    <g transform="translate(19.96,51.72)">
      <g class="primitive">
        <text text-anchor="middle" dy="0.6em">0</text>
      </g>
    </g>
    <g transform="translate(30.72,51.72)">
      <g class="primitive">
        <text text-anchor="middle" dy="0.6em">50</text>
      </g>
    </g>
    <g transform="translate(41.48,51.72)">
      <g class="primitive">
        <text text-anchor="middle" dy="0.6em">100</text>
      </g>
    </g>
    <g transform="translate(52.24,51.72)">
      <g class="primitive">
        <text text-anchor="middle" dy="0.6em">150</text>
      </g>
    </g>
    <g transform="translate(63,51.72)">
      <g class="primitive">
        <text text-anchor="middle" dy="0.6em">200</text>
      </g>
    </g>
  </g>
  <g clip-path="url(#img-f9b878e0-34)">
    <g id="img-f9b878e0-35">
      <g pointer-events="visible" fill-opacity="0" fill="#000000" fill-opacity="0.000" stroke="#000000" stroke-opacity="0.000" class="guide background" id="img-f9b878e0-36">
        <g transform="translate(41.48,27.86)">
          <path d="M-23.52,-22.86 L 23.52 -22.86 23.52 22.86 -23.52 22.86 z" class="primitive"/>
        </g>
      </g>
      <g class="guide ygridlines xfixed" stroke-dasharray="0.5,0.5" stroke-width="0.2" stroke="#D0D0E0" id="img-f9b878e0-37">
        <g transform="translate(41.48,48.72)">
          <path fill="none" d="M-23.52,0 L 23.52 0" class="primitive"/>
        </g>
        <g transform="translate(41.48,40.37)">
          <path fill="none" d="M-23.52,0 L 23.52 0" class="primitive"/>
        </g>
        <g transform="translate(41.48,32.03)">
          <path fill="none" d="M-23.52,0 L 23.52 0" class="primitive"/>
        </g>
        <g transform="translate(41.48,23.69)">
          <path fill="none" d="M-23.52,0 L 23.52 0" class="primitive"/>
        </g>
        <g transform="translate(41.48,15.34)">
          <path fill="none" d="M-23.52,0 L 23.52 0" class="primitive"/>
        </g>
        <g transform="translate(41.48,7)">
          <path fill="none" d="M-23.52,0 L 23.52 0" class="primitive"/>
        </g>
      </g>
      <g class="guide xgridlines yfixed" stroke-dasharray="0.5,0.5" stroke-width="0.2" stroke="#D0D0E0" id="img-f9b878e0-38">
        <g transform="translate(19.96,27.86)">
          <path fill="none" d="M0,-22.86 L 0 22.86" class="primitive"/>
        </g>
        <g transform="translate(30.72,27.86)">
          <path fill="none" d="M0,-22.86 L 0 22.86" class="primitive"/>
        </g>
        <g transform="translate(41.48,27.86)">
          <path fill="none" d="M0,-22.86 L 0 22.86" class="primitive"/>
        </g>
        <g transform="translate(52.24,27.86)">
          <path fill="none" d="M0,-22.86 L 0 22.86" class="primitive"/>
        </g>
        <g transform="translate(63,27.86)">
          <path fill="none" d="M0,-22.86 L 0 22.86" class="primitive"/>
        </g>
      </g>
      <g class="plotpanel" id="img-f9b878e0-39">
        <metadata>
          <boundingbox value="17.95833333333333mm 5.0mm 47.04166666666667mm 45.715mm"/>
          <unitbox value="-9.293320425943852 26.198609612849094 218.58664085188772 -27.397219225698187"/>
        </metadata>
        <g stroke-width="0.3" fill="#000000" fill-opacity="0.000" class="geometry" id="img-f9b878e0-40">
          <g class="color_RGB{N0f8}(0.0,0.0,0.0)" stroke-dasharray="2,1" stroke="#000000" id="img-f9b878e0-41">
            <g transform="translate(30.72,27.86)">
              <path fill="none" d="M0,20.86 L 0 -20.86" class="primitive"/>
            </g>
          </g>
        </g>
        <g stroke-width="0.3" fill="#000000" fill-opacity="0.000" class="geometry" id="img-f9b878e0-42">
          <g class="color_RGB{N0f8}(0.0,0.0,0.0)" stroke-dasharray="none" stroke="#000000" id="img-f9b878e0-43">
            <g transform="translate(41.59,28.02)">
              <path fill="none" d="M-21.41,-21.02 L -21.2 -21.02 -20.98 -21.02 -20.77 -21.02 -20.55 -21.02 -20.34 -21.02 -20.12 -21.02 -19.91 -21.02 -19.69 -21.02 -19.48 -21.02 -19.26 -21.02 -19.05 -21.02 -18.83 -21.02 -18.62 -21.02 -18.4 -21.02 -18.19 -21.02 -17.97 -21.02 -17.75 -21.02 -17.54 -21.02 -17.32 -21.02 -17.11 -21.02 -16.89 -21.02 -16.68 -21.02 -16.46 -21.02 -16.25 -21.02 -16.03 -21.02 -15.82 -21.02 -15.6 -21.02 -15.39 -21.02 -15.17 -21.02 -14.96 -21.02 -14.74 -21.02 -14.53 -21.02 -14.31 -21.02 -14.1 -21.02 -13.88 -21.02 -13.67 -21.02 -13.45 -21.02 -13.24 -21.02 -13.02 -21.02 -12.8 -21.02 -12.59 -21.02 -12.37 -21.02 -12.16 -21.02 -11.94 -21.02 -11.73 -21.02 -11.51 -21.02 -11.3 -21.02 -11.08 -21.02 -10.87 -21.02 -10.65 -18.94 -10.44 -17.01 -10.22 -15.22 -10.01 -13.56 -9.79 -12.03 -9.58 -10.6 -9.36 -9.28 -9.15 -8.05 -8.93 -6.91 -8.72 -5.85 -8.5 -4.85 -8.29 -3.93 -8.07 -3.07 -7.86 -2.27 -7.64 -1.52 -7.42 -0.82 -7.21 -0.17 -6.99 0.44 -6.78 1.01 -6.56 1.55 -6.35 2.05 -6.13 2.52 -5.92 2.96 -5.7 3.37 -5.49 3.76 -5.27 4.13 -5.06 4.47 -4.84 4.79 -4.63 5.09 -4.41 5.38 -4.2 5.64 -3.98 5.9 -3.77 6.13 -3.55 6.36 -3.34 6.57 -3.12 6.77 -2.91 6.95 -2.69 7.13 -2.47 7.3 -2.26 7.46 -2.04 7.6 -1.83 7.75 -1.61 7.88 -1.4 8 -1.18 8.12 -0.97 8.23 -0.75 8.34 -0.54 8.44 -0.32 8.53 -0.11 8.62 0.11 8.71 0.32 8.79 0.54 8.87 0.75 8.94 0.97 9.01 1.18 9.07 1.4 9.13 1.61 9.19 1.83 9.25 2.04 9.3 2.26 9.35 2.47 9.39 2.69 9.44 2.91 9.48 3.12 9.52 3.34 9.56 3.55 9.59 3.77 9.63 3.98 9.66 4.2 9.69 4.41 9.72 4.63 9.75 4.84 9.77 5.06 9.8 5.27 9.82 5.49 9.84 5.7 9.86 5.92 9.88 6.13 9.9 6.35 9.92 6.56 9.94 6.78 9.96 6.99 9.97 7.21 9.99 7.42 10 7.64 10.01 7.86 10.03 8.07 10.04 8.29 10.05 8.5 10.06 8.72 10.07 8.93 10.08 9.15 10.09 9.36 10.1 9.58 10.11 9.79 10.11 10.01 10.12 10.22 10.13 10.44 10.14 10.65 10.14 10.87 10.15 11.08 10.15 11.3 10.16 11.51 10.16 11.73 10.17 11.94 10.17 12.16 10.18 12.37 10.18 12.59 10.19 12.8 10.19 13.02 10.19 13.24 10.2 13.45 10.2 13.67 10.2 13.88 10.21 14.1 10.21 14.31 10.21 14.53 10.22 14.74 10.22 14.96 10.22 15.17 10.22 15.39 10.22 15.6 10.23 15.82 10.23 16.03 10.23 16.25 10.23 16.46 10.23 16.68 10.23 16.89 10.24 17.11 10.24 17.32 10.24 17.54 10.24 17.75 10.24 17.97 10.24 18.19 10.24 18.4 10.24 18.62 10.25 18.83 10.25 19.05 10.25 19.26 10.25 19.48 10.25 19.69 10.25 19.91 10.25 20.12 10.25 20.34 10.25 20.55 10.25 20.77 10.25 20.98 10.25 21.2 10.25 21.41 10.25" class="primitive"/>
            </g>
          </g>
        </g>
      </g>
    </g>
  </g>
  <g class="guide ylabels" font-size="2.82" font-family="'PT Sans Caption','Helvetica Neue','Helvetica',sans-serif" fill="#6C606B" id="img-f9b878e0-44">
    <g transform="translate(16.96,48.72)">
      <g class="primitive">
        <text text-anchor="end" dy="0.35em">0</text>
      </g>
    </g>
    <g transform="translate(16.96,40.37)">
      <g class="primitive">
        <text text-anchor="end" dy="0.35em">5</text>
      </g>
    </g>
    <g transform="translate(16.96,32.03)">
      <g class="primitive">
        <text text-anchor="end" dy="0.35em">10</text>
      </g>
    </g>
    <g transform="translate(16.96,23.69)">
      <g class="primitive">
        <text text-anchor="end" dy="0.35em">15</text>
      </g>
    </g>
    <g transform="translate(16.96,15.34)">
      <g class="primitive">
        <text text-anchor="end" dy="0.35em">20</text>
      </g>
    </g>
    <g transform="translate(16.96,7)">
      <g class="primitive">
        <text text-anchor="end" dy="0.35em">25</text>
      </g>
    </g>
  </g>
  <g font-size="3.88" font-family="'PT Sans','Helvetica Neue','Helvetica',sans-serif" fill="#564A55" stroke="#000000" stroke-opacity="0.000" id="img-f9b878e0-45">
    <g transform="translate(8.81,25.86)">
      <g class="primitive">
        <text text-anchor="middle" dy="0.35em" transform="rotate(-90,0, 2)">Capital per capita, k</text>
      </g>
    </g>
  </g>
</g>
<defs>
  <clipPath id="img-f9b878e0-4">
    <path d="M157.96,5 L 205 5 205 50.72 157.96 50.72" />
  </clipPath>
  <clipPath id="img-f9b878e0-19">
    <path d="M87.96,5 L 135 5 135 50.72 87.96 50.72" />
  </clipPath>
  <clipPath id="img-f9b878e0-34">
    <path d="M17.96,5 L 65 5 65 50.72 17.96 50.72" />
  </clipPath>
</defs>
</svg>
