<?xml version="1.0" encoding="UTF-8"?>
<svg xmlns="http://www.w3.org/2000/svg"
     xmlns:xlink="http://www.w3.org/1999/xlink"
     xmlns:gadfly="http://www.gadflyjl.org/ns"
     version="1.2"
     width="210mm" height="70mm" viewBox="0 0 210 70"
     stroke="none"
     fill="#000000"
     stroke-width="0.3"
     font-size="3.88"
>
<g class="plotroot xscalable yscalable" id="img-abf74429-1">
  <g font-size="3.88" font-family="'PT Sans','Helvetica Neue','Helvetica',sans-serif" fill="#564A55" stroke="#000000" stroke-opacity="0.000" id="img-abf74429-2">
    <g transform="translate(185.14,58.39)">
      <g class="primitive">
        <text text-anchor="middle" dy="0.6em">Time</text>
      </g>
    </g>
  </g>
  <g class="guide xlabels" font-size="2.82" font-family="'PT Sans Caption','Helvetica Neue','Helvetica',sans-serif" fill="#6C606B" id="img-abf74429-3">
    <g transform="translate(167.28,51.72)">
      <g class="primitive">
        <text text-anchor="middle" dy="0.6em">0</text>
      </g>
    </g>
    <g transform="translate(176.21,51.72)">
      <g class="primitive">
        <text text-anchor="middle" dy="0.6em">50</text>
      </g>
    </g>
    <g transform="translate(185.14,51.72)">
      <g class="primitive">
        <text text-anchor="middle" dy="0.6em">100</text>
      </g>
    </g>
    <g transform="translate(194.07,51.72)">
      <g class="primitive">
        <text text-anchor="middle" dy="0.6em">150</text>
      </g>
    </g>
    <g transform="translate(203,51.72)">
      <g class="primitive">
        <text text-anchor="middle" dy="0.6em">200</text>
      </g>
    </g>
  </g>
  <g clip-path="url(#img-abf74429-4)">
    <g id="img-abf74429-5">
      <g pointer-events="visible" fill-opacity="0" fill="#000000" fill-opacity="0.000" stroke="#000000" stroke-opacity="0.000" class="guide background" id="img-abf74429-6">
        <g transform="translate(185.14,27.86)">
          <path d="M-19.86,-22.86 L 19.86 -22.86 19.86 22.86 -19.86 22.86 z" class="primitive"/>
        </g>
      </g>
      <g class="guide ygridlines xfixed" stroke-dasharray="0.5,0.5" stroke-width="0.2" stroke="#D0D0E0" id="img-abf74429-7">
        <g transform="translate(185.14,48.72)">
          <path fill="none" d="M-19.86,0 L 19.86 0" class="primitive"/>
        </g>
        <g transform="translate(185.14,36.88)">
          <path fill="none" d="M-19.86,0 L 19.86 0" class="primitive"/>
        </g>
        <g transform="translate(185.14,25.04)">
          <path fill="none" d="M-19.86,0 L 19.86 0" class="primitive"/>
        </g>
        <g transform="translate(185.14,13.2)">
          <path fill="none" d="M-19.86,0 L 19.86 0" class="primitive"/>
        </g>
      </g>
      <g class="guide xgridlines yfixed" stroke-dasharray="0.5,0.5" stroke-width="0.2" stroke="#D0D0E0" id="img-abf74429-8">
        <g transform="translate(167.28,27.86)">
          <path fill="none" d="M0,-22.86 L 0 22.86" class="primitive"/>
        </g>
        <g transform="translate(176.21,27.86)">
          <path fill="none" d="M0,-22.86 L 0 22.86" class="primitive"/>
        </g>
        <g transform="translate(185.14,27.86)">
          <path fill="none" d="M0,-22.86 L 0 22.86" class="primitive"/>
        </g>
        <g transform="translate(194.07,27.86)">
          <path fill="none" d="M0,-22.86 L 0 22.86" class="primitive"/>
        </g>
        <g transform="translate(203,27.86)">
          <path fill="none" d="M0,-22.86 L 0 22.86" class="primitive"/>
        </g>
      </g>
      <g class="plotpanel" id="img-abf74429-9">
        <metadata>
          <boundingbox value="165.27666666666667mm 5.0mm 39.72333333333333mm 45.715mm"/>
          <unitbox value="-11.197163385275731 7.386290630707088e7 222.39432677055143 -7.724219974442972e7"/>
        </metadata>
        <g stroke-width="0.3" fill="#000000" fill-opacity="0.000" class="geometry" id="img-abf74429-10">
          <g class="color_RGB{N0f8}(0.0,0.0,0.0)" stroke-dasharray="none" stroke="#000000" id="img-abf74429-11">
            <g transform="translate(185.23,44.44)">
              <path fill="none" d="M-17.77,4.27 L -17.59 4.27 -17.42 4.27 -17.24 4.27 -17.06 4.27 -16.88 4.27 -16.7 4.27 -16.52 4.27 -16.34 4.27 -16.16 4.27 -15.99 4.27 -15.81 4.27 -15.63 4.27 -15.45 4.27 -15.27 4.27 -15.09 4.27 -14.91 4.27 -14.74 4.27 -14.56 4.27 -14.38 4.27 -14.2 4.27 -14.02 4.27 -13.84 4.27 -13.66 4.27 -13.49 4.27 -13.31 4.27 -13.13 4.27 -12.95 4.27 -12.77 4.27 -12.59 4.27 -12.41 4.27 -12.24 4.27 -12.06 4.27 -11.88 4.27 -11.7 4.27 -11.52 4.27 -11.34 4.26 -11.16 4.26 -10.98 4.26 -10.81 4.26 -10.63 4.26 -10.45 4.26 -10.27 4.26 -10.09 4.26 -9.91 4.26 -9.73 4.26 -9.56 4.26 -9.38 4.26 -9.2 4.25 -9.02 4.25 -8.84 4.25 -8.66 4.25 -8.48 4.25 -8.31 4.25 -8.13 4.25 -7.95 4.25 -7.77 4.24 -7.59 4.24 -7.41 4.24 -7.23 4.24 -7.06 4.24 -6.88 4.23 -6.7 4.23 -6.52 4.23 -6.34 4.23 -6.16 4.23 -5.98 4.22 -5.81 4.22 -5.63 4.22 -5.45 4.21 -5.27 4.21 -5.09 4.21 -4.91 4.2 -4.73 4.2 -4.55 4.2 -4.38 4.19 -4.2 4.19 -4.02 4.18 -3.84 4.18 -3.66 4.17 -3.48 4.17 -3.3 4.16 -3.13 4.16 -2.95 4.15 -2.77 4.14 -2.59 4.14 -2.41 4.13 -2.23 4.12 -2.05 4.11 -1.88 4.11 -1.7 4.1 -1.52 4.09 -1.34 4.08 -1.16 4.07 -0.98 4.06 -0.8 4.05 -0.63 4.03 -0.45 4.02 -0.27 4.01 -0.09 4 0.09 3.98 0.27 3.97 0.45 3.95 0.63 3.93 0.8 3.92 0.98 3.9 1.16 3.88 1.34 3.86 1.52 3.84 1.7 3.81 1.88 3.79 2.05 3.76 2.23 3.74 2.41 3.71 2.59 3.68 2.77 3.65 2.95 3.62 3.13 3.59 3.3 3.55 3.48 3.51 3.66 3.47 3.84 3.43 4.02 3.39 4.2 3.34 4.38 3.3 4.55 3.25 4.73 3.19 4.91 3.14 5.09 3.08 5.27 3.02 5.45 2.95 5.63 2.88 5.81 2.81 5.98 2.74 6.16 2.66 6.34 2.58 6.52 2.49 6.7 2.4 6.88 2.3 7.06 2.2 7.23 2.09 7.41 1.98 7.59 1.86 7.77 1.74 7.95 1.61 8.13 1.47 8.31 1.33 8.48 1.18 8.66 1.02 8.84 0.85 9.02 0.68 9.2 0.49 9.38 0.3 9.56 0.09 9.73 -0.12 9.91 -0.35 10.09 -0.58 10.27 -0.83 10.45 -1.09 10.63 -1.37 10.81 -1.66 10.98 -1.96 11.16 -2.28 11.34 -2.62 11.52 -2.97 11.7 -3.34 11.88 -3.73 12.06 -4.15 12.24 -4.58 12.41 -5.03 12.59 -5.51 12.77 -6.01 12.95 -6.54 13.13 -7.09 13.31 -7.68 13.49 -8.29 13.66 -8.93 13.84 -9.61 14.02 -10.32 14.2 -11.07 14.38 -11.86 14.56 -12.68 14.74 -13.55 14.91 -14.47 15.09 -15.43 15.27 -16.44 15.45 -17.5 15.63 -18.62 15.81 -19.79 15.99 -21.03 16.16 -22.32 16.34 -23.69 16.52 -25.12 16.7 -26.63 16.88 -28.21 17.06 -29.88 17.24 -31.63 17.42 -33.47 17.59 -35.4 17.77 -37.44" class="primitive"/>
            </g>
          </g>
        </g>
      </g>
    </g>
  </g>
  <g class="guide ylabels" font-size="2.82" font-family="'PT Sans Caption','Helvetica Neue','Helvetica',sans-serif" fill="#6C606B" id="img-abf74429-12">
    <g transform="translate(164.28,48.72)">
      <g class="primitive">
        <text text-anchor="end" dy="0.35em">0</text>
      </g>
    </g>
    <g transform="translate(164.28,36.88)">
      <g class="primitive">
        <text text-anchor="end" dy="0.35em">2.0×10⁷</text>
      </g>
    </g>
    <g transform="translate(164.28,25.04)">
      <g class="primitive">
        <text text-anchor="end" dy="0.35em">4.0×10⁷</text>
      </g>
    </g>
    <g transform="translate(164.28,13.2)">
      <g class="primitive">
        <text text-anchor="end" dy="0.35em">6.0×10⁷</text>
      </g>
    </g>
  </g>
  <g font-size="3.88" font-family="'PT Sans','Helvetica Neue','Helvetica',sans-serif" fill="#564A55" stroke="#000000" stroke-opacity="0.000" id="img-abf74429-13">
    <g transform="translate(149.16,27.86)">
      <g class="primitive">
        <text text-anchor="end" dy="0.35em">Y</text>
      </g>
    </g>
  </g>
</g>
<g class="plotroot xscalable yscalable" id="img-abf74429-14">
  <g font-size="3.88" font-family="'PT Sans','Helvetica Neue','Helvetica',sans-serif" fill="#564A55" stroke="#000000" stroke-opacity="0.000" id="img-abf74429-15">
    <g transform="translate(115.86,58.39)">
      <g class="primitive">
        <text text-anchor="middle" dy="0.6em">Time</text>
      </g>
    </g>
  </g>
  <g class="guide xlabels" font-size="2.82" font-family="'PT Sans Caption','Helvetica Neue','Helvetica',sans-serif" fill="#6C606B" id="img-abf74429-16">
    <g transform="translate(98.72,51.72)">
      <g class="primitive">
        <text text-anchor="middle" dy="0.6em">0</text>
      </g>
    </g>
    <g transform="translate(107.29,51.72)">
      <g class="primitive">
        <text text-anchor="middle" dy="0.6em">50</text>
      </g>
    </g>
    <g transform="translate(115.86,51.72)">
      <g class="primitive">
        <text text-anchor="middle" dy="0.6em">100</text>
      </g>
    </g>
    <g transform="translate(124.43,51.72)">
      <g class="primitive">
        <text text-anchor="middle" dy="0.6em">150</text>
      </g>
    </g>
    <g transform="translate(133,51.72)">
      <g class="primitive">
        <text text-anchor="middle" dy="0.6em">200</text>
      </g>
    </g>
  </g>
  <g clip-path="url(#img-abf74429-17)">
    <g id="img-abf74429-18">
      <g pointer-events="visible" fill-opacity="0" fill="#000000" fill-opacity="0.000" stroke="#000000" stroke-opacity="0.000" class="guide background" id="img-abf74429-19">
        <g transform="translate(115.86,27.86)">
          <path d="M-19.14,-22.86 L 19.14 -22.86 19.14 22.86 -19.14 22.86 z" class="primitive"/>
        </g>
      </g>
      <g class="guide ygridlines xfixed" stroke-dasharray="0.5,0.5" stroke-width="0.2" stroke="#D0D0E0" id="img-abf74429-20">
        <g transform="translate(115.86,48.72)">
          <path fill="none" d="M-19.14,0 L 19.14 0" class="primitive"/>
        </g>
        <g transform="translate(115.86,36.88)">
          <path fill="none" d="M-19.14,0 L 19.14 0" class="primitive"/>
        </g>
        <g transform="translate(115.86,25.04)">
          <path fill="none" d="M-19.14,0 L 19.14 0" class="primitive"/>
        </g>
        <g transform="translate(115.86,13.2)">
          <path fill="none" d="M-19.14,0 L 19.14 0" class="primitive"/>
        </g>
      </g>
      <g class="guide xgridlines yfixed" stroke-dasharray="0.5,0.5" stroke-width="0.2" stroke="#D0D0E0" id="img-abf74429-21">
        <g transform="translate(98.72,27.86)">
          <path fill="none" d="M0,-22.86 L 0 22.86" class="primitive"/>
        </g>
        <g transform="translate(107.29,27.86)">
          <path fill="none" d="M0,-22.86 L 0 22.86" class="primitive"/>
        </g>
        <g transform="translate(115.86,27.86)">
          <path fill="none" d="M0,-22.86 L 0 22.86" class="primitive"/>
        </g>
        <g transform="translate(124.43,27.86)">
          <path fill="none" d="M0,-22.86 L 0 22.86" class="primitive"/>
        </g>
        <g transform="translate(133,27.86)">
          <path fill="none" d="M0,-22.86 L 0 22.86" class="primitive"/>
        </g>
      </g>
      <g class="plotpanel" id="img-abf74429-22">
        <metadata>
          <boundingbox value="96.725mm 5.0mm 38.275mm 45.715mm"/>
          <unitbox value="-11.670313639679069 738629.0630707089 223.34062727935816 -772421.9974442973"/>
        </metadata>
        <g stroke-width="0.3" fill="#000000" fill-opacity="0.000" class="geometry" id="img-abf74429-23">
          <g class="color_RGB{N0f8}(0.0,0.0,0.0)" stroke-dasharray="none" stroke="#000000" id="img-abf74429-24">
            <g transform="translate(115.95,44.44)">
              <path fill="none" d="M-17.05,4.27 L -16.88 4.27 -16.71 4.27 -16.54 4.27 -16.37 4.27 -16.19 4.27 -16.02 4.27 -15.85 4.27 -15.68 4.27 -15.51 4.27 -15.34 4.27 -15.17 4.27 -15 4.27 -14.82 4.27 -14.65 4.27 -14.48 4.27 -14.31 4.27 -14.14 4.27 -13.97 4.27 -13.8 4.27 -13.62 4.27 -13.45 4.27 -13.28 4.27 -13.11 4.27 -12.94 4.27 -12.77 4.27 -12.6 4.27 -12.42 4.27 -12.25 4.27 -12.08 4.27 -11.91 4.27 -11.74 4.27 -11.57 4.27 -11.4 4.27 -11.23 4.27 -11.05 4.27 -10.88 4.26 -10.71 4.26 -10.54 4.26 -10.37 4.26 -10.2 4.26 -10.03 4.26 -9.85 4.26 -9.68 4.26 -9.51 4.26 -9.34 4.26 -9.17 4.26 -9 4.26 -8.83 4.25 -8.65 4.25 -8.48 4.25 -8.31 4.25 -8.14 4.25 -7.97 4.25 -7.8 4.25 -7.63 4.25 -7.45 4.24 -7.28 4.24 -7.11 4.24 -6.94 4.24 -6.77 4.24 -6.6 4.23 -6.43 4.23 -6.26 4.23 -6.08 4.23 -5.91 4.23 -5.74 4.22 -5.57 4.22 -5.4 4.22 -5.23 4.21 -5.06 4.21 -4.88 4.21 -4.71 4.2 -4.54 4.2 -4.37 4.2 -4.2 4.19 -4.03 4.19 -3.86 4.18 -3.68 4.18 -3.51 4.17 -3.34 4.17 -3.17 4.16 -3 4.16 -2.83 4.15 -2.66 4.14 -2.48 4.14 -2.31 4.13 -2.14 4.12 -1.97 4.11 -1.8 4.11 -1.63 4.1 -1.46 4.09 -1.29 4.08 -1.11 4.07 -0.94 4.06 -0.77 4.05 -0.6 4.03 -0.43 4.02 -0.26 4.01 -0.09 4 0.09 3.98 0.26 3.97 0.43 3.95 0.6 3.93 0.77 3.92 0.94 3.9 1.11 3.88 1.29 3.86 1.46 3.84 1.63 3.81 1.8 3.79 1.97 3.76 2.14 3.74 2.31 3.71 2.48 3.68 2.66 3.65 2.83 3.62 3 3.59 3.17 3.55 3.34 3.51 3.51 3.47 3.68 3.43 3.86 3.39 4.03 3.34 4.2 3.3 4.37 3.25 4.54 3.19 4.71 3.14 4.88 3.08 5.06 3.02 5.23 2.95 5.4 2.88 5.57 2.81 5.74 2.74 5.91 2.66 6.08 2.58 6.26 2.49 6.43 2.4 6.6 2.3 6.77 2.2 6.94 2.09 7.11 1.98 7.28 1.86 7.45 1.74 7.63 1.61 7.8 1.47 7.97 1.33 8.14 1.18 8.31 1.02 8.48 0.85 8.65 0.68 8.83 0.49 9 0.3 9.17 0.09 9.34 -0.12 9.51 -0.35 9.68 -0.58 9.85 -0.83 10.03 -1.09 10.2 -1.37 10.37 -1.66 10.54 -1.96 10.71 -2.28 10.88 -2.62 11.05 -2.97 11.23 -3.34 11.4 -3.73 11.57 -4.15 11.74 -4.58 11.91 -5.03 12.08 -5.51 12.25 -6.01 12.42 -6.54 12.6 -7.09 12.77 -7.68 12.94 -8.29 13.11 -8.93 13.28 -9.61 13.45 -10.32 13.62 -11.07 13.8 -11.86 13.97 -12.68 14.14 -13.55 14.31 -14.47 14.48 -15.43 14.65 -16.44 14.82 -17.5 15 -18.62 15.17 -19.79 15.34 -21.03 15.51 -22.32 15.68 -23.69 15.85 -25.12 16.02 -26.63 16.19 -28.21 16.37 -29.88 16.54 -31.63 16.71 -33.47 16.88 -35.4 17.05 -37.44" class="primitive"/>
            </g>
          </g>
        </g>
      </g>
    </g>
  </g>
  <g class="guide ylabels" font-size="2.82" font-family="'PT Sans Caption','Helvetica Neue','Helvetica',sans-serif" fill="#6C606B" id="img-abf74429-25">
    <g transform="translate(95.72,48.72)">
      <g class="primitive">
        <text text-anchor="end" dy="0.35em">0</text>
      </g>
    </g>
    <g transform="translate(95.72,36.88)">
      <g class="primitive">
        <text text-anchor="end" dy="0.35em">2.0×10⁵</text>
      </g>
    </g>
    <g transform="translate(95.72,25.04)">
      <g class="primitive">
        <text text-anchor="end" dy="0.35em">4.0×10⁵</text>
      </g>
    </g>
    <g transform="translate(95.72,13.2)">
      <g class="primitive">
        <text text-anchor="end" dy="0.35em">6.0×10⁵</text>
      </g>
    </g>
  </g>
  <g font-size="3.88" font-family="'PT Sans','Helvetica Neue','Helvetica',sans-serif" fill="#564A55" stroke="#000000" stroke-opacity="0.000" id="img-abf74429-26">
    <g transform="translate(78.81,25.86)">
      <g class="primitive">
        <text text-anchor="middle" dy="0.35em" transform="rotate(-90,0, 2)">Y/N</text>
      </g>
    </g>
  </g>
</g>
<g class="plotroot xscalable yscalable" id="img-abf74429-27">
  <g font-size="3.88" font-family="'PT Sans','Helvetica Neue','Helvetica',sans-serif" fill="#564A55" stroke="#000000" stroke-opacity="0.000" id="img-abf74429-28">
    <g transform="translate(41.48,58.39)">
      <g class="primitive">
        <text text-anchor="middle" dy="0.6em">Time</text>
      </g>
    </g>
  </g>
  <g class="guide xlabels" font-size="2.82" font-family="'PT Sans Caption','Helvetica Neue','Helvetica',sans-serif" fill="#6C606B" id="img-abf74429-29">
    <g transform="translate(19.96,51.72)">
      <g class="primitive">
        <text text-anchor="middle" dy="0.6em">0</text>
      </g>
    </g>
    <g transform="translate(30.72,51.72)">
      <g class="primitive">
        <text text-anchor="middle" dy="0.6em">50</text>
      </g>
    </g>
    <g transform="translate(41.48,51.72)">
      <g class="primitive">
        <text text-anchor="middle" dy="0.6em">100</text>
      </g>
    </g>
    <g transform="translate(52.24,51.72)">
      <g class="primitive">
        <text text-anchor="middle" dy="0.6em">150</text>
      </g>
    </g>
    <g transform="translate(63,51.72)">
      <g class="primitive">
        <text text-anchor="middle" dy="0.6em">200</text>
      </g>
    </g>
  </g>
  <g clip-path="url(#img-abf74429-30)">
    <g id="img-abf74429-31">
      <g pointer-events="visible" fill-opacity="0" fill="#000000" fill-opacity="0.000" stroke="#000000" stroke-opacity="0.000" class="guide background" id="img-abf74429-32">
        <g transform="translate(41.48,27.86)">
          <path d="M-23.52,-22.86 L 23.52 -22.86 23.52 22.86 -23.52 22.86 z" class="primitive"/>
        </g>
      </g>
      <g class="guide ygridlines xfixed" stroke-dasharray="0.5,0.5" stroke-width="0.2" stroke="#D0D0E0" id="img-abf74429-33">
        <g transform="translate(41.48,48.72)">
          <path fill="none" d="M-23.52,0 L 23.52 0" class="primitive"/>
        </g>
        <g transform="translate(41.48,35.68)">
          <path fill="none" d="M-23.52,0 L 23.52 0" class="primitive"/>
        </g>
        <g transform="translate(41.48,22.64)">
          <path fill="none" d="M-23.52,0 L 23.52 0" class="primitive"/>
        </g>
        <g transform="translate(41.48,9.61)">
          <path fill="none" d="M-23.52,0 L 23.52 0" class="primitive"/>
        </g>
      </g>
      <g class="guide xgridlines yfixed" stroke-dasharray="0.5,0.5" stroke-width="0.2" stroke="#D0D0E0" id="img-abf74429-34">
        <g transform="translate(19.96,27.86)">
          <path fill="none" d="M0,-22.86 L 0 22.86" class="primitive"/>
        </g>
        <g transform="translate(30.72,27.86)">
          <path fill="none" d="M0,-22.86 L 0 22.86" class="primitive"/>
        </g>
        <g transform="translate(41.48,27.86)">
          <path fill="none" d="M0,-22.86 L 0 22.86" class="primitive"/>
        </g>
        <g transform="translate(52.24,27.86)">
          <path fill="none" d="M0,-22.86 L 0 22.86" class="primitive"/>
        </g>
        <g transform="translate(63,27.86)">
          <path fill="none" d="M0,-22.86 L 0 22.86" class="primitive"/>
        </g>
      </g>
      <g class="plotpanel" id="img-abf74429-35">
        <metadata>
          <boundingbox value="17.95833333333333mm 5.0mm 47.04166666666667mm 45.715mm"/>
          <unitbox value="-9.293320425943852 67.06844060889368 218.58664085188772 -70.13688121778736"/>
        </metadata>
        <g stroke-width="0.3" fill="#000000" fill-opacity="0.000" class="geometry" id="img-abf74429-36">
          <g class="color_RGB{N0f8}(0.0,0.0,0.0)" stroke-dasharray="2,1" stroke="#000000" id="img-abf74429-37">
            <g transform="translate(41.59,7)">
              <path fill="none" d="M-21.41,0 L 21.41 0" class="primitive"/>
            </g>
          </g>
        </g>
        <g stroke-width="0.3" fill="#000000" fill-opacity="0.000" class="geometry" id="img-abf74429-38">
          <g class="color_RGB{N0f8}(0.0,0.0,0.0)" stroke-dasharray="none" stroke="#000000" id="img-abf74429-39">
            <g transform="translate(41.59,9.06)">
              <path fill="none" d="M-21.41,16.19 L -21.2 15.45 -20.98 14.73 -20.77 14.03 -20.55 13.36 -20.34 12.71 -20.12 12.08 -19.91 11.48 -19.69 10.9 -19.48 10.34 -19.26 9.8 -19.05 9.28 -18.83 8.78 -18.62 8.31 -18.4 7.85 -18.19 7.41 -17.97 6.99 -17.75 6.58 -17.54 6.19 -17.32 5.82 -17.11 5.47 -16.89 5.13 -16.68 4.8 -16.46 4.49 -16.25 4.19 -16.03 3.9 -15.82 3.63 -15.6 3.37 -15.39 3.12 -15.17 2.88 -14.96 2.66 -14.74 2.44 -14.53 2.23 -14.31 2.03 -14.1 1.84 -13.88 1.66 -13.67 1.49 -13.45 1.32 -13.24 1.16 -13.02 1.01 -12.8 0.87 -12.59 0.73 -12.37 0.6 -12.16 0.48 -11.94 0.36 -11.73 0.25 -11.51 0.14 -11.3 0.04 -11.08 -0.06 -10.87 -0.16 -10.65 -0.25 -10.44 -0.33 -10.22 -0.41 -10.01 -0.49 -9.79 -0.56 -9.58 -0.63 -9.36 -0.7 -9.15 -0.77 -8.93 -0.83 -8.72 -0.88 -8.5 -0.94 -8.29 -0.99 -8.07 -1.04 -7.86 -1.09 -7.64 -1.14 -7.42 -1.18 -7.21 -1.22 -6.99 -1.26 -6.78 -1.3 -6.56 -1.34 -6.35 -1.37 -6.13 -1.4 -5.92 -1.43 -5.7 -1.46 -5.49 -1.49 -5.27 -1.52 -5.06 -1.54 -4.84 -1.57 -4.63 -1.59 -4.41 -1.61 -4.2 -1.63 -3.98 -1.65 -3.77 -1.67 -3.55 -1.69 -3.34 -1.71 -3.12 -1.73 -2.91 -1.74 -2.69 -1.76 -2.47 -1.77 -2.26 -1.78 -2.04 -1.8 -1.83 -1.81 -1.61 -1.82 -1.4 -1.83 -1.18 -1.84 -0.97 -1.85 -0.75 -1.86 -0.54 -1.87 -0.32 -1.88 -0.11 -1.89 0.11 -1.9 0.32 -1.91 0.54 -1.91 0.75 -1.92 0.97 -1.93 1.18 -1.93 1.4 -1.94 1.61 -1.94 1.83 -1.95 2.04 -1.95 2.26 -1.96 2.47 -1.96 2.69 -1.97 2.91 -1.97 3.12 -1.98 3.34 -1.98 3.55 -1.98 3.77 -1.99 3.98 -1.99 4.2 -1.99 4.41 -2 4.63 -2 4.84 -2 5.06 -2.01 5.27 -2.01 5.49 -2.01 5.7 -2.01 5.92 -2.01 6.13 -2.02 6.35 -2.02 6.56 -2.02 6.78 -2.02 6.99 -2.02 7.21 -2.03 7.42 -2.03 7.64 -2.03 7.86 -2.03 8.07 -2.03 8.29 -2.03 8.5 -2.03 8.72 -2.03 8.93 -2.04 9.15 -2.04 9.36 -2.04 9.58 -2.04 9.79 -2.04 10.01 -2.04 10.22 -2.04 10.44 -2.04 10.65 -2.04 10.87 -2.04 11.08 -2.04 11.3 -2.04 11.51 -2.05 11.73 -2.05 11.94 -2.05 12.16 -2.05 12.37 -2.05 12.59 -2.05 12.8 -2.05 13.02 -2.05 13.24 -2.05 13.45 -2.05 13.67 -2.05 13.88 -2.05 14.1 -2.05 14.31 -2.05 14.53 -2.05 14.74 -2.05 14.96 -2.05 15.17 -2.05 15.39 -2.05 15.6 -2.05 15.82 -2.05 16.03 -2.05 16.25 -2.05 16.46 -2.05 16.68 -2.05 16.89 -2.05 17.11 -2.05 17.32 -2.05 17.54 -2.05 17.75 -2.05 17.97 -2.05 18.19 -2.05 18.4 -2.05 18.62 -2.05 18.83 -2.05 19.05 -2.05 19.26 -2.05 19.48 -2.06 19.69 -2.06 19.91 -2.06 20.12 -2.06 20.34 -2.06 20.55 -2.06 20.77 -2.06 20.98 -2.06 21.2 -2.06 21.41 -2.06" class="primitive"/>
            </g>
          </g>
        </g>
      </g>
    </g>
  </g>
  <g class="guide ylabels" font-size="2.82" font-family="'PT Sans Caption','Helvetica Neue','Helvetica',sans-serif" fill="#6C606B" id="img-abf74429-40">
    <g transform="translate(16.96,48.72)">
      <g class="primitive">
        <text text-anchor="end" dy="0.35em">0</text>
      </g>
    </g>
    <g transform="translate(16.96,35.68)">
      <g class="primitive">
        <text text-anchor="end" dy="0.35em">20</text>
      </g>
    </g>
    <g transform="translate(16.96,22.64)">
      <g class="primitive">
        <text text-anchor="end" dy="0.35em">40</text>
      </g>
    </g>
    <g transform="translate(16.96,9.61)">
      <g class="primitive">
        <text text-anchor="end" dy="0.35em">60</text>
      </g>
    </g>
  </g>
  <g font-size="3.88" font-family="'PT Sans','Helvetica Neue','Helvetica',sans-serif" fill="#564A55" stroke="#000000" stroke-opacity="0.000" id="img-abf74429-41">
    <g transform="translate(8.81,25.86)">
      <g class="primitive">
        <text text-anchor="middle" dy="0.35em" transform="rotate(-90,0, 2)">K/L</text>
      </g>
    </g>
  </g>
</g>
<defs>
  <clipPath id="img-abf74429-4">
    <path d="M165.28,5 L 205 5 205 50.72 165.28 50.72" />
  </clipPath>
  <clipPath id="img-abf74429-17">
    <path d="M96.72,5 L 135 5 135 50.72 96.72 50.72" />
  </clipPath>
  <clipPath id="img-abf74429-30">
    <path d="M17.96,5 L 65 5 65 50.72 17.96 50.72" />
  </clipPath>
</defs>
</svg>
